<?xml version="1.0" encoding="UTF-8" standalone="no"?>
<!DOCTYPE svg PUBLIC "-//W3C//DTD SVG 1.1//EN" "http://www.w3.org/Graphics/SVG/1.1/DTD/svg11.dtd">
<svg xmlns="http://www.w3.org/2000/svg" version="1.1" viewBox="0 0 807 212">
<g stroke-width="2.00" fill="none" stroke-linecap="butt">
<path stroke="#808080" vector-effect="non-scaling-stroke" d="
  M 27.75 55.71
  C 8.75 57.29 8.69 84.38 27.24 85.79
  A 0.55 0.55 2.2 0 1 27.75 86.34
  Q 27.75 116.75 27.75 146.75
  C 27.75 152.39 32.39 156.73 37.29 158.39
  Q 39.80 159.24 46.29 159.27
  Q 117.02 159.53 187.75 159.77
  Q 199.14 159.81 203.89 149.94"
/>
<path stroke="#808080" vector-effect="non-scaling-stroke" d="
  M 203.89 149.94
  Q 210.30 148.93 213.81 145.56
  C 220.44 139.20 219.72 128.52 212.85 122.86
  C 206.23 117.39 194.67 119.14 190.46 127.20
  C 185.01 137.62 191.59 148.40 202.75 149.79"
/>
<path stroke="#808080" vector-effect="non-scaling-stroke" d="
  M 202.75 149.79
  C 199.23 157.41 190.67 158.84 183.00 158.74
  Q 140.00 158.18 97.00 158.25
  Q 70.39 158.29 43.78 157.82
  C 36.93 157.70 29.50 154.42 29.21 146.63
  C 28.44 126.63 29.31 106.47 28.95 86.43
  A 0.53 0.53 -3.5 0 1 29.43 85.89
  C 48.13 83.99 47.56 57.26 28.73 55.75"
/>
<path stroke="#808080" vector-effect="non-scaling-stroke" d="
  M 28.73 55.75
  Q 29.49 46.67 29.33 37.59
  C 29.16 27.80 36.98 24.78 45.31 24.81
  Q 116.41 25.14 187.50 25.08
  Q 196.13 25.07 201.94 32.06
  Q 202.85 33.16 203.15 32.25
  A 1.18 0.93 40.7 0 0 202.97 31.33
  Q 197.73 23.73 188.00 23.75
  C 147.01 23.85 95.04 23.05 44.81 23.69
  C 35.84 23.80 27.75 27.04 27.75 37.33
  Q 27.75 46.52 27.75 55.71"
/>
<path stroke="#000000" vector-effect="non-scaling-stroke" d="
  M 28.73 55.75
  L 27.75 55.71"
/>
<path stroke="#000000" vector-effect="non-scaling-stroke" d="
  M 202.75 149.79
  Q 203.15 149.59 203.89 149.94"
/>
<path stroke="#808080" vector-effect="non-scaling-stroke" d="
  M 582.50 34.71
  C 563.13 35.53 562.40 61.97 581.25 64.93
  A 0.61 0.59 4.1 0 1 581.76 65.50
  Q 582.15 102.31 582.02 139.12
  C 581.97 152.86 587.19 156.17 600.76 156.32
  C 648.25 156.82 695.75 156.25 743.25 156.25
  Q 749.68 156.25 753.71 151.00"
/>
<path stroke="#ffffff" vector-effect="non-scaling-stroke" d="
  M 753.71 151.00
  Q 754.03 150.33 754.72 150.54"
/>
<path stroke="#808080" vector-effect="non-scaling-stroke" d="
  M 754.72 150.54
  C 776.21 151.12 776.67 122.49 757.25 120.21"
/>
<path stroke="#808080" vector-effect="non-scaling-stroke" d="
  M 757.25 120.21
  L 757.00 65.85
  A 1.92 1.90 -5.7 0 1 758.56 63.97
  C 775.01 60.75 774.55 38.84 758.25 34.00
  Q 756.45 33.47 755.69 32.31
  C 750.23 24.10 744.28 24.75 733.87 24.75
  Q 666.31 24.75 598.76 24.75
  C 591.48 24.75 584.24 26.58 582.50 34.71"
/>
<path stroke="#000000" vector-effect="non-scaling-stroke" d="
  M 757.25 120.21
  L 756.25 120.21"
/>
<path stroke="#808080" vector-effect="non-scaling-stroke" d="
  M 756.25 120.21
  Q 755.55 92.76 755.94 65.29
  A 1.24 1.24 1.9 0 0 754.77 64.04
  C 737.60 63.01 735.86 37.14 753.76 34.25
  A 0.87 0.86 -20.6 0 0 754.36 32.94
  Q 750.11 26.13 741.75 26.12
  Q 672.54 26.00 603.32 26.00
  C 594.65 26.00 587.34 25.94 583.25 34.71"
/>
<path stroke="#000000" vector-effect="non-scaling-stroke" d="
  M 583.25 34.71
  Q 582.87 34.80 582.50 34.71"
/>
<path stroke="#808080" vector-effect="non-scaling-stroke" d="
  M 756.25 120.21
  Q 745.29 121.70 742.61 130.52
  C 739.73 140.01 744.76 148.63 754.72 150.54"
/>
<path stroke="#808080" vector-effect="non-scaling-stroke" d="
  M 753.71 151.00
  Q 752.82 150.60 751.81 151.56
  C 747.95 155.27 741.80 155.00 736.25 155.00
  Q 668.96 155.00 601.68 155.00
  C 590.97 155.00 583.28 153.41 583.24 140.81
  Q 583.11 103.30 583.19 65.58
  A 0.78 0.77 -2.9 0 1 583.89 64.81
  C 602.42 62.86 601.57 36.57 583.25 34.71"
/>
<path stroke="#808080" vector-effect="non-scaling-stroke" d="
  M 245.94 32.96
  Q 246.75 34.51 245.01 34.25
  C 243.13 33.97 241.94 34.84 241.46 36.67
  Q 239.98 42.26 247.07 41.70
  A 1.16 1.13 86.0 0 0 248.12 40.46
  L 247.52 31.26
  A 0.69 0.64 -86.3 0 0 247.01 30.63
  Q 244.46 30.10 245.94 32.96"
/>
<path stroke="#808080" vector-effect="non-scaling-stroke" d="
  M 474.45 34.41
  C 472.23 34.38 470.61 35.40 470.24 37.71
  Q 469.34 43.25 476.48 42.14
  A 0.84 0.76 84.8 0 0 477.11 41.30
  L 476.73 31.99
  A 1.40 0.69 -82.6 0 0 476.43 31.11
  Q 475.78 30.48 474.96 31.01
  A 0.87 0.62 74.4 0 0 474.68 31.79
  L 474.94 33.94
  A 0.48 0.42 -2.5 0 1 474.45 34.41"
/>
<path stroke="#808080" vector-effect="non-scaling-stroke" d="
  M 481.2884 31.8240
  A 1.03 0.89 8.6 0 0 480.4031 30.7900
  A 1.03 0.89 8.6 0 0 479.2516 31.5160
  A 1.03 0.89 8.6 0 0 480.1369 32.5500
  A 1.03 0.89 8.6 0 0 481.2884 31.8240"
/>
<path stroke="#808080" vector-effect="non-scaling-stroke" d="
  M 239.80 40.63
  Q 238.27 37.78 239.44 35.38
  A 1.60 1.20 -43.5 0 0 239.60 34.44
  Q 238.87 30.62 237.24 33.55
  A 1.62 1.42 59.6 0 0 237.06 34.49
  C 237.28 36.29 236.23 42.37 239.42 41.52
  A 0.62 0.61 68.4 0 0 239.80 40.63"
/>
<path stroke="#808080" vector-effect="non-scaling-stroke" d="
  M 268.54 35.19
  C 269.41 34.86 268.76 34.46 268.59 34.08
  C 265.82 27.82 263.69 43.66 268.82 41.56
  Q 270.48 40.88 268.74 40.45
  C 267.34 40.11 267.59 36.86 267.90 35.78
  A 1.12 0.76 -8.6 0 1 268.54 35.19"
/>
<path stroke="#808080" vector-effect="non-scaling-stroke" d="
  M 468.12 33.87
  C 467.26 31.30 466.50 33.68 466.04 34.62
  A 1.51 1.33 -41.3 0 0 465.92 35.54
  C 466.33 37.35 465.39 42.68 468.26 42.28
  A 0.37 0.37 -10.2 0 0 468.58 41.82
  Q 467.77 38.56 468.25 35.28
  Q 468.35 34.56 468.12 33.87"
/>
<path stroke="#808080" vector-effect="non-scaling-stroke" d="
  M 203.25 63.54
  Q 203.19 90.82 203.07 118.09
  C 203.06 118.49 203.23 119.66 203.87 119.07
  A 1.32 0.90 75.6 0 0 204.19 118.19
  L 204.04 63.50"
/>
<path stroke="#808080" vector-effect="non-scaling-stroke" d="
  M 204.04 63.50
  C 208.90 62.70 212.95 60.83 215.60 56.52
  C 220.33 48.81 217.70 39.58 210.20 34.99
  C 200.73 29.20 187.03 37.98 188.05 49.06
  C 188.82 57.35 195.20 62.57 203.25 63.54"
/>
<path stroke="#000000" vector-effect="non-scaling-stroke" d="
  M 204.04 63.50
  Q 203.67 63.24 203.25 63.54"
/>
<path stroke="#808080" vector-effect="non-scaling-stroke" d="
  M 232.30 34.78
  C 232.93 33.77 234.30 36.75 235.17 36.11
  A 0.87 0.72 67.1 0 0 235.43 35.25
  C 234.87 32.97 230.66 33.64 230.55 36.20
  A 1.10 0.87 -73.6 0 0 230.90 37.07
  L 233.49 39.08
  A 0.92 0.61 29.2 0 1 233.87 39.82
  C 233.24 43.57 229.95 37.02 230.25 40.45
  A 1.08 1.05 15.4 0 0 230.71 41.24
  C 233.46 43.17 238.84 40.12 232.77 36.64
  A 1.34 1.33 30.9 0 1 232.30 34.78"
/>
<path stroke="#808080" vector-effect="non-scaling-stroke" d="
  M 261.47 40.62
  C 258.07 41.68 260.84 32.09 257.87 34.17
  A 1.00 0.60 77.0 0 0 257.60 34.99
  L 258.00 39.75
  Q 258.25 42.78 260.00 42.00
  Q 261.71 41.24 263.52 41.75
  A 0.72 0.69 -85.5 0 0 264.40 40.97
  L 263.78 35.25
  A 1.60 0.80 -84.8 0 0 263.43 34.35
  Q 262.80 33.72 262.13 34.17
  A 0.70 0.57 63.0 0 0 261.96 34.96
  Q 262.99 37.43 262.12 39.96
  A 1.08 0.94 -86.4 0 1 261.47 40.62"
/>
<path stroke="#808080" vector-effect="non-scaling-stroke" d="
  M 449.57 47.81
  L 544.87 48.01
  A 0.88 0.88 -88.0 0 1 545.75 48.89
  L 545.75 53.01
  Q 545.75 53.98 546.61 53.49
  L 556.78 47.58
  Q 557.57 47.12 556.83 46.70
  L 546.70 40.96
  A 0.38 0.37 17.6 0 0 546.14 41.24
  L 545.75 45.46
  A 1.15 1.03 -86.7 0 1 544.70 46.50
  L 450.67 46.25
  A 1.89 1.89 -3.4 0 1 448.79 44.59
  C 448.02 38.20 444.45 34.00 437.91 34.00
  Q 399.26 34.04 360.61 34.23
  C 356.19 34.25 349.67 33.87 344.15 34.15
  C 342.80 34.22 339.07 33.91 337.56 34.81
  Q 330.99 38.73 330.74 46.94
  A 0.46 0.45 -74.7 0 1 330.07 47.33
  L 320.71 42.08
  A 0.76 0.70 -75.7 0 0 319.66 42.76
  L 319.56 46.94
  A 0.63 0.51 0.5 0 1 318.93 47.44
  Q 269.95 47.70 220.97 47.25
  C 219.37 47.24 218.92 48.62 220.75 48.81
  Q 222.88 49.03 226.50 49.00
  Q 265.90 48.73 318.94 49.31
  A 0.62 0.50 -0.5 0 1 319.56 49.80
  L 319.68 53.87
  A 0.66 0.58 75.7 0 0 320.56 54.47
  L 329.87 49.02
  A 0.90 0.88 -22.8 0 1 331.18 49.54
  C 332.59 54.72 336.26 58.74 341.86 58.76
  Q 389.67 58.96 437.49 59.00
  C 444.22 59.00 448.29 55.02 449.02 48.31
  A 0.56 0.55 -87.1 0 1 449.57 47.81"
/>
<path stroke="#808080" vector-effect="non-scaling-stroke" d="
  M 256.59 37.98
  A 3.79 3.79 0.0 0 0 252.80 34.19
  A 3.79 3.79 0.0 0 0 249.01 37.98
  A 3.79 3.79 0.0 0 0 252.80 41.77
  A 3.79 3.79 0.0 0 0 256.59 37.98"
/>
<path stroke="#808080" vector-effect="non-scaling-stroke" d="
  M 461.09 35.87
  A 0.77 0.77 -61.1 0 1 462.26 35.53
  Q 464.63 37.26 464.31 35.54
  A 0.82 0.77 2.7 0 0 463.71 34.92
  Q 462.27 34.53 460.80 34.73
  A 0.98 0.96 -80.3 0 0 460.07 35.26
  Q 458.51 38.32 461.96 39.42
  A 1.23 1.02 0.8 0 1 462.66 40.02
  C 464.40 44.02 458.59 38.37 459.41 41.22
  A 1.30 1.26 7.8 0 0 459.99 41.96
  Q 462.67 43.53 464.44 40.94
  Q 466.02 38.62 462.69 37.81
  Q 460.53 37.29 461.09 35.87"
/>
<path stroke="#808080" vector-effect="non-scaling-stroke" d="
  M 480.9425 35.0391
  A 0.28 0.28 0.0 0 0 480.6501 34.7721
  L 479.2515 34.8356
  A 0.28 0.28 0.0 0 0 478.9845 35.1280
  L 479.2975 42.0209
  A 0.28 0.28 0.0 0 0 479.5899 42.2879
  L 480.9885 42.2244
  A 0.28 0.28 0.0 0 0 481.2555 41.9320
  L 480.9425 35.0391"
/>
<path stroke="#808080" vector-effect="non-scaling-stroke" d="
  M 485.79 35.75
  Q 486.69 35.70 487.37 36.18
  A 0.98 0.94 -72.5 0 1 487.77 36.99
  L 487.61 41.68
  A 0.61 0.45 -88.8 0 0 488.05 42.31
  L 489.46 42.31
  A 0.47 0.38 79.9 0 0 489.79 41.71
  C 489.20 39.72 490.29 32.16 485.75 35.29"
/>
<path stroke="#808080" vector-effect="non-scaling-stroke" d="
  M 485.75 35.29
  Q 484.55 34.33 483.42 34.96
  A 0.69 0.61 67.9 0 0 483.15 35.72
  C 483.69 37.58 482.36 43.52 484.98 42.37
  A 1.02 1.02 70.0 0 0 485.55 41.15
  Q 484.69 38.30 485.79 35.75"
/>
<path stroke="#000000" vector-effect="non-scaling-stroke" d="
  M 485.75 35.29
  L 485.79 35.75"
/>
<path stroke="#808080" vector-effect="non-scaling-stroke" d="
  M 106.1781 109.9889
  A 6.15 5.42 88.9 0 0 111.4790 103.7359
  A 6.15 5.42 88.9 0 0 105.9419 97.6911
  A 6.15 5.42 88.9 0 0 100.6410 103.9441
  A 6.15 5.42 88.9 0 0 106.1781 109.9889"
/>
<path stroke="#808080" vector-effect="non-scaling-stroke" d="
  M 119.20 106.40
  C 114.46 110.25 114.50 97.56 118.95 101.10
  A 1.75 0.99 53.7 0 0 119.81 101.49
  C 124.21 101.83 119.74 95.90 115.56 98.31
  C 110.32 101.33 112.40 111.84 119.77 109.30
  C 121.30 108.77 123.33 106.30 120.06 106.08
  A 1.39 0.97 -55.2 0 0 119.20 106.40"
/>
<path stroke="#808080" vector-effect="non-scaling-stroke" d="
  M 140.50 106.55
  C 140.19 108.91 133.53 103.27 134.69 108.21
  A 1.12 1.09 8.3 0 0 135.24 108.93
  Q 138.49 110.65 141.86 109.26
  A 1.20 1.20 89.3 0 0 142.51 108.61
  C 145.44 101.63 136.86 102.52 137.28 101.36
  A 1.18 1.18 -70.5 0 1 138.77 100.65
  Q 143.11 102.16 142.67 99.43
  A 1.07 1.02 10.7 0 0 142.14 98.69
  C 138.79 96.87 131.57 99.09 135.32 103.28
  C 136.45 104.55 138.40 105.00 140.00 105.83
  A 0.88 0.59 21.2 0 1 140.50 106.55"
/>
<path stroke="#808080" vector-effect="non-scaling-stroke" d="
  M 148.12 100.89
  C 148.25 99.20 153.10 103.89 152.97 99.56
  A 0.97 0.96 -75.2 0 0 152.52 98.78
  C 150.10 97.28 146.65 97.43 145.32 100.25
  C 143.67 103.76 148.26 104.71 150.45 105.82
  Q 152.22 106.72 150.26 107.04
  C 148.93 107.26 147.60 106.44 146.58 106.34
  C 144.15 106.12 144.92 108.35 146.29 109.15
  C 152.28 112.68 158.08 104.52 149.19 102.35
  A 1.40 1.39 9.0 0 1 148.12 100.89"
/>
<path stroke="#808080" vector-effect="non-scaling-stroke" d="
  M 81.80 105.88
  C 85.23 106.26 89.70 103.43 87.41 99.90
  C 85.85 97.49 81.72 97.73 79.24 98.16
  A 0.65 0.65 88.3 0 0 78.70 98.74
  Q 78.37 102.35 78.46 105.97
  C 78.50 107.51 77.65 110.91 80.80 109.47
  A 0.85 0.73 80.4 0 0 81.24 108.74
  L 81.28 106.31
  A 0.47 0.44 4.1 0 1 81.80 105.88"
/>
<path stroke="#808080" vector-effect="non-scaling-stroke" d="
  M 93.42 105.56
  C 95.65 105.56 94.63 111.41 98.75 109.43
  A 0.54 0.47 64.8 0 0 98.94 108.75
  L 97.61 105.91
  A 0.94 0.77 -42.7 0 1 97.73 105.04
  C 102.90 97.72 94.87 98.00 90.40 98.00
  A 1.24 1.17 90.0 0 0 89.23 99.24
  L 89.23 108.54
  A 1.20 1.13 -87.7 0 0 90.26 109.73
  Q 92.71 109.95 92.13 107.16
  A 1.32 1.32 84.0 0 1 93.42 105.56"
/>
<path stroke="#808080" vector-effect="non-scaling-stroke" d="
  M 126.48 101.45
  C 126.55 100.36 130.65 100.75 131.53 100.75
  A 0.91 0.90 8.1 0 0 132.40 100.10
  C 133.44 96.56 126.50 98.06 124.69 98.28
  A 0.79 0.78 86.7 0 0 124.00 99.06
  L 124.00 109.23
  A 0.52 0.52 0.0 0 0 124.52 109.75
  L 132.00 109.75
  A 0.73 0.68 8.9 0 0 132.68 109.29
  C 133.81 106.04 129.25 107.04 127.56 106.96
  A 1.00 0.92 -13.4 0 1 126.77 106.52
  C 124.93 103.51 131.94 106.13 130.03 102.91
  A 1.18 0.92 -6.1 0 0 129.26 102.43
  L 127.06 102.04
  A 0.68 0.54 7.1 0 1 126.48 101.45"
/>
<path stroke="#808080" vector-effect="non-scaling-stroke" d="
  M 456.59 188.44
  C 456.93 187.62 462.48 188.08 463.44 188.15
  A 0.92 0.82 17.6 0 0 464.24 187.79
  Q 465.22 186.37 463.83 185.67
  A 4.44 4.40 54.8 0 0 461.30 185.22
  Q 457.08 185.73 457.76 184.46
  A 1.04 0.75 9.1 0 1 458.57 184.05
  L 462.19 183.95
  A 1.13 1.00 16.5 0 0 463.02 183.56
  C 465.43 180.64 458.89 182.97 458.17 180.44
  A 0.85 0.65 82.1 0 0 457.57 179.84
  Q 456.22 179.69 455.62 180.97
  A 1.37 0.92 -79.9 0 1 454.98 181.63
  Q 452.30 182.66 451.56 180.29
  A 0.96 0.66 81.2 0 0 450.96 179.65
  C 450.08 179.51 446.48 186.09 445.50 187.25
  A 1.50 1.02 22.3 0 0 446.69 189.06
  Q 448.42 189.48 447.93 191.03
  Q 447.86 191.28 447.84 192.00
  L 447.74 197.32
  A 0.79 0.62 -81.7 0 0 448.16 198.06
  Q 450.91 198.97 450.74 196.48
  Q 450.52 193.02 450.50 189.54
  C 450.50 188.82 449.66 186.83 451.55 187.75
  Q 452.01 187.98 452.51 187.96
  Q 454.86 187.84 453.16 190.01
  Q 452.06 191.41 453.75 191.51
  L 457.87 191.75
  Q 459.56 191.85 458.23 192.84
  C 457.20 193.61 454.65 192.45 454.52 193.94
  A 1.09 0.76 25.9 0 0 454.97 194.74
  L 458.91 197.64
  A 1.56 1.22 56.9 0 0 459.82 197.95
  Q 461.38 197.90 461.17 196.42
  A 1.20 0.79 18.9 0 0 460.62 195.71
  C 459.11 194.80 462.48 192.11 463.38 190.80
  A 0.83 0.82 19.3 0 0 462.75 189.52
  L 457.05 189.00
  A 0.50 0.40 12.0 0 1 456.59 188.44"
/>
<path stroke="#ffffff" vector-effect="non-scaling-stroke" d="
  M 393.86 191.68
  Q 394.95 191.63 394.79 192.25"
/>
<path stroke="#808080" vector-effect="non-scaling-stroke" d="
  M 394.79 192.25
  C 394.13 194.35 403.11 194.29 396.62 195.17
  C 395.12 195.38 393.14 194.60 393.69 197.20
  A 0.62 0.62 -5.7 0 0 394.30 197.70
  L 404.79 197.75
  A 0.67 0.66 -82.6 0 0 405.43 197.25
  Q 406.06 194.92 402.92 195.37
  A 1.95 1.95 -27.6 0 1 401.35 194.88
  C 399.07 192.82 405.65 195.04 404.64 192.27
  A 0.88 0.80 -5.2 0 0 403.95 191.75
  Q 398.51 191.05 402.91 190.12
  C 404.09 189.87 405.66 190.77 405.27 188.36
  A 0.82 0.82 -5.7 0 0 404.44 187.68
  C 401.65 187.76 398.71 187.93 396.03 187.67
  Q 394.22 187.50 394.50 189.71"
/>
<path stroke="#ffffff" vector-effect="non-scaling-stroke" d="
  M 394.50 189.71
  L 394.00 189.79"
/>
<path stroke="#808080" vector-effect="non-scaling-stroke" d="
  M 394.00 189.79
  C 391.44 188.20 393.63 186.76 395.26 186.73
  Q 399.12 186.66 403.76 186.77
  A 0.70 0.68 0.4 0 0 404.48 186.08
  L 404.46 180.80
  A 0.58 0.55 2.4 0 0 403.94 180.26
  Q 399.29 179.78 394.71 180.75"
/>
<path stroke="#ffffff" vector-effect="non-scaling-stroke" d="
  M 394.71 180.75
  L 394.00 180.79"
/>
<path stroke="#808080" vector-effect="non-scaling-stroke" d="
  M 394.00 180.79
  C 392.57 179.28 386.28 180.65 387.38 182.42
  A 1.58 0.91 4.7 0 0 388.16 182.96
  C 393.09 184.62 385.81 184.70 386.83 187.01
  A 0.88 0.64 -7.6 0 0 387.57 187.41
  C 390.42 187.49 387.09 191.50 386.57 192.38
  A 1.40 1.13 -40.3 0 0 386.39 193.31
  Q 386.85 195.40 388.85 193.54
  Q 389.50 192.93 389.50 193.82
  C 389.50 195.41 388.65 199.29 391.48 198.15
  A 0.63 0.60 73.2 0 0 391.83 197.46
  Q 391.09 193.66 393.86 191.68"
/>
<path stroke="#808080" vector-effect="non-scaling-stroke" d="
  M 394.00 180.79
  C 394.71 181.56 388.66 183.98 394.01 185.38
  A 0.42 0.41 8.9 0 0 394.54 185.00
  L 394.71 180.75"
/>
<path stroke="#808080" vector-effect="non-scaling-stroke" d="
  M 394.00 189.79
  Q 394.61 190.84 393.86 191.68"
/>
<path stroke="#808080" vector-effect="non-scaling-stroke" d="
  M 394.79 192.25
  C 395.58 191.72 399.43 191.51 398.62 190.58
  A 1.49 0.73 -2.4 0 0 397.75 190.20
  L 394.50 189.71"
/>
<path stroke="#808080" vector-effect="non-scaling-stroke" d="
  M 302.20 180.51
  L 302.02 197.58
  A 0.58 0.56 -6.4 0 0 302.73 198.13
  Q 310.63 196.20 318.33 198.08
  A 0.74 0.72 7.0 0 0 319.24 197.39
  L 319.20 180.57
  A 0.53 0.52 0.6 0 0 318.68 180.05
  L 302.73 180.00
  A 0.53 0.51 0.0 0 0 302.20 180.51"
/>
<path stroke="#ffffff" vector-effect="non-scaling-stroke" d="
  M 372.75 188.29
  Q 372.06 188.36 371.79 187.75"
/>
<path stroke="#808080" vector-effect="non-scaling-stroke" d="
  M 371.79 187.75
  Q 369.99 185.95 367.64 186.97
  A 1.04 0.99 -6.4 0 0 367.05 187.67
  Q 366.71 189.32 368.50 189.48
  A 0.77 0.68 -4.1 0 1 369.15 189.98
  Q 370.10 193.30 367.44 195.03
  A 1.32 1.31 56.8 0 0 367.06 196.87
  Q 368.63 199.22 369.32 196.49
  A 0.98 0.97 26.5 0 1 370.88 195.97
  C 374.16 198.60 380.05 198.21 383.94 197.75
  A 1.11 1.05 12.2 0 0 384.72 197.28
  Q 386.70 194.26 381.75 195.46"
/>
<path stroke="#ffffff" vector-effect="non-scaling-stroke" d="
  M 381.75 195.46
  L 381.71 195.25"
/>
<path stroke="#808080" vector-effect="non-scaling-stroke" d="
  M 381.71 195.25
  C 383.59 193.42 380.95 190.14 384.25 190.21
  A 0.93 0.77 14.2 0 0 385.03 189.84
  Q 386.21 187.98 383.82 187.93
  A 1.76 1.00 -14.1 0 1 382.89 187.67
  C 379.49 185.22 389.37 185.12 383.10 182.78
  A 0.86 0.84 -83.3 0 1 382.56 182.08
  Q 382.28 179.43 380.52 180.10
  A 0.91 0.88 84.6 0 0 379.95 180.81
  L 379.74 182.18
  A 0.87 0.69 89.6 0 1 379.21 182.85
  Q 377.44 183.35 377.68 181.24
  A 1.01 0.82 -70.3 0 0 377.39 180.41
  C 374.65 178.13 375.84 183.20 373.31 183.32
  A 0.75 0.59 3.0 0 0 372.64 183.79
  C 372.31 185.18 378.84 187.08 372.75 188.29"
/>
<path stroke="#808080" vector-effect="non-scaling-stroke" d="
  M 381.71 195.25
  C 377.91 194.43 381.43 189.44 378.28 190.39
  A 1.46 0.91 -73.1 0 0 377.58 191.00
  L 375.28 194.83
  A 0.30 0.28 -72.9 0 0 375.50 195.28
  L 381.75 195.46"
/>
<path stroke="#808080" vector-effect="non-scaling-stroke" d="
  M 371.79 187.75
  C 371.54 189.50 371.18 193.78 372.98 194.74
  Q 373.41 194.96 373.39 194.45
  Q 373.32 193.08 374.15 191.35
  A 0.75 0.74 -65.9 0 0 373.77 190.34
  Q 372.21 189.71 372.75 188.29"
/>
<path stroke="#ffffff" vector-effect="non-scaling-stroke" d="
  M 471.46 188.00
  Q 470.97 187.63 470.79 187.00"
/>
<path stroke="#808080" vector-effect="non-scaling-stroke" d="
  M 470.79 187.00
  Q 468.60 185.31 466.41 186.71
  A 0.87 0.65 -25.6 0 0 466.00 187.49
  Q 466.18 188.25 467.42 188.62
  A 0.95 0.94 3.6 0 1 468.08 189.36
  Q 468.89 193.69 466.13 195.44
  A 0.94 0.78 -18.9 0 0 465.68 196.18
  Q 465.69 199.26 468.19 197.44
  A 2.47 0.99 -38.6 0 1 470.50 196.75
  C 473.09 198.82 478.46 198.69 481.63 198.33
  C 483.38 198.12 484.36 198.79 484.74 196.35
  A 0.98 0.98 88.2 0 0 483.56 195.24
  Q 479.15 196.20 474.74 195.57
  Q 474.25 195.50 474.62 195.15
  L 477.90 191.98
  A 0.60 0.59 47.6 0 1 478.76 192.02
  C 479.18 192.49 483.49 196.83 483.45 193.80
  A 2.48 2.48 16.0 0 0 482.31 191.75
  C 476.49 187.97 484.74 191.49 484.51 188.45
  A 1.10 1.10 84.4 0 0 483.27 187.43
  Q 481.11 187.72 479.52 187.13
  A 0.63 0.58 16.5 0 1 479.11 186.44
  C 479.59 184.13 484.84 186.99 483.53 183.98
  C 483.08 182.93 481.63 182.79 482.48 181.17
  A 0.72 0.59 -55.2 0 0 482.42 180.39
  C 479.69 177.68 478.81 187.34 476.48 181.16
  A 1.41 1.13 88.5 0 0 475.88 180.45
  Q 472.98 178.93 474.03 182.21
  A 0.45 0.44 -14.3 0 1 473.69 182.77
  Q 471.44 183.25 472.46 184.85
  A 1.29 1.04 -6.1 0 0 473.25 185.36
  C 473.77 185.48 478.04 185.47 476.60 186.90
  A 1.86 1.85 25.6 0 1 475.11 187.42
  Q 472.27 187.12 471.46 188.00"
/>
<path stroke="#808080" vector-effect="non-scaling-stroke" d="
  M 470.79 187.00
  Q 470.42 190.57 471.09 194.07
  A 0.31 0.31 -24.4 0 0 471.59 194.25
  Q 474.37 192.13 475.31 191.06
  C 477.65 188.43 471.70 191.42 471.46 188.00"
/>
<path stroke="#808080" vector-effect="non-scaling-stroke" d="
  M 367.69 181.37
  L 369.95 184.10
  A 0.98 0.83 -22.2 0 0 370.81 184.38
  C 374.00 183.87 370.53 179.58 368.00 180.41
  A 0.63 0.60 -28.5 0 0 367.69 181.37"
/>
<path stroke="#808080" vector-effect="non-scaling-stroke" d="
  M 424.8282 181.2678
  A 0.66 0.66 0.0 0 0 424.3503 180.4660
  L 423.4778 180.2452
  A 0.66 0.66 0.0 0 0 422.6760 180.7232
  L 417.9318 199.4722
  A 0.66 0.66 0.0 0 0 418.4097 200.2740
  L 419.2822 200.4948
  A 0.66 0.66 0.0 0 0 420.0840 200.0168
  L 424.8282 181.2678"
/>
<path stroke="#808080" vector-effect="non-scaling-stroke" d="
  M 469.3463 180.5211
  A 1.05 1.05 0.0 0 0 467.8917 180.2225
  L 467.4910 180.4867
  A 1.05 1.05 0.0 0 0 467.1924 181.9413
  L 468.7337 184.2789
  A 1.05 1.05 0.0 0 0 470.1883 184.5775
  L 470.5890 184.3133
  A 1.05 1.05 0.0 0 0 470.8876 182.8587
  L 469.3463 180.5211"
/>
<path stroke="#808080" vector-effect="non-scaling-stroke" d="
  M 352.44 188.23
  C 357.01 183.94 349.86 178.79 345.86 183.06
  C 344.33 184.70 344.35 186.29 345.97 187.83
  A 1.23 1.22 -35.3 0 1 345.62 189.83
  C 342.26 191.34 345.07 195.99 348.47 196.64
  Q 350.46 197.01 352.14 195.88
  Q 356.57 192.89 352.43 188.91
  A 0.47 0.47 -44.6 0 1 352.44 188.23"
/>
<path stroke="#808080" vector-effect="non-scaling-stroke" d="
  M 326.88 182.68
  L 326.82 188.11
  A 1.10 1.04 -4.4 0 0 328.10 189.14
  Q 332.16 188.50 332.53 191.07
  C 333.56 198.01 325.31 190.30 325.74 194.68
  A 1.02 0.98 12.6 0 0 326.25 195.45
  C 334.89 200.30 340.05 188.83 332.01 186.90
  C 330.99 186.66 328.51 187.22 329.70 184.87
  A 0.91 0.82 -76.5 0 1 330.43 184.37
  L 334.01 184.23
  A 1.33 0.69 7.5 0 0 334.87 183.92
  Q 335.45 183.27 335.23 182.41
  A 0.82 0.70 -0.9 0 0 334.57 181.86
  Q 330.97 181.37 327.43 182.08
  A 0.68 0.60 -6.4 0 0 326.88 182.68"
/>
<path stroke="#808080" vector-effect="non-scaling-stroke" d="
  M 416.01 182.51
  A 0.74 0.74 0.0 0 0 415.27 181.77
  L 413.25 181.77
  A 0.74 0.74 0.0 0 0 412.51 182.51
  L 412.51 195.93
  A 0.74 0.74 0.0 0 0 413.25 196.67
  L 415.27 196.67
  A 0.74 0.74 0.0 0 0 416.01 195.93
  L 416.01 182.51"
/>
<path stroke="#808080" vector-effect="non-scaling-stroke" d="
  M 433.3690 196.9138
  A 7.70 6.98 87.7 0 0 440.0344 188.9399
  A 7.70 6.98 87.7 0 0 432.7510 181.5262
  A 7.70 6.98 87.7 0 0 426.0856 189.5001
  A 7.70 6.98 87.7 0 0 433.3690 196.9138"
/>
<path stroke="#808080" vector-effect="non-scaling-stroke" d="
  M 360.34 187.09
  A 1.97 1.97 0.0 0 0 358.37 185.12
  A 1.97 1.97 0.0 0 0 356.40 187.09
  A 1.97 1.97 0.0 0 0 358.37 189.06
  A 1.97 1.97 0.0 0 0 360.34 187.09"
/>
<path stroke="#808080" vector-effect="non-scaling-stroke" d="
  M 342.08 194.71
  A 1.93 1.93 0.0 0 0 340.15 192.78
  A 1.93 1.93 0.0 0 0 338.22 194.71
  A 1.93 1.93 0.0 0 0 340.15 196.64
  A 1.93 1.93 0.0 0 0 342.08 194.71"
/>
<path stroke="#808080" vector-effect="non-scaling-stroke" d="
  M 360.34 194.72
  A 1.94 1.94 0.0 0 0 358.40 192.78
  A 1.94 1.94 0.0 0 0 356.46 194.72
  A 1.94 1.94 0.0 0 0 358.40 196.66
  A 1.94 1.94 0.0 0 0 360.34 194.72"
/>
<path stroke="#808080" vector-effect="non-scaling-stroke" d="
  M 756.44 53.47
  C 758.81 54.44 758.02 44.96 757.95 43.19
  A 1.04 1.04 -11.9 0 0 756.52 42.26
  Q 751.66 44.18 755.32 44.86
  A 0.64 0.59 4.7 0 1 755.85 45.44
  L 756.02 52.75
  A 0.84 0.66 -81.9 0 0 756.44 53.47"
/>
<path stroke="#808080" vector-effect="non-scaling-stroke" d="
  M 669.02 99.62
  C 663.24 103.50 667.78 114.41 674.74 109.95
  C 676.15 109.04 676.27 107.16 674.31 107.06
  A 1.34 0.98 -58.4 0 0 673.46 107.41
  C 669.97 110.63 667.45 103.50 671.30 101.69
  A 0.90 0.74 48.3 0 1 672.14 101.82
  Q 673.78 103.04 675.29 102.00
  A 0.88 0.87 -20.7 0 0 675.67 101.18
  C 675.35 98.29 670.68 98.52 669.02 99.62"
/>
<path stroke="#808080" vector-effect="non-scaling-stroke" d="
  M 659.8318 111.0284
  A 6.09 5.26 91.3 0 0 665.2286 105.0593
  A 6.09 5.26 91.3 0 0 660.1082 98.8516
  A 6.09 5.26 91.3 0 0 654.7114 104.8207
  A 6.09 5.26 91.3 0 0 659.8318 111.0284"
/>
<path stroke="#808080" vector-effect="non-scaling-stroke" d="
  M 693.69 108.01
  Q 691.77 108.61 689.87 107.57
  A 1.22 0.87 42.5 0 0 688.96 107.46
  Q 687.59 107.98 688.20 109.37
  A 1.49 1.25 4.1 0 0 688.89 110.04
  C 691.18 111.10 694.75 111.42 696.34 109.11
  C 697.66 107.20 696.58 105.06 694.60 104.00
  C 694.29 103.83 688.81 102.16 691.94 101.63
  A 1.41 1.16 52.0 0 1 692.85 101.83
  Q 696.10 103.86 696.08 101.26
  Q 696.05 99.40 694.21 99.19
  Q 688.18 98.52 688.25 102.91
  Q 688.28 104.62 690.40 105.51
  L 693.82 106.95
  Q 695.23 107.54 693.69 108.01"
/>
<path stroke="#808080" vector-effect="non-scaling-stroke" d="
  M 701.35 102.20
  Q 701.69 101.44 704.14 102.15
  A 2.86 2.84 36.1 0 0 706.54 101.78
  C 708.30 100.59 701.96 96.33 698.56 101.31
  Q 696.83 103.85 699.75 105.00
  L 703.26 106.38
  A 1.50 0.60 12.4 0 1 704.04 106.91
  Q 705.02 108.48 702.56 108.25
  A 1.95 1.24 55.6 0 1 701.67 107.87
  Q 699.97 106.59 698.95 107.50
  Q 697.19 109.06 699.36 109.97
  C 702.25 111.17 706.26 111.59 707.21 107.87
  C 708.02 104.74 704.49 103.74 701.79 102.85
  A 0.61 0.44 20.1 0 1 701.35 102.20"
/>
<path stroke="#808080" vector-effect="non-scaling-stroke" d="
  M 635.09 110.53
  A 1.67 1.66 -28.6 0 0 635.55 108.98
  Q 634.94 106.19 637.53 106.51
  C 643.64 107.27 643.46 98.78 637.74 99.13
  Q 635.75 99.25 633.16 99.25
  A 0.66 0.65 0.0 0 0 632.50 99.90
  L 632.55 109.69
  A 1.27 1.06 -72.8 0 0 632.91 110.55
  Q 634.05 111.57 635.09 110.53"
/>
<path stroke="#808080" vector-effect="non-scaling-stroke" d="
  M 646.17 110.63
  A 1.89 1.88 60.4 0 0 646.75 108.51
  Q 645.86 106.08 648.09 106.94
  A 1.50 1.49 -87.3 0 1 649.00 107.95
  Q 649.72 110.67 652.35 111.01
  Q 653.72 111.19 653.14 109.95
  L 651.72 106.94
  A 0.62 0.60 -32.8 0 1 651.89 106.20
  Q 654.68 103.91 652.74 100.64
  A 2.85 2.70 73.4 0 0 650.34 99.26
  L 644.31 99.30
  A 0.51 0.50 -0.0 0 0 643.80 99.80
  L 643.75 109.75
  A 0.99 0.91 -73.5 0 0 644.15 110.56
  Q 645.29 111.33 646.17 110.63"
/>
<path stroke="#808080" vector-effect="non-scaling-stroke" d="
  M 681.03 101.90
  C 682.97 101.34 686.41 103.32 686.25 100.16
  A 0.97 0.96 -1.6 0 0 685.28 99.25
  L 678.25 99.25
  A 0.50 0.50 0.0 0 0 677.75 99.75
  L 677.75 110.09
  A 0.66 0.66 90.0 0 0 678.41 110.75
  C 680.03 110.75 687.56 111.81 686.39 108.77
  A 0.84 0.72 78.6 0 0 685.70 108.23
  L 682.00 108.18
  A 1.55 0.53 -6.5 0 1 681.08 107.98
  C 677.04 105.10 686.75 106.77 683.14 103.57
  A 1.31 0.96 -20.2 0 0 682.26 103.32
  Q 681.16 103.40 680.73 102.53
  A 0.47 0.44 -21.2 0 1 681.03 101.90"
/>
<path stroke="#808080" vector-effect="non-scaling-stroke" d="
  M 244.9954 40.8129
  A 2.92 1.71 83.8 0 0 246.3800 37.7253
  A 2.92 1.71 83.8 0 0 244.3646 35.0071
  A 2.92 1.71 83.8 0 0 242.9800 38.0947
  A 2.92 1.71 83.8 0 0 244.9954 40.8129"
/>
<path stroke="#808080" vector-effect="non-scaling-stroke" d="
  M 474.28 35.77
  C 472.09 34.42 469.73 40.61 474.18 40.92
  A 0.62 0.62 9.4 0 0 474.83 40.46
  Q 475.32 38.50 474.82 36.54
  A 1.32 1.13 -84.5 0 0 474.28 35.77"
/>
<path stroke="#808080" vector-effect="non-scaling-stroke" d="
  M 200.79 43.45
  C 203.67 44.27 202.25 48.86 202.73 51.95
  A 1.05 0.91 -84.1 0 0 203.24 52.68
  Q 204.54 53.30 204.49 51.82
  Q 204.36 47.41 204.52 42.33
  Q 204.59 40.25 202.93 41.39
  L 200.69 42.93
  Q 200.19 43.28 200.79 43.45"
/>
<path stroke="#808080" vector-effect="non-scaling-stroke" d="
  M 436.17 56.14
  C 441.75 59.60 447.00 53.61 447.07 48.44
  A 0.52 0.52 -88.5 0 0 446.56 47.91
  L 439.31 47.69
  A 0.77 0.64 -5.4 0 1 438.62 47.22
  C 438.02 45.23 445.66 46.05 446.81 46.06
  A 0.48 0.46 -1.7 0 0 447.29 45.57
  Q 446.92 38.25 440.22 35.67
  A 1.61 1.56 47.8 0 0 439.27 35.61
  C 429.88 37.97 428.49 51.38 436.17 56.14"
/>
<path stroke="#808080" vector-effect="non-scaling-stroke" d="
  M 253.0972 40.8944
  A 3.04 1.85 84.2 0 0 254.6305 37.6830
  A 3.04 1.85 84.2 0 0 252.4828 34.8456
  A 3.04 1.85 84.2 0 0 250.9495 38.0570
  A 3.04 1.85 84.2 0 0 253.0972 40.8944"
/>
<path stroke="#808080" vector-effect="non-scaling-stroke" d="
  M 582.4931 55.6294
  A 5.95 4.62 89.2 0 0 587.0295 49.6155
  A 5.95 4.62 89.2 0 0 582.3269 43.7306
  A 5.95 4.62 89.2 0 0 577.7905 49.7445
  A 5.95 4.62 89.2 0 0 582.4931 55.6294"
/>
<path stroke="#808080" vector-effect="non-scaling-stroke" d="
  M 582.3727 53.6990
  A 3.85 2.53 91.3 0 0 584.9893 49.9074
  A 3.85 2.53 91.3 0 0 582.5473 46.0010
  A 3.85 2.53 91.3 0 0 579.9307 49.7926
  A 3.85 2.53 91.3 0 0 582.3727 53.6990"
/>
<path stroke="#808080" vector-effect="non-scaling-stroke" d="
  M 28.2746 76.7489
  A 5.97 4.71 88.9 0 0 32.8691 70.6896
  A 5.97 4.71 88.9 0 0 28.0454 64.8111
  A 5.97 4.71 88.9 0 0 23.4509 70.8704
  A 5.97 4.71 88.9 0 0 28.2746 76.7489"
/>
<path stroke="#808080" vector-effect="non-scaling-stroke" d="
  M 28.3451 74.5993
  A 3.91 2.45 88.9 0 0 30.7195 70.6430
  A 3.91 2.45 88.9 0 0 28.1949 66.7807
  A 3.91 2.45 88.9 0 0 25.8205 70.7370
  A 3.91 2.45 88.9 0 0 28.3451 74.5993"
/>
<path stroke="#808080" vector-effect="non-scaling-stroke" d="
  M 106.0757 107.0798
  A 3.28 2.42 90.6 0 0 108.5299 103.8253
  A 3.28 2.42 90.6 0 0 106.1443 100.5202
  A 3.28 2.42 90.6 0 0 103.6901 103.7747
  A 3.28 2.42 90.6 0 0 106.0757 107.0798"
/>
<path stroke="#808080" vector-effect="non-scaling-stroke" d="
  M 84.8395 101.7473
  A 1.88 1.32 -1.3 0 0 82.9301 100.4703
  A 1.88 1.32 -1.3 0 0 81.0805 101.8327
  A 1.88 1.32 -1.3 0 0 82.9899 103.1097
  A 1.88 1.32 -1.3 0 0 84.8395 101.7473"
/>
<path stroke="#808080" vector-effect="non-scaling-stroke" d="
  M 96.2589 101.8191
  A 2.20 1.31 1.8 0 0 94.1011 100.4406
  A 2.20 1.31 1.8 0 0 91.8611 101.6809
  A 2.20 1.31 1.8 0 0 94.0189 103.0594
  A 2.20 1.31 1.8 0 0 96.2589 101.8191"
/>
<path stroke="#808080" vector-effect="non-scaling-stroke" d="
  M 659.9901 108.2290
  A 3.28 2.34 88.6 0 0 662.2493 104.8928
  A 3.28 2.34 88.6 0 0 659.8299 101.6710
  A 3.28 2.34 88.6 0 0 657.5707 105.0072
  A 3.28 2.34 88.6 0 0 659.9901 108.2290"
/>
<path stroke="#808080" vector-effect="non-scaling-stroke" d="
  M 638.9091 102.5164
  A 0.87 0.87 0.0 0 0 637.9933 101.6947
  L 636.2558 101.7888
  A 0.87 0.87 0.0 0 0 635.4342 102.7046
  L 635.4709 103.3836
  A 0.87 0.87 0.0 0 0 636.3867 104.2053
  L 638.1242 104.1112
  A 0.87 0.87 0.0 0 0 638.9458 103.1954
  L 638.9091 102.5164"
/>
<path stroke="#808080" vector-effect="non-scaling-stroke" d="
  M 650.5095 102.8724
  A 2.10 1.32 -1.3 0 0 648.3801 101.6003
  A 2.10 1.32 -1.3 0 0 646.3105 102.9676
  A 2.10 1.32 -1.3 0 0 648.4399 104.2397
  A 2.10 1.32 -1.3 0 0 650.5095 102.8724"
/>
<path stroke="#808080" vector-effect="non-scaling-stroke" d="
  M 202.24 136.23
  C 203.71 133.11 209.20 133.26 206.57 128.38
  A 1.34 1.27 83.9 0 0 205.84 127.76
  C 202.09 126.50 195.30 130.67 203.50 129.57
  A 1.80 1.22 -26.0 0 1 204.46 129.71
  Q 206.28 130.65 204.07 131.99
  Q 200.71 134.04 198.93 137.84
  A 0.85 0.85 11.9 0 0 199.72 139.05
  L 205.93 138.95
  A 1.68 1.45 22.7 0 0 206.85 138.65
  C 210.02 136.38 203.62 137.01 202.55 136.80
  A 0.42 0.40 17.6 0 1 202.24 136.23"
/>
<path stroke="#808080" vector-effect="non-scaling-stroke" d="
  M 755.13 137.30
  C 757.17 134.91 764.60 131.72 757.82 128.49
  Q 756.14 127.69 754.40 128.34
  Q 751.69 129.36 752.91 130.88
  A 0.72 0.64 57.7 0 0 753.72 131.11
  L 755.07 130.52
  Q 755.70 130.24 756.00 130.23
  C 759.69 130.19 757.60 132.43 756.24 133.26
  Q 753.32 135.05 752.05 138.85
  A 0.70 0.70 -77.0 0 0 752.62 139.77
  C 753.53 139.88 761.81 140.62 760.48 138.47
  A 1.07 0.96 73.9 0 0 759.69 137.98
  L 755.31 137.67
  Q 754.84 137.64 755.13 137.30"
/>
<path stroke="#808080" vector-effect="non-scaling-stroke" d="
  M 451.10 183.00
  L 450.41 185.44
  A 0.36 0.32 2.7 0 0 450.82 185.84
  L 454.19 185.43
  A 1.21 0.68 3.5 0 0 455.00 185.04
  C 456.03 183.49 452.56 184.66 451.91 182.99
  Q 451.44 181.79 451.10 183.00"
/>
<path stroke="#808080" vector-effect="non-scaling-stroke" d="
  M 402.2174 183.0677
  A 0.78 0.78 0.0 0 0 401.4525 182.2729
  L 398.0532 182.2076
  A 0.78 0.78 0.0 0 0 397.2583 182.9725
  L 397.2426 183.7923
  A 0.78 0.78 0.0 0 0 398.0075 184.5871
  L 401.4068 184.6524
  A 0.78 0.78 0.0 0 0 402.2017 183.8875
  L 402.2174 183.0677"
/>
<path stroke="#808080" vector-effect="non-scaling-stroke" d="
  M 307.53 182.88
  Q 304.46 181.38 304.82 184.97
  Q 304.90 185.77 305.48 185.29
  L 307.65 183.49
  A 0.39 0.35 37.4 0 0 307.53 182.88"
/>
<path stroke="#808080" vector-effect="non-scaling-stroke" d="
  M 315.79 185.25
  L 313.65 187.18
  A 0.41 0.37 -48.8 0 0 313.66 187.79
  Q 317.26 190.21 316.46 185.25"
/>
<path stroke="#808080" vector-effect="non-scaling-stroke" d="
  M 316.46 185.25
  Q 316.71 184.09 316.37 183.02
  A 0.76 0.69 -7.0 0 0 315.69 182.54
  C 314.86 182.51 309.61 181.82 310.69 183.56
  Q 311.24 184.47 314.25 184.00
  Q 315.86 183.75 315.79 185.25"
/>
<path stroke="#ffffff" vector-effect="non-scaling-stroke" d="
  M 316.46 185.25
  L 315.79 185.25"
/>
<path stroke="#808080" vector-effect="non-scaling-stroke" d="
  M 306.00 188.42
  C 312.43 187.30 301.86 186.33 305.07 188.26
  A 1.42 1.23 -31.2 0 0 306.00 188.42"
/>
<path stroke="#808080" vector-effect="non-scaling-stroke" d="
  M 306.78 192.14
  Q 307.90 191.78 309.03 192.09
  A 1.14 0.60 23.4 0 0 309.94 192.02
  Q 310.45 191.61 309.07 191.06
  Q 303.23 188.77 305.03 194.34
  A 0.75 0.73 -6.4 0 0 305.68 194.85
  Q 316.90 195.75 306.62 193.51
  A 0.47 0.40 6.6 0 1 306.25 193.12
  L 306.24 192.80
  A 0.75 0.61 -11.3 0 1 306.78 192.14"
/>
<path stroke="#808080" vector-effect="non-scaling-stroke" d="
  M 315.95 190.61
  Q 315.07 189.96 313.47 190.55
  A 0.66 0.64 -15.1 0 0 313.05 191.25
  C 313.28 192.81 314.25 193.47 315.16 194.73
  Q 316.18 196.16 316.72 192.47
  A 1.96 1.96 -67.5 0 0 315.95 190.61"
/>
<path stroke="#808080" vector-effect="non-scaling-stroke" d="
  M 378.4000 187.9634
  A 1.42 1.11 108.9 0 0 379.9102 186.9795
  A 1.42 1.11 108.9 0 0 379.3200 185.2766
  A 1.42 1.11 108.9 0 0 377.8098 186.2605
  A 1.42 1.11 108.9 0 0 378.4000 187.9634"
/>
<path stroke="#808080" vector-effect="non-scaling-stroke" d="
  M 351.36 185.57
  A 1.89 1.89 0.0 0 0 349.47 183.68
  A 1.89 1.89 0.0 0 0 347.58 185.57
  A 1.89 1.89 0.0 0 0 349.47 187.46
  A 1.89 1.89 0.0 0 0 351.36 185.57"
/>
<path stroke="#808080" vector-effect="non-scaling-stroke" d="
  M 350.4129 194.2129
  A 2.27 2.02 56.5 0 0 350.8444 191.2051
  A 2.27 2.02 56.5 0 0 347.9071 190.4271
  A 2.27 2.02 56.5 0 0 347.4756 193.4349
  A 2.27 2.02 56.5 0 0 350.4129 194.2129"
/>
<path stroke="#808080" vector-effect="non-scaling-stroke" d="
  M 433.0708 194.4600
  A 5.25 3.48 90.1 0 0 436.5600 189.2161
  A 5.25 3.48 90.1 0 0 433.0892 183.9600
  A 5.25 3.48 90.1 0 0 429.6000 189.2039
  A 5.25 3.48 90.1 0 0 433.0708 194.4600"
/>
</g>
<path fill="#ffffff" d="
  M 0.00 0.00
  L 807.00 0.00
  L 807.00 212.00
  L 0.00 212.00
  L 0.00 0.00
  Z
  M 27.75 55.71
  C 8.75 57.29 8.69 84.38 27.24 85.79
  A 0.55 0.55 2.2 0 1 27.75 86.34
  Q 27.75 116.75 27.75 146.75
  C 27.75 152.39 32.39 156.73 37.29 158.39
  Q 39.80 159.24 46.29 159.27
  Q 117.02 159.53 187.75 159.77
  Q 199.14 159.81 203.89 149.94
  Q 210.30 148.93 213.81 145.56
  C 220.44 139.20 219.72 128.52 212.85 122.86
  C 206.23 117.39 194.67 119.14 190.46 127.20
  C 185.01 137.62 191.59 148.40 202.75 149.79
  C 199.23 157.41 190.67 158.84 183.00 158.74
  Q 140.00 158.18 97.00 158.25
  Q 70.39 158.29 43.78 157.82
  C 36.93 157.70 29.50 154.42 29.21 146.63
  C 28.44 126.63 29.31 106.47 28.95 86.43
  A 0.53 0.53 -3.5 0 1 29.43 85.89
  C 48.13 83.99 47.56 57.26 28.73 55.75
  Q 29.49 46.67 29.33 37.59
  C 29.16 27.80 36.98 24.78 45.31 24.81
  Q 116.41 25.14 187.50 25.08
  Q 196.13 25.07 201.94 32.06
  Q 202.85 33.16 203.15 32.25
  A 1.18 0.93 40.7 0 0 202.97 31.33
  Q 197.73 23.73 188.00 23.75
  C 147.01 23.85 95.04 23.05 44.81 23.69
  C 35.84 23.80 27.75 27.04 27.75 37.33
  Q 27.75 46.52 27.75 55.71
  Z
  M 582.50 34.71
  C 563.13 35.53 562.40 61.97 581.25 64.93
  A 0.61 0.59 4.1 0 1 581.76 65.50
  Q 582.15 102.31 582.02 139.12
  C 581.97 152.86 587.19 156.17 600.76 156.32
  C 648.25 156.82 695.75 156.25 743.25 156.25
  Q 749.68 156.25 753.71 151.00
  Q 754.03 150.33 754.72 150.54
  C 776.21 151.12 776.67 122.49 757.25 120.21
  L 757.00 65.85
  A 1.92 1.90 -5.7 0 1 758.56 63.97
  C 775.01 60.75 774.55 38.84 758.25 34.00
  Q 756.45 33.47 755.69 32.31
  C 750.23 24.10 744.28 24.75 733.87 24.75
  Q 666.31 24.75 598.76 24.75
  C 591.48 24.75 584.24 26.58 582.50 34.71
  Z
  M 245.94 32.96
  Q 246.75 34.51 245.01 34.25
  C 243.13 33.97 241.94 34.84 241.46 36.67
  Q 239.98 42.26 247.07 41.70
  A 1.16 1.13 86.0 0 0 248.12 40.46
  L 247.52 31.26
  A 0.69 0.64 -86.3 0 0 247.01 30.63
  Q 244.46 30.10 245.94 32.96
  Z
  M 474.45 34.41
  C 472.23 34.38 470.61 35.40 470.24 37.71
  Q 469.34 43.25 476.48 42.14
  A 0.84 0.76 84.8 0 0 477.11 41.30
  L 476.73 31.99
  A 1.40 0.69 -82.6 0 0 476.43 31.11
  Q 475.78 30.48 474.96 31.01
  A 0.87 0.62 74.4 0 0 474.68 31.79
  L 474.94 33.94
  A 0.48 0.42 -2.5 0 1 474.45 34.41
  Z
  M 481.2884 31.8240
  A 1.03 0.89 8.6 0 0 480.4031 30.7900
  A 1.03 0.89 8.6 0 0 479.2516 31.5160
  A 1.03 0.89 8.6 0 0 480.1369 32.5500
  A 1.03 0.89 8.6 0 0 481.2884 31.8240
  Z
  M 239.80 40.63
  Q 238.27 37.78 239.44 35.38
  A 1.60 1.20 -43.5 0 0 239.60 34.44
  Q 238.87 30.62 237.24 33.55
  A 1.62 1.42 59.6 0 0 237.06 34.49
  C 237.28 36.29 236.23 42.37 239.42 41.52
  A 0.62 0.61 68.4 0 0 239.80 40.63
  Z
  M 268.54 35.19
  C 269.41 34.86 268.76 34.46 268.59 34.08
  C 265.82 27.82 263.69 43.66 268.82 41.56
  Q 270.48 40.88 268.74 40.45
  C 267.34 40.11 267.59 36.86 267.90 35.78
  A 1.12 0.76 -8.6 0 1 268.54 35.19
  Z
  M 468.12 33.87
  C 467.26 31.30 466.50 33.68 466.04 34.62
  A 1.51 1.33 -41.3 0 0 465.92 35.54
  C 466.33 37.35 465.39 42.68 468.26 42.28
  A 0.37 0.37 -10.2 0 0 468.58 41.82
  Q 467.77 38.56 468.25 35.28
  Q 468.35 34.56 468.12 33.87
  Z
  M 203.25 63.54
  Q 203.19 90.82 203.07 118.09
  C 203.06 118.49 203.23 119.66 203.87 119.07
  A 1.32 0.90 75.6 0 0 204.19 118.19
  L 204.04 63.50
  C 208.90 62.70 212.95 60.83 215.60 56.52
  C 220.33 48.81 217.70 39.58 210.20 34.99
  C 200.73 29.20 187.03 37.98 188.05 49.06
  C 188.82 57.35 195.20 62.57 203.25 63.54
  Z
  M 232.30 34.78
  C 232.93 33.77 234.30 36.75 235.17 36.11
  A 0.87 0.72 67.1 0 0 235.43 35.25
  C 234.87 32.97 230.66 33.64 230.55 36.20
  A 1.10 0.87 -73.6 0 0 230.90 37.07
  L 233.49 39.08
  A 0.92 0.61 29.2 0 1 233.87 39.82
  C 233.24 43.57 229.95 37.02 230.25 40.45
  A 1.08 1.05 15.4 0 0 230.71 41.24
  C 233.46 43.17 238.84 40.12 232.77 36.64
  A 1.34 1.33 30.9 0 1 232.30 34.78
  Z
  M 261.47 40.62
  C 258.07 41.68 260.84 32.09 257.87 34.17
  A 1.00 0.60 77.0 0 0 257.60 34.99
  L 258.00 39.75
  Q 258.25 42.78 260.00 42.00
  Q 261.71 41.24 263.52 41.75
  A 0.72 0.69 -85.5 0 0 264.40 40.97
  L 263.78 35.25
  A 1.60 0.80 -84.8 0 0 263.43 34.35
  Q 262.80 33.72 262.13 34.17
  A 0.70 0.57 63.0 0 0 261.96 34.96
  Q 262.99 37.43 262.12 39.96
  A 1.08 0.94 -86.4 0 1 261.47 40.62
  Z
  M 449.57 47.81
  L 544.87 48.01
  A 0.88 0.88 -88.0 0 1 545.75 48.89
  L 545.75 53.01
  Q 545.75 53.98 546.61 53.49
  L 556.78 47.58
  Q 557.57 47.12 556.83 46.70
  L 546.70 40.96
  A 0.38 0.37 17.6 0 0 546.14 41.24
  L 545.75 45.46
  A 1.15 1.03 -86.7 0 1 544.70 46.50
  L 450.67 46.25
  A 1.89 1.89 -3.4 0 1 448.79 44.59
  C 448.02 38.20 444.45 34.00 437.91 34.00
  Q 399.26 34.04 360.61 34.23
  C 356.19 34.25 349.67 33.87 344.15 34.15
  C 342.80 34.22 339.07 33.91 337.56 34.81
  Q 330.99 38.73 330.74 46.94
  A 0.46 0.45 -74.7 0 1 330.07 47.33
  L 320.71 42.08
  A 0.76 0.70 -75.7 0 0 319.66 42.76
  L 319.56 46.94
  A 0.63 0.51 0.5 0 1 318.93 47.44
  Q 269.95 47.70 220.97 47.25
  C 219.37 47.24 218.92 48.62 220.75 48.81
  Q 222.88 49.03 226.50 49.00
  Q 265.90 48.73 318.94 49.31
  A 0.62 0.50 -0.5 0 1 319.56 49.80
  L 319.68 53.87
  A 0.66 0.58 75.7 0 0 320.56 54.47
  L 329.87 49.02
  A 0.90 0.88 -22.8 0 1 331.18 49.54
  C 332.59 54.72 336.26 58.74 341.86 58.76
  Q 389.67 58.96 437.49 59.00
  C 444.22 59.00 448.29 55.02 449.02 48.31
  A 0.56 0.55 -87.1 0 1 449.57 47.81
  Z
  M 256.59 37.98
  A 3.79 3.79 0.0 0 0 252.80 34.19
  A 3.79 3.79 0.0 0 0 249.01 37.98
  A 3.79 3.79 0.0 0 0 252.80 41.77
  A 3.79 3.79 0.0 0 0 256.59 37.98
  Z
  M 461.09 35.87
  A 0.77 0.77 -61.1 0 1 462.26 35.53
  Q 464.63 37.26 464.31 35.54
  A 0.82 0.77 2.7 0 0 463.71 34.92
  Q 462.27 34.53 460.80 34.73
  A 0.98 0.96 -80.3 0 0 460.07 35.26
  Q 458.51 38.32 461.96 39.42
  A 1.23 1.02 0.8 0 1 462.66 40.02
  C 464.40 44.02 458.59 38.37 459.41 41.22
  A 1.30 1.26 7.8 0 0 459.99 41.96
  Q 462.67 43.53 464.44 40.94
  Q 466.02 38.62 462.69 37.81
  Q 460.53 37.29 461.09 35.87
  Z
  M 480.9425 35.0391
  A 0.28 0.28 0.0 0 0 480.6501 34.7721
  L 479.2515 34.8356
  A 0.28 0.28 0.0 0 0 478.9845 35.1280
  L 479.2975 42.0209
  A 0.28 0.28 0.0 0 0 479.5899 42.2879
  L 480.9885 42.2244
  A 0.28 0.28 0.0 0 0 481.2555 41.9320
  L 480.9425 35.0391
  Z
  M 485.79 35.75
  Q 486.69 35.70 487.37 36.18
  A 0.98 0.94 -72.5 0 1 487.77 36.99
  L 487.61 41.68
  A 0.61 0.45 -88.8 0 0 488.05 42.31
  L 489.46 42.31
  A 0.47 0.38 79.9 0 0 489.79 41.71
  C 489.20 39.72 490.29 32.16 485.75 35.29
  Q 484.55 34.33 483.42 34.96
  A 0.69 0.61 67.9 0 0 483.15 35.72
  C 483.69 37.58 482.36 43.52 484.98 42.37
  A 1.02 1.02 70.0 0 0 485.55 41.15
  Q 484.69 38.30 485.79 35.75
  Z
  M 106.1781 109.9889
  A 6.15 5.42 88.9 0 0 111.4790 103.7359
  A 6.15 5.42 88.9 0 0 105.9419 97.6911
  A 6.15 5.42 88.9 0 0 100.6410 103.9441
  A 6.15 5.42 88.9 0 0 106.1781 109.9889
  Z
  M 119.20 106.40
  C 114.46 110.25 114.50 97.56 118.95 101.10
  A 1.75 0.99 53.7 0 0 119.81 101.49
  C 124.21 101.83 119.74 95.90 115.56 98.31
  C 110.32 101.33 112.40 111.84 119.77 109.30
  C 121.30 108.77 123.33 106.30 120.06 106.08
  A 1.39 0.97 -55.2 0 0 119.20 106.40
  Z
  M 140.50 106.55
  C 140.19 108.91 133.53 103.27 134.69 108.21
  A 1.12 1.09 8.3 0 0 135.24 108.93
  Q 138.49 110.65 141.86 109.26
  A 1.20 1.20 89.3 0 0 142.51 108.61
  C 145.44 101.63 136.86 102.52 137.28 101.36
  A 1.18 1.18 -70.5 0 1 138.77 100.65
  Q 143.11 102.16 142.67 99.43
  A 1.07 1.02 10.7 0 0 142.14 98.69
  C 138.79 96.87 131.57 99.09 135.32 103.28
  C 136.45 104.55 138.40 105.00 140.00 105.83
  A 0.88 0.59 21.2 0 1 140.50 106.55
  Z
  M 148.12 100.89
  C 148.25 99.20 153.10 103.89 152.97 99.56
  A 0.97 0.96 -75.2 0 0 152.52 98.78
  C 150.10 97.28 146.65 97.43 145.32 100.25
  C 143.67 103.76 148.26 104.71 150.45 105.82
  Q 152.22 106.72 150.26 107.04
  C 148.93 107.26 147.60 106.44 146.58 106.34
  C 144.15 106.12 144.92 108.35 146.29 109.15
  C 152.28 112.68 158.08 104.52 149.19 102.35
  A 1.40 1.39 9.0 0 1 148.12 100.89
  Z
  M 81.80 105.88
  C 85.23 106.26 89.70 103.43 87.41 99.90
  C 85.85 97.49 81.72 97.73 79.24 98.16
  A 0.65 0.65 88.3 0 0 78.70 98.74
  Q 78.37 102.35 78.46 105.97
  C 78.50 107.51 77.65 110.91 80.80 109.47
  A 0.85 0.73 80.4 0 0 81.24 108.74
  L 81.28 106.31
  A 0.47 0.44 4.1 0 1 81.80 105.88
  Z
  M 93.42 105.56
  C 95.65 105.56 94.63 111.41 98.75 109.43
  A 0.54 0.47 64.8 0 0 98.94 108.75
  L 97.61 105.91
  A 0.94 0.77 -42.7 0 1 97.73 105.04
  C 102.90 97.72 94.87 98.00 90.40 98.00
  A 1.24 1.17 90.0 0 0 89.23 99.24
  L 89.23 108.54
  A 1.20 1.13 -87.7 0 0 90.26 109.73
  Q 92.71 109.95 92.13 107.16
  A 1.32 1.32 84.0 0 1 93.42 105.56
  Z
  M 126.48 101.45
  C 126.55 100.36 130.65 100.75 131.53 100.75
  A 0.91 0.90 8.1 0 0 132.40 100.10
  C 133.44 96.56 126.50 98.06 124.69 98.28
  A 0.79 0.78 86.7 0 0 124.00 99.06
  L 124.00 109.23
  A 0.52 0.52 0.0 0 0 124.52 109.75
  L 132.00 109.75
  A 0.73 0.68 8.9 0 0 132.68 109.29
  C 133.81 106.04 129.25 107.04 127.56 106.96
  A 1.00 0.92 -13.4 0 1 126.77 106.52
  C 124.93 103.51 131.94 106.13 130.03 102.91
  A 1.18 0.92 -6.1 0 0 129.26 102.43
  L 127.06 102.04
  A 0.68 0.54 7.1 0 1 126.48 101.45
  Z
  M 456.59 188.44
  C 456.93 187.62 462.48 188.08 463.44 188.15
  A 0.92 0.82 17.6 0 0 464.24 187.79
  Q 465.22 186.37 463.83 185.67
  A 4.44 4.40 54.8 0 0 461.30 185.22
  Q 457.08 185.73 457.76 184.46
  A 1.04 0.75 9.1 0 1 458.57 184.05
  L 462.19 183.95
  A 1.13 1.00 16.5 0 0 463.02 183.56
  C 465.43 180.64 458.89 182.97 458.17 180.44
  A 0.85 0.65 82.1 0 0 457.57 179.84
  Q 456.22 179.69 455.62 180.97
  A 1.37 0.92 -79.9 0 1 454.98 181.63
  Q 452.30 182.66 451.56 180.29
  A 0.96 0.66 81.2 0 0 450.96 179.65
  C 450.08 179.51 446.48 186.09 445.50 187.25
  A 1.50 1.02 22.3 0 0 446.69 189.06
  Q 448.42 189.48 447.93 191.03
  Q 447.86 191.28 447.84 192.00
  L 447.74 197.32
  A 0.79 0.62 -81.7 0 0 448.16 198.06
  Q 450.91 198.97 450.74 196.48
  Q 450.52 193.02 450.50 189.54
  C 450.50 188.82 449.66 186.83 451.55 187.75
  Q 452.01 187.98 452.51 187.96
  Q 454.86 187.84 453.16 190.01
  Q 452.06 191.41 453.75 191.51
  L 457.87 191.75
  Q 459.56 191.85 458.23 192.84
  C 457.20 193.61 454.65 192.45 454.52 193.94
  A 1.09 0.76 25.9 0 0 454.97 194.74
  L 458.91 197.64
  A 1.56 1.22 56.9 0 0 459.82 197.95
  Q 461.38 197.90 461.17 196.42
  A 1.20 0.79 18.9 0 0 460.62 195.71
  C 459.11 194.80 462.48 192.11 463.38 190.80
  A 0.83 0.82 19.3 0 0 462.75 189.52
  L 457.05 189.00
  A 0.50 0.40 12.0 0 1 456.59 188.44
  Z
  M 393.86 191.68
  Q 394.95 191.63 394.79 192.25
  C 394.13 194.35 403.11 194.29 396.62 195.17
  C 395.12 195.38 393.14 194.60 393.69 197.20
  A 0.62 0.62 -5.7 0 0 394.30 197.70
  L 404.79 197.75
  A 0.67 0.66 -82.6 0 0 405.43 197.25
  Q 406.06 194.92 402.92 195.37
  A 1.95 1.95 -27.6 0 1 401.35 194.88
  C 399.07 192.82 405.65 195.04 404.64 192.27
  A 0.88 0.80 -5.2 0 0 403.95 191.75
  Q 398.51 191.05 402.91 190.12
  C 404.09 189.87 405.66 190.77 405.27 188.36
  A 0.82 0.82 -5.7 0 0 404.44 187.68
  C 401.65 187.76 398.71 187.93 396.03 187.67
  Q 394.22 187.50 394.50 189.71
  L 394.00 189.79
  C 391.44 188.20 393.63 186.76 395.26 186.73
  Q 399.12 186.66 403.76 186.77
  A 0.70 0.68 0.4 0 0 404.48 186.08
  L 404.46 180.80
  A 0.58 0.55 2.4 0 0 403.94 180.26
  Q 399.29 179.78 394.71 180.75
  L 394.00 180.79
  C 392.57 179.28 386.28 180.65 387.38 182.42
  A 1.58 0.91 4.7 0 0 388.16 182.96
  C 393.09 184.62 385.81 184.70 386.83 187.01
  A 0.88 0.64 -7.6 0 0 387.57 187.41
  C 390.42 187.49 387.09 191.50 386.57 192.38
  A 1.40 1.13 -40.3 0 0 386.39 193.31
  Q 386.85 195.40 388.85 193.54
  Q 389.50 192.93 389.50 193.82
  C 389.50 195.41 388.65 199.29 391.48 198.15
  A 0.63 0.60 73.2 0 0 391.83 197.46
  Q 391.09 193.66 393.86 191.68
  Z
  M 302.20 180.51
  L 302.02 197.58
  A 0.58 0.56 -6.4 0 0 302.73 198.13
  Q 310.63 196.20 318.33 198.08
  A 0.74 0.72 7.0 0 0 319.24 197.39
  L 319.20 180.57
  A 0.53 0.52 0.6 0 0 318.68 180.05
  L 302.73 180.00
  A 0.53 0.51 0.0 0 0 302.20 180.51
  Z
  M 372.75 188.29
  Q 372.06 188.36 371.79 187.75
  Q 369.99 185.95 367.64 186.97
  A 1.04 0.99 -6.4 0 0 367.05 187.67
  Q 366.71 189.32 368.50 189.48
  A 0.77 0.68 -4.1 0 1 369.15 189.98
  Q 370.10 193.30 367.44 195.03
  A 1.32 1.31 56.8 0 0 367.06 196.87
  Q 368.63 199.22 369.32 196.49
  A 0.98 0.97 26.5 0 1 370.88 195.97
  C 374.16 198.60 380.05 198.21 383.94 197.75
  A 1.11 1.05 12.2 0 0 384.72 197.28
  Q 386.70 194.26 381.75 195.46
  L 381.71 195.25
  C 383.59 193.42 380.95 190.14 384.25 190.21
  A 0.93 0.77 14.2 0 0 385.03 189.84
  Q 386.21 187.98 383.82 187.93
  A 1.76 1.00 -14.1 0 1 382.89 187.67
  C 379.49 185.22 389.37 185.12 383.10 182.78
  A 0.86 0.84 -83.3 0 1 382.56 182.08
  Q 382.28 179.43 380.52 180.10
  A 0.91 0.88 84.6 0 0 379.95 180.81
  L 379.74 182.18
  A 0.87 0.69 89.6 0 1 379.21 182.85
  Q 377.44 183.35 377.68 181.24
  A 1.01 0.82 -70.3 0 0 377.39 180.41
  C 374.65 178.13 375.84 183.20 373.31 183.32
  A 0.75 0.59 3.0 0 0 372.64 183.79
  C 372.31 185.18 378.84 187.08 372.75 188.29
  Z
  M 471.46 188.00
  Q 470.97 187.63 470.79 187.00
  Q 468.60 185.31 466.41 186.71
  A 0.87 0.65 -25.6 0 0 466.00 187.49
  Q 466.18 188.25 467.42 188.62
  A 0.95 0.94 3.6 0 1 468.08 189.36
  Q 468.89 193.69 466.13 195.44
  A 0.94 0.78 -18.9 0 0 465.68 196.18
  Q 465.69 199.26 468.19 197.44
  A 2.47 0.99 -38.6 0 1 470.50 196.75
  C 473.09 198.82 478.46 198.69 481.63 198.33
  C 483.38 198.12 484.36 198.79 484.74 196.35
  A 0.98 0.98 88.2 0 0 483.56 195.24
  Q 479.15 196.20 474.74 195.57
  Q 474.25 195.50 474.62 195.15
  L 477.90 191.98
  A 0.60 0.59 47.6 0 1 478.76 192.02
  C 479.18 192.49 483.49 196.83 483.45 193.80
  A 2.48 2.48 16.0 0 0 482.31 191.75
  C 476.49 187.97 484.74 191.49 484.51 188.45
  A 1.10 1.10 84.4 0 0 483.27 187.43
  Q 481.11 187.72 479.52 187.13
  A 0.63 0.58 16.5 0 1 479.11 186.44
  C 479.59 184.13 484.84 186.99 483.53 183.98
  C 483.08 182.93 481.63 182.79 482.48 181.17
  A 0.72 0.59 -55.2 0 0 482.42 180.39
  C 479.69 177.68 478.81 187.34 476.48 181.16
  A 1.41 1.13 88.5 0 0 475.88 180.45
  Q 472.98 178.93 474.03 182.21
  A 0.45 0.44 -14.3 0 1 473.69 182.77
  Q 471.44 183.25 472.46 184.85
  A 1.29 1.04 -6.1 0 0 473.25 185.36
  C 473.77 185.48 478.04 185.47 476.60 186.90
  A 1.86 1.85 25.6 0 1 475.11 187.42
  Q 472.27 187.12 471.46 188.00
  Z
  M 367.69 181.37
  L 369.95 184.10
  A 0.98 0.83 -22.2 0 0 370.81 184.38
  C 374.00 183.87 370.53 179.58 368.00 180.41
  A 0.63 0.60 -28.5 0 0 367.69 181.37
  Z
  M 424.8282 181.2678
  A 0.66 0.66 0.0 0 0 424.3503 180.4660
  L 423.4778 180.2452
  A 0.66 0.66 0.0 0 0 422.6760 180.7232
  L 417.9318 199.4722
  A 0.66 0.66 0.0 0 0 418.4097 200.2740
  L 419.2822 200.4948
  A 0.66 0.66 0.0 0 0 420.0840 200.0168
  L 424.8282 181.2678
  Z
  M 469.3463 180.5211
  A 1.05 1.05 0.0 0 0 467.8917 180.2225
  L 467.4910 180.4867
  A 1.05 1.05 0.0 0 0 467.1924 181.9413
  L 468.7337 184.2789
  A 1.05 1.05 0.0 0 0 470.1883 184.5775
  L 470.5890 184.3133
  A 1.05 1.05 0.0 0 0 470.8876 182.8587
  L 469.3463 180.5211
  Z
  M 352.44 188.23
  C 357.01 183.94 349.86 178.79 345.86 183.06
  C 344.33 184.70 344.35 186.29 345.97 187.83
  A 1.23 1.22 -35.3 0 1 345.62 189.83
  C 342.26 191.34 345.07 195.99 348.47 196.64
  Q 350.46 197.01 352.14 195.88
  Q 356.57 192.89 352.43 188.91
  A 0.47 0.47 -44.6 0 1 352.44 188.23
  Z
  M 326.88 182.68
  L 326.82 188.11
  A 1.10 1.04 -4.4 0 0 328.10 189.14
  Q 332.16 188.50 332.53 191.07
  C 333.56 198.01 325.31 190.30 325.74 194.68
  A 1.02 0.98 12.6 0 0 326.25 195.45
  C 334.89 200.30 340.05 188.83 332.01 186.90
  C 330.99 186.66 328.51 187.22 329.70 184.87
  A 0.91 0.82 -76.5 0 1 330.43 184.37
  L 334.01 184.23
  A 1.33 0.69 7.5 0 0 334.87 183.92
  Q 335.45 183.27 335.23 182.41
  A 0.82 0.70 -0.9 0 0 334.57 181.86
  Q 330.97 181.37 327.43 182.08
  A 0.68 0.60 -6.4 0 0 326.88 182.68
  Z
  M 416.01 182.51
  A 0.74 0.74 0.0 0 0 415.27 181.77
  L 413.25 181.77
  A 0.74 0.74 0.0 0 0 412.51 182.51
  L 412.51 195.93
  A 0.74 0.74 0.0 0 0 413.25 196.67
  L 415.27 196.67
  A 0.74 0.74 0.0 0 0 416.01 195.93
  L 416.01 182.51
  Z
  M 433.3690 196.9138
  A 7.70 6.98 87.7 0 0 440.0344 188.9399
  A 7.70 6.98 87.7 0 0 432.7510 181.5262
  A 7.70 6.98 87.7 0 0 426.0856 189.5001
  A 7.70 6.98 87.7 0 0 433.3690 196.9138
  Z
  M 360.34 187.09
  A 1.97 1.97 0.0 0 0 358.37 185.12
  A 1.97 1.97 0.0 0 0 356.40 187.09
  A 1.97 1.97 0.0 0 0 358.37 189.06
  A 1.97 1.97 0.0 0 0 360.34 187.09
  Z
  M 342.08 194.71
  A 1.93 1.93 0.0 0 0 340.15 192.78
  A 1.93 1.93 0.0 0 0 338.22 194.71
  A 1.93 1.93 0.0 0 0 340.15 196.64
  A 1.93 1.93 0.0 0 0 342.08 194.71
  Z
  M 360.34 194.72
  A 1.94 1.94 0.0 0 0 358.40 192.78
  A 1.94 1.94 0.0 0 0 356.46 194.72
  A 1.94 1.94 0.0 0 0 358.40 196.66
  A 1.94 1.94 0.0 0 0 360.34 194.72
  Z"
/>
<path fill="#000000" d="
  M 28.73 55.75
  L 27.75 55.71
  Q 27.75 46.52 27.75 37.33
  C 27.75 27.04 35.84 23.80 44.81 23.69
  C 95.04 23.05 147.01 23.85 188.00 23.75
  Q 197.73 23.73 202.97 31.33
  A 1.18 0.93 40.7 0 1 203.15 32.25
  Q 202.85 33.16 201.94 32.06
  Q 196.13 25.07 187.50 25.08
  Q 116.41 25.14 45.31 24.81
  C 36.98 24.78 29.16 27.80 29.33 37.59
  Q 29.49 46.67 28.73 55.75
  Z"
/>
<path fill="#000000" d="
  M 757.25 120.21
  L 756.25 120.21
  Q 755.55 92.76 755.94 65.29
  A 1.24 1.24 1.9 0 0 754.77 64.04
  C 737.60 63.01 735.86 37.14 753.76 34.25
  A 0.87 0.86 -20.6 0 0 754.36 32.94
  Q 750.11 26.13 741.75 26.12
  Q 672.54 26.00 603.32 26.00
  C 594.65 26.00 587.34 25.94 583.25 34.71
  Q 582.87 34.80 582.50 34.71
  C 584.24 26.58 591.48 24.75 598.76 24.75
  Q 666.31 24.75 733.87 24.75
  C 744.28 24.75 750.23 24.10 755.69 32.31
  Q 756.45 33.47 758.25 34.00
  C 774.55 38.84 775.01 60.75 758.56 63.97
  A 1.92 1.90 -5.7 0 0 757.00 65.85
  L 757.25 120.21
  Z
  M 756.44 53.47
  C 758.81 54.44 758.02 44.96 757.95 43.19
  A 1.04 1.04 -11.9 0 0 756.52 42.26
  Q 751.66 44.18 755.32 44.86
  A 0.64 0.59 4.7 0 1 755.85 45.44
  L 756.02 52.75
  A 0.84 0.66 -81.9 0 0 756.44 53.47
  Z"
/>
<path fill="#ffffff" d="
  M 756.25 120.21
  Q 745.29 121.70 742.61 130.52
  C 739.73 140.01 744.76 148.63 754.72 150.54
  Q 754.03 150.33 753.71 151.00
  Q 752.82 150.60 751.81 151.56
  C 747.95 155.27 741.80 155.00 736.25 155.00
  Q 668.96 155.00 601.68 155.00
  C 590.97 155.00 583.28 153.41 583.24 140.81
  Q 583.11 103.30 583.19 65.58
  A 0.78 0.77 -2.9 0 1 583.89 64.81
  C 602.42 62.86 601.57 36.57 583.25 34.71
  C 587.34 25.94 594.65 26.00 603.32 26.00
  Q 672.54 26.00 741.75 26.12
  Q 750.11 26.13 754.36 32.94
  A 0.87 0.86 -20.6 0 1 753.76 34.25
  C 735.86 37.14 737.60 63.01 754.77 64.04
  A 1.24 1.24 1.9 0 1 755.94 65.29
  Q 755.55 92.76 756.25 120.21
  Z
  M 669.02 99.62
  C 663.24 103.50 667.78 114.41 674.74 109.95
  C 676.15 109.04 676.27 107.16 674.31 107.06
  A 1.34 0.98 -58.4 0 0 673.46 107.41
  C 669.97 110.63 667.45 103.50 671.30 101.69
  A 0.90 0.74 48.3 0 1 672.14 101.82
  Q 673.78 103.04 675.29 102.00
  A 0.88 0.87 -20.7 0 0 675.67 101.18
  C 675.35 98.29 670.68 98.52 669.02 99.62
  Z
  M 659.8318 111.0284
  A 6.09 5.26 91.3 0 0 665.2286 105.0593
  A 6.09 5.26 91.3 0 0 660.1082 98.8516
  A 6.09 5.26 91.3 0 0 654.7114 104.8207
  A 6.09 5.26 91.3 0 0 659.8318 111.0284
  Z
  M 693.69 108.01
  Q 691.77 108.61 689.87 107.57
  A 1.22 0.87 42.5 0 0 688.96 107.46
  Q 687.59 107.98 688.20 109.37
  A 1.49 1.25 4.1 0 0 688.89 110.04
  C 691.18 111.10 694.75 111.42 696.34 109.11
  C 697.66 107.20 696.58 105.06 694.60 104.00
  C 694.29 103.83 688.81 102.16 691.94 101.63
  A 1.41 1.16 52.0 0 1 692.85 101.83
  Q 696.10 103.86 696.08 101.26
  Q 696.05 99.40 694.21 99.19
  Q 688.18 98.52 688.25 102.91
  Q 688.28 104.62 690.40 105.51
  L 693.82 106.95
  Q 695.23 107.54 693.69 108.01
  Z
  M 701.35 102.20
  Q 701.69 101.44 704.14 102.15
  A 2.86 2.84 36.1 0 0 706.54 101.78
  C 708.30 100.59 701.96 96.33 698.56 101.31
  Q 696.83 103.85 699.75 105.00
  L 703.26 106.38
  A 1.50 0.60 12.4 0 1 704.04 106.91
  Q 705.02 108.48 702.56 108.25
  A 1.95 1.24 55.6 0 1 701.67 107.87
  Q 699.97 106.59 698.95 107.50
  Q 697.19 109.06 699.36 109.97
  C 702.25 111.17 706.26 111.59 707.21 107.87
  C 708.02 104.74 704.49 103.74 701.79 102.85
  A 0.61 0.44 20.1 0 1 701.35 102.20
  Z
  M 635.09 110.53
  A 1.67 1.66 -28.6 0 0 635.55 108.98
  Q 634.94 106.19 637.53 106.51
  C 643.64 107.27 643.46 98.78 637.74 99.13
  Q 635.75 99.25 633.16 99.25
  A 0.66 0.65 0.0 0 0 632.50 99.90
  L 632.55 109.69
  A 1.27 1.06 -72.8 0 0 632.91 110.55
  Q 634.05 111.57 635.09 110.53
  Z
  M 646.17 110.63
  A 1.89 1.88 60.4 0 0 646.75 108.51
  Q 645.86 106.08 648.09 106.94
  A 1.50 1.49 -87.3 0 1 649.00 107.95
  Q 649.72 110.67 652.35 111.01
  Q 653.72 111.19 653.14 109.95
  L 651.72 106.94
  A 0.62 0.60 -32.8 0 1 651.89 106.20
  Q 654.68 103.91 652.74 100.64
  A 2.85 2.70 73.4 0 0 650.34 99.26
  L 644.31 99.30
  A 0.51 0.50 -0.0 0 0 643.80 99.80
  L 643.75 109.75
  A 0.99 0.91 -73.5 0 0 644.15 110.56
  Q 645.29 111.33 646.17 110.63
  Z
  M 681.03 101.90
  C 682.97 101.34 686.41 103.32 686.25 100.16
  A 0.97 0.96 -1.6 0 0 685.28 99.25
  L 678.25 99.25
  A 0.50 0.50 0.0 0 0 677.75 99.75
  L 677.75 110.09
  A 0.66 0.66 90.0 0 0 678.41 110.75
  C 680.03 110.75 687.56 111.81 686.39 108.77
  A 0.84 0.72 78.6 0 0 685.70 108.23
  L 682.00 108.18
  A 1.55 0.53 -6.5 0 1 681.08 107.98
  C 677.04 105.10 686.75 106.77 683.14 103.57
  A 1.31 0.96 -20.2 0 0 682.26 103.32
  Q 681.16 103.40 680.73 102.53
  A 0.47 0.44 -21.2 0 1 681.03 101.90
  Z"
/>
<path fill="#000000" d="
  M 245.94 32.96
  Q 244.46 30.10 247.01 30.63
  A 0.69 0.64 -86.3 0 1 247.52 31.26
  L 248.12 40.46
  A 1.16 1.13 86.0 0 1 247.07 41.70
  Q 239.98 42.26 241.46 36.67
  C 241.94 34.84 243.13 33.97 245.01 34.25
  Q 246.75 34.51 245.94 32.96
  Z
  M 244.9954 40.8129
  A 2.92 1.71 83.8 0 0 246.3800 37.7253
  A 2.92 1.71 83.8 0 0 244.3646 35.0071
  A 2.92 1.71 83.8 0 0 242.9800 38.0947
  A 2.92 1.71 83.8 0 0 244.9954 40.8129
  Z"
/>
<path fill="#000000" d="
  M 474.94 33.94
  L 474.68 31.79
  A 0.87 0.62 74.4 0 1 474.96 31.01
  Q 475.78 30.48 476.43 31.11
  A 1.40 0.69 -82.6 0 1 476.73 31.99
  L 477.11 41.30
  A 0.84 0.76 84.8 0 1 476.48 42.14
  Q 469.34 43.25 470.24 37.71
  C 470.61 35.40 472.23 34.38 474.45 34.41
  A 0.48 0.42 -2.5 0 0 474.94 33.94
  Z
  M 474.28 35.77
  C 472.09 34.42 469.73 40.61 474.18 40.92
  A 0.62 0.62 9.4 0 0 474.83 40.46
  Q 475.32 38.50 474.82 36.54
  A 1.32 1.13 -84.5 0 0 474.28 35.77
  Z"
/>
<ellipse fill="#000000" cx="0.00" cy="0.00" transform="translate(480.27,31.67) rotate(8.6)" rx="1.03" ry="0.89"/>
<path fill="#000000" d="
  M 239.80 40.63
  A 0.62 0.61 68.4 0 1 239.42 41.52
  C 236.23 42.37 237.28 36.29 237.06 34.49
  A 1.62 1.42 59.6 0 1 237.24 33.55
  Q 238.87 30.62 239.60 34.44
  A 1.60 1.20 -43.5 0 1 239.44 35.38
  Q 238.27 37.78 239.80 40.63
  Z"
/>
<path fill="#000000" d="
  M 267.90 35.78
  C 267.59 36.86 267.34 40.11 268.74 40.45
  Q 270.48 40.88 268.82 41.56
  C 263.69 43.66 265.82 27.82 268.59 34.08
  C 268.76 34.46 269.41 34.86 268.54 35.19
  A 1.12 0.76 -8.6 0 0 267.90 35.78
  Z"
/>
<path fill="#000000" d="
  M 466.04 34.62
  C 466.50 33.68 467.26 31.30 468.12 33.87
  Q 468.35 34.56 468.25 35.28
  Q 467.77 38.56 468.58 41.82
  A 0.37 0.37 -10.2 0 1 468.26 42.28
  C 465.39 42.68 466.33 37.35 465.92 35.54
  A 1.51 1.33 -41.3 0 1 466.04 34.62
  Z"
/>
<path fill="#000000" d="
  M 204.04 63.50
  Q 203.67 63.24 203.25 63.54
  C 195.20 62.57 188.82 57.35 188.05 49.06
  C 187.03 37.98 200.73 29.20 210.20 34.99
  C 217.70 39.58 220.33 48.81 215.60 56.52
  C 212.95 60.83 208.90 62.70 204.04 63.50
  Z
  M 200.79 43.45
  C 203.67 44.27 202.25 48.86 202.73 51.95
  A 1.05 0.91 -84.1 0 0 203.24 52.68
  Q 204.54 53.30 204.49 51.82
  Q 204.36 47.41 204.52 42.33
  Q 204.59 40.25 202.93 41.39
  L 200.69 42.93
  Q 200.19 43.28 200.79 43.45
  Z"
/>
<path fill="#000000" d="
  M 232.30 34.78
  A 1.34 1.33 30.9 0 0 232.77 36.64
  C 238.84 40.12 233.46 43.17 230.71 41.24
  A 1.08 1.05 15.4 0 1 230.25 40.45
  C 229.95 37.02 233.24 43.57 233.87 39.82
  A 0.92 0.61 29.2 0 0 233.49 39.08
  L 230.90 37.07
  A 1.10 0.87 -73.6 0 1 230.55 36.20
  C 230.66 33.64 234.87 32.97 235.43 35.25
  A 0.87 0.72 67.1 0 1 235.17 36.11
  C 234.30 36.75 232.93 33.77 232.30 34.78
  Z"
/>
<path fill="#000000" d="
  M 262.12 39.96
  Q 262.99 37.43 261.96 34.96
  A 0.70 0.57 63.0 0 1 262.13 34.17
  Q 262.80 33.72 263.43 34.35
  A 1.60 0.80 -84.8 0 1 263.78 35.25
  L 264.40 40.97
  A 0.72 0.69 -85.5 0 1 263.52 41.75
  Q 261.71 41.24 260.00 42.00
  Q 258.25 42.78 258.00 39.75
  L 257.60 34.99
  A 1.00 0.60 77.0 0 1 257.87 34.17
  C 260.84 32.09 258.07 41.68 261.47 40.62
  A 1.08 0.94 -86.4 0 0 262.12 39.96
  Z"
/>
<path fill="#000000" d="
  M 449.02 48.31
  C 448.29 55.02 444.22 59.00 437.49 59.00
  Q 389.67 58.96 341.86 58.76
  C 336.26 58.74 332.59 54.72 331.18 49.54
  A 0.90 0.88 -22.8 0 0 329.87 49.02
  L 320.56 54.47
  A 0.66 0.58 75.7 0 1 319.68 53.87
  L 319.56 49.80
  A 0.62 0.50 -0.5 0 0 318.94 49.31
  Q 265.90 48.73 226.50 49.00
  Q 222.88 49.03 220.75 48.81
  C 218.92 48.62 219.37 47.24 220.97 47.25
  Q 269.95 47.70 318.93 47.44
  A 0.63 0.51 0.5 0 0 319.56 46.94
  L 319.66 42.76
  A 0.76 0.70 -75.7 0 1 320.71 42.08
  L 330.07 47.33
  A 0.46 0.45 -74.7 0 0 330.74 46.94
  Q 330.99 38.73 337.56 34.81
  C 339.07 33.91 342.80 34.22 344.15 34.15
  C 349.67 33.87 356.19 34.25 360.61 34.23
  Q 399.26 34.04 437.91 34.00
  C 444.45 34.00 448.02 38.20 448.79 44.59
  A 1.89 1.89 -3.4 0 0 450.67 46.25
  L 544.70 46.50
  A 1.15 1.03 -86.7 0 0 545.75 45.46
  L 546.14 41.24
  A 0.38 0.37 17.6 0 1 546.70 40.96
  L 556.83 46.70
  Q 557.57 47.12 556.78 47.58
  L 546.61 53.49
  Q 545.75 53.98 545.75 53.01
  L 545.75 48.89
  A 0.88 0.88 -89.3 0 0 544.87 48.01
  L 449.57 47.81
  A 0.56 0.55 -87.1 0 0 449.02 48.31
  Z
  M 436.17 56.14
  C 441.75 59.60 447.00 53.61 447.07 48.44
  A 0.52 0.52 -88.5 0 0 446.56 47.91
  L 439.31 47.69
  A 0.77 0.64 -5.4 0 1 438.62 47.22
  C 438.02 45.23 445.66 46.05 446.81 46.06
  A 0.48 0.46 -1.7 0 0 447.29 45.57
  Q 446.92 38.25 440.22 35.67
  A 1.61 1.56 47.8 0 0 439.27 35.61
  C 429.88 37.97 428.49 51.38 436.17 56.14
  Z"
/>
<path fill="#000000" d="
  M 256.59 37.98
  A 3.79 3.79 0.0 0 1 252.80 41.77
  A 3.79 3.79 0.0 0 1 249.01 37.98
  A 3.79 3.79 0.0 0 1 252.80 34.19
  A 3.79 3.79 0.0 0 1 256.59 37.98
  Z
  M 253.0972 40.8944
  A 3.04 1.85 84.2 0 0 254.6305 37.6830
  A 3.04 1.85 84.2 0 0 252.4828 34.8456
  A 3.04 1.85 84.2 0 0 250.9495 38.0570
  A 3.04 1.85 84.2 0 0 253.0972 40.8944
  Z"
/>
<path fill="#000000" d="
  M 461.09 35.87
  Q 460.53 37.29 462.69 37.81
  Q 466.02 38.62 464.44 40.94
  Q 462.67 43.53 459.99 41.96
  A 1.30 1.26 7.8 0 1 459.41 41.22
  C 458.59 38.37 464.40 44.02 462.66 40.02
  A 1.23 1.02 0.8 0 0 461.96 39.42
  Q 458.51 38.32 460.07 35.26
  A 0.98 0.96 -80.3 0 1 460.80 34.73
  Q 462.27 34.53 463.71 34.92
  A 0.82 0.77 2.7 0 1 464.31 35.54
  Q 464.63 37.26 462.26 35.53
  A 0.77 0.77 -61.1 0 0 461.09 35.87
  Z"
/>
<ellipse fill="#ffffff" cx="0.00" cy="0.00" transform="translate(252.79,37.87) rotate(84.2)" rx="3.04" ry="1.85"/>
<rect fill="#000000" x="-0.98" y="-3.73" transform="translate(480.12,38.53) rotate(-2.6)" width="1.96" height="7.46" rx="0.28"/>
<path fill="#000000" d="
  M 485.75 35.29
  L 485.79 35.75
  Q 484.69 38.30 485.55 41.15
  A 1.02 1.02 70.0 0 1 484.98 42.37
  C 482.36 43.52 483.69 37.58 483.15 35.72
  A 0.69 0.61 67.9 0 1 483.42 34.96
  Q 484.55 34.33 485.75 35.29
  Z"
/>
<path fill="#000000" d="
  M 485.79 35.75
  L 485.75 35.29
  C 490.29 32.16 489.20 39.72 489.79 41.71
  A 0.47 0.38 79.9 0 1 489.46 42.31
  L 488.05 42.31
  A 0.61 0.45 -88.8 0 1 487.61 41.68
  L 487.77 36.99
  A 0.98 0.94 -72.5 0 0 487.37 36.18
  Q 486.69 35.70 485.79 35.75
  Z"
/>
<path fill="#000000" d="
  M 582.50 34.71
  Q 582.87 34.80 583.25 34.71
  C 601.57 36.57 602.42 62.86 583.89 64.81
  A 0.78 0.77 -2.9 0 0 583.19 65.58
  Q 583.11 103.30 583.24 140.81
  C 583.28 153.41 590.97 155.00 601.68 155.00
  Q 668.96 155.00 736.25 155.00
  C 741.80 155.00 747.95 155.27 751.81 151.56
  Q 752.82 150.60 753.71 151.00
  Q 749.68 156.25 743.25 156.25
  C 695.75 156.25 648.25 156.82 600.76 156.32
  C 587.19 156.17 581.97 152.86 582.02 139.12
  Q 582.15 102.31 581.76 65.50
  A 0.61 0.59 4.1 0 0 581.25 64.93
  C 562.40 61.97 563.13 35.53 582.50 34.71
  Z
  M 582.4931 55.6294
  A 5.95 4.62 89.2 0 0 587.0295 49.6155
  A 5.95 4.62 89.2 0 0 582.3269 43.7306
  A 5.95 4.62 89.2 0 0 577.7905 49.7445
  A 5.95 4.62 89.2 0 0 582.4931 55.6294
  Z"
/>
<ellipse fill="#ffffff" cx="0.00" cy="0.00" transform="translate(244.68,37.91) rotate(83.8)" rx="2.92" ry="1.71"/>
<path fill="#ffffff" d="
  M 447.07 48.44
  C 447.00 53.61 441.75 59.60 436.17 56.14
  C 428.49 51.38 429.88 37.97 439.27 35.61
  A 1.61 1.56 47.8 0 1 440.22 35.67
  Q 446.92 38.25 447.29 45.57
  A 0.48 0.46 -1.7 0 1 446.81 46.06
  C 445.66 46.05 438.02 45.23 438.62 47.22
  A 0.77 0.64 -5.4 0 0 439.31 47.69
  L 446.56 47.91
  A 0.52 0.52 -88.6 0 1 447.07 48.44
  Z"
/>
<path fill="#ffffff" d="
  M 474.18 40.92
  C 469.73 40.61 472.09 34.42 474.28 35.77
  A 1.32 1.13 -84.5 0 1 474.82 36.54
  Q 475.32 38.50 474.83 40.46
  A 0.62 0.62 9.4 0 1 474.18 40.92
  Z"
/>
<path fill="#ffffff" d="
  M 200.79 43.45
  Q 200.19 43.28 200.69 42.93
  L 202.93 41.39
  Q 204.59 40.25 204.52 42.33
  Q 204.36 47.41 204.49 51.82
  Q 204.54 53.30 203.24 52.68
  A 1.05 0.91 -84.1 0 1 202.73 51.95
  C 202.25 48.86 203.67 44.27 200.79 43.45
  Z"
/>
<path fill="#ffffff" d="
  M 757.95 43.19
  C 758.02 44.96 758.81 54.44 756.44 53.47
  A 0.84 0.66 -81.9 0 1 756.02 52.75
  L 755.85 45.44
  A 0.64 0.59 4.7 0 0 755.32 44.86
  Q 751.66 44.18 756.52 42.26
  A 1.04 1.04 -11.9 0 1 757.95 43.19
  Z"
/>
<path fill="#ffffff" d="
  M 582.4931 55.6294
  A 5.95 4.62 89.2 0 1 577.7905 49.7445
  A 5.95 4.62 89.2 0 1 582.3269 43.7306
  A 5.95 4.62 89.2 0 1 587.0295 49.6155
  A 5.95 4.62 89.2 0 1 582.4931 55.6294
  Z
  M 582.3727 53.6990
  A 3.85 2.53 91.3 0 0 584.9893 49.9074
  A 3.85 2.53 91.3 0 0 582.5473 46.0010
  A 3.85 2.53 91.3 0 0 579.9307 49.7926
  A 3.85 2.53 91.3 0 0 582.3727 53.6990
  Z"
/>
<ellipse fill="#000000" cx="0.00" cy="0.00" transform="translate(582.46,49.85) rotate(91.3)" rx="3.85" ry="2.53"/>
<path fill="#000000" d="
  M 27.75 55.71
  L 28.73 55.75
  C 47.56 57.26 48.13 83.99 29.43 85.89
  A 0.53 0.53 -3.5 0 0 28.95 86.43
  C 29.31 106.47 28.44 126.63 29.21 146.63
  C 29.50 154.42 36.93 157.70 43.78 157.82
  Q 70.39 158.29 97.00 158.25
  Q 140.00 158.18 183.00 158.74
  C 190.67 158.84 199.23 157.41 202.75 149.79
  Q 203.15 149.59 203.89 149.94
  Q 199.14 159.81 187.75 159.77
  Q 117.02 159.53 46.29 159.27
  Q 39.80 159.24 37.29 158.39
  C 32.39 156.73 27.75 152.39 27.75 146.75
  Q 27.75 116.75 27.75 86.34
  A 0.55 0.55 2.2 0 0 27.24 85.79
  C 8.69 84.38 8.75 57.29 27.75 55.71
  Z
  M 28.2746 76.7489
  A 5.97 4.71 88.9 0 0 32.8691 70.6896
  A 5.97 4.71 88.9 0 0 28.0454 64.8111
  A 5.97 4.71 88.9 0 0 23.4509 70.8704
  A 5.97 4.71 88.9 0 0 28.2746 76.7489
  Z"
/>
<path fill="#000000" d="
  M 204.04 63.50
  L 204.19 118.19
  A 1.32 0.90 75.6 0 1 203.87 119.07
  C 203.23 119.66 203.06 118.49 203.07 118.09
  Q 203.19 90.82 203.25 63.54
  Q 203.67 63.24 204.04 63.50
  Z"
/>
<path fill="#ffffff" d="
  M 28.2746 76.7489
  A 5.97 4.71 88.9 0 1 23.4509 70.8704
  A 5.97 4.71 88.9 0 1 28.0454 64.8111
  A 5.97 4.71 88.9 0 1 32.8691 70.6896
  A 5.97 4.71 88.9 0 1 28.2746 76.7489
  Z
  M 28.3451 74.5993
  A 3.91 2.45 88.9 0 0 30.7195 70.6430
  A 3.91 2.45 88.9 0 0 28.1949 66.7807
  A 3.91 2.45 88.9 0 0 25.8205 70.7370
  A 3.91 2.45 88.9 0 0 28.3451 74.5993
  Z"
/>
<ellipse fill="#000000" cx="0.00" cy="0.00" transform="translate(28.27,70.69) rotate(88.9)" rx="3.91" ry="2.45"/>
<path fill="#000000" d="
  M 106.1781 109.9889
  A 6.15 5.42 88.9 0 1 100.6410 103.9441
  A 6.15 5.42 88.9 0 1 105.9419 97.6911
  A 6.15 5.42 88.9 0 1 111.4790 103.7359
  A 6.15 5.42 88.9 0 1 106.1781 109.9889
  Z
  M 106.0757 107.0798
  A 3.28 2.42 90.6 0 0 108.5299 103.8253
  A 3.28 2.42 90.6 0 0 106.1443 100.5202
  A 3.28 2.42 90.6 0 0 103.6901 103.7747
  A 3.28 2.42 90.6 0 0 106.0757 107.0798
  Z"
/>
<path fill="#000000" d="
  M 118.95 101.10
  C 114.50 97.56 114.46 110.25 119.20 106.40
  A 1.39 0.97 -55.2 0 1 120.06 106.08
  C 123.33 106.30 121.30 108.77 119.77 109.30
  C 112.40 111.84 110.32 101.33 115.56 98.31
  C 119.74 95.90 124.21 101.83 119.81 101.49
  A 1.75 0.99 53.7 0 1 118.95 101.10
  Z"
/>
<path fill="#000000" d="
  M 140.00 105.83
  C 138.40 105.00 136.45 104.55 135.32 103.28
  C 131.57 99.09 138.79 96.87 142.14 98.69
  A 1.07 1.02 10.7 0 1 142.67 99.43
  Q 143.11 102.16 138.77 100.65
  A 1.18 1.18 -70.5 0 0 137.28 101.36
  C 136.86 102.52 145.44 101.63 142.51 108.61
  A 1.20 1.20 86.6 0 1 141.86 109.26
  Q 138.49 110.65 135.24 108.93
  A 1.12 1.09 8.3 0 1 134.69 108.21
  C 133.53 103.27 140.19 108.91 140.50 106.55
  A 0.88 0.59 21.2 0 0 140.00 105.83
  Z"
/>
<path fill="#000000" d="
  M 148.12 100.89
  A 1.40 1.39 9.0 0 0 149.19 102.35
  C 158.08 104.52 152.28 112.68 146.29 109.15
  C 144.92 108.35 144.15 106.12 146.58 106.34
  C 147.60 106.44 148.93 107.26 150.26 107.04
  Q 152.22 106.72 150.45 105.82
  C 148.26 104.71 143.67 103.76 145.32 100.25
  C 146.65 97.43 150.10 97.28 152.52 98.78
  A 0.97 0.96 -75.2 0 1 152.97 99.56
  C 153.10 103.89 148.25 99.20 148.12 100.89
  Z"
/>
<path fill="#000000" d="
  M 81.28 106.31
  L 81.24 108.74
  A 0.85 0.73 80.4 0 1 80.80 109.47
  C 77.65 110.91 78.50 107.51 78.46 105.97
  Q 78.37 102.35 78.70 98.74
  A 0.65 0.65 88.3 0 1 79.24 98.16
  C 81.72 97.73 85.85 97.49 87.41 99.90
  C 89.70 103.43 85.23 106.26 81.80 105.88
  A 0.47 0.44 4.1 0 0 81.28 106.31
  Z
  M 84.8395 101.7473
  A 1.88 1.32 -1.3 0 0 82.9301 100.4703
  A 1.88 1.32 -1.3 0 0 81.0805 101.8327
  A 1.88 1.32 -1.3 0 0 82.9899 103.1097
  A 1.88 1.32 -1.3 0 0 84.8395 101.7473
  Z"
/>
<path fill="#000000" d="
  M 93.42 105.56
  A 1.32 1.32 84.0 0 0 92.13 107.16
  Q 92.71 109.95 90.26 109.73
  A 1.20 1.13 -87.7 0 1 89.23 108.54
  L 89.23 99.24
  A 1.24 1.17 -90.0 0 1 90.40 98.00
  C 94.87 98.00 102.90 97.72 97.73 105.04
  A 0.94 0.77 -42.7 0 0 97.61 105.91
  L 98.94 108.75
  A 0.54 0.47 64.8 0 1 98.75 109.43
  C 94.63 111.41 95.65 105.56 93.42 105.56
  Z
  M 96.2589 101.8191
  A 2.20 1.31 1.8 0 0 94.1011 100.4406
  A 2.20 1.31 1.8 0 0 91.8611 101.6809
  A 2.20 1.31 1.8 0 0 94.0189 103.0594
  A 2.20 1.31 1.8 0 0 96.2589 101.8191
  Z"
/>
<path fill="#000000" d="
  M 127.06 102.04
  L 129.26 102.43
  A 1.18 0.92 -6.1 0 1 130.03 102.91
  C 131.94 106.13 124.93 103.51 126.77 106.52
  A 1.00 0.92 -13.4 0 0 127.56 106.96
  C 129.25 107.04 133.81 106.04 132.68 109.29
  A 0.73 0.68 8.9 0 1 132.00 109.75
  L 124.52 109.75
  A 0.52 0.52 0.0 0 1 124.00 109.23
  L 124.00 99.06
  A 0.79 0.78 86.7 0 1 124.69 98.28
  C 126.50 98.06 133.44 96.56 132.40 100.10
  A 0.91 0.90 8.1 0 1 131.53 100.75
  C 130.65 100.75 126.55 100.36 126.48 101.45
  A 0.68 0.54 7.1 0 0 127.06 102.04
  Z"
/>
<path fill="#000000" d="
  M 669.02 99.62
  C 670.68 98.52 675.35 98.29 675.67 101.18
  A 0.88 0.87 -20.7 0 1 675.29 102.00
  Q 673.78 103.04 672.14 101.82
  A 0.90 0.74 48.3 0 0 671.30 101.69
  C 667.45 103.50 669.97 110.63 673.46 107.41
  A 1.34 0.98 -58.4 0 1 674.31 107.06
  C 676.27 107.16 676.15 109.04 674.74 109.95
  C 667.78 114.41 663.24 103.50 669.02 99.62
  Z"
/>
<path fill="#000000" d="
  M 659.8318 111.0284
  A 6.09 5.26 91.3 0 1 654.7114 104.8207
  A 6.09 5.26 91.3 0 1 660.1082 98.8516
  A 6.09 5.26 91.3 0 1 665.2286 105.0593
  A 6.09 5.26 91.3 0 1 659.8318 111.0284
  Z
  M 659.9901 108.2290
  A 3.28 2.34 88.6 0 0 662.2493 104.8928
  A 3.28 2.34 88.6 0 0 659.8299 101.6710
  A 3.28 2.34 88.6 0 0 657.5707 105.0072
  A 3.28 2.34 88.6 0 0 659.9901 108.2290
  Z"
/>
<path fill="#000000" d="
  M 693.69 108.01
  Q 695.23 107.54 693.82 106.95
  L 690.40 105.51
  Q 688.28 104.62 688.25 102.91
  Q 688.18 98.52 694.21 99.19
  Q 696.05 99.40 696.08 101.26
  Q 696.10 103.86 692.85 101.83
  A 1.41 1.16 52.0 0 0 691.94 101.63
  C 688.81 102.16 694.29 103.83 694.60 104.00
  C 696.58 105.06 697.66 107.20 696.34 109.11
  C 694.75 111.42 691.18 111.10 688.89 110.04
  A 1.49 1.25 4.1 0 1 688.20 109.37
  Q 687.59 107.98 688.96 107.46
  A 1.22 0.87 42.5 0 1 689.87 107.57
  Q 691.77 108.61 693.69 108.01
  Z"
/>
<path fill="#000000" d="
  M 701.79 102.85
  C 704.49 103.74 708.02 104.74 707.21 107.87
  C 706.26 111.59 702.25 111.17 699.36 109.97
  Q 697.19 109.06 698.95 107.50
  Q 699.97 106.59 701.67 107.87
  A 1.95 1.24 55.6 0 0 702.56 108.25
  Q 705.02 108.48 704.04 106.91
  A 1.50 0.60 12.4 0 0 703.26 106.38
  L 699.75 105.00
  Q 696.83 103.85 698.56 101.31
  C 701.96 96.33 708.30 100.59 706.54 101.78
  A 2.86 2.84 36.1 0 1 704.14 102.15
  Q 701.69 101.44 701.35 102.20
  A 0.61 0.44 20.1 0 0 701.79 102.85
  Z"
/>
<path fill="#000000" d="
  M 635.09 110.53
  Q 634.05 111.57 632.91 110.55
  A 1.27 1.06 -72.8 0 1 632.55 109.69
  L 632.50 99.90
  A 0.66 0.65 0.0 0 1 633.16 99.25
  Q 635.75 99.25 637.74 99.13
  C 643.46 98.78 643.64 107.27 637.53 106.51
  Q 634.94 106.19 635.55 108.98
  A 1.67 1.66 -28.6 0 1 635.09 110.53
  Z
  M 638.9091 102.5164
  A 0.87 0.87 0.0 0 0 637.9933 101.6947
  L 636.2558 101.7888
  A 0.87 0.87 0.0 0 0 635.4342 102.7046
  L 635.4709 103.3836
  A 0.87 0.87 0.0 0 0 636.3867 104.2053
  L 638.1242 104.1112
  A 0.87 0.87 0.0 0 0 638.9458 103.1954
  L 638.9091 102.5164
  Z"
/>
<path fill="#000000" d="
  M 646.17 110.63
  Q 645.29 111.33 644.15 110.56
  A 0.99 0.91 -73.5 0 1 643.75 109.75
  L 643.80 99.80
  A 0.51 0.50 -0.0 0 1 644.31 99.30
  L 650.34 99.26
  A 2.85 2.70 73.4 0 1 652.74 100.64
  Q 654.68 103.91 651.89 106.20
  A 0.62 0.60 -32.8 0 0 651.72 106.94
  L 653.14 109.95
  Q 653.72 111.19 652.35 111.01
  Q 649.72 110.67 649.00 107.95
  A 1.50 1.49 -87.3 0 0 648.09 106.94
  Q 645.86 106.08 646.75 108.51
  A 1.89 1.88 60.4 0 1 646.17 110.63
  Z
  M 650.5095 102.8724
  A 2.10 1.32 -1.3 0 0 648.3801 101.6003
  A 2.10 1.32 -1.3 0 0 646.3105 102.9676
  A 2.10 1.32 -1.3 0 0 648.4399 104.2397
  A 2.10 1.32 -1.3 0 0 650.5095 102.8724
  Z"
/>
<path fill="#000000" d="
  M 680.73 102.53
  Q 681.16 103.40 682.26 103.32
  A 1.31 0.96 -20.2 0 1 683.14 103.57
  C 686.75 106.77 677.04 105.10 681.08 107.98
  A 1.55 0.53 -6.5 0 0 682.00 108.18
  L 685.70 108.23
  A 0.84 0.72 78.6 0 1 686.39 108.77
  C 687.56 111.81 680.03 110.75 678.41 110.75
  A 0.66 0.66 89.5 0 1 677.75 110.09
  L 677.75 99.75
  A 0.50 0.50 0.0 0 1 678.25 99.25
  L 685.28 99.25
  A 0.97 0.96 -1.6 0 1 686.25 100.16
  C 686.41 103.32 682.97 101.34 681.03 101.90
  A 0.47 0.44 -21.2 0 0 680.73 102.53
  Z"
/>
<ellipse fill="#ffffff" cx="0.00" cy="0.00" transform="translate(82.96,101.79) rotate(-1.3)" rx="1.88" ry="1.32"/>
<ellipse fill="#ffffff" cx="0.00" cy="0.00" transform="translate(94.06,101.75) rotate(1.8)" rx="2.20" ry="1.31"/>
<ellipse fill="#ffffff" cx="0.00" cy="0.00" transform="translate(106.11,103.80) rotate(90.6)" rx="3.28" ry="2.42"/>
<rect fill="#ffffff" x="-1.74" y="-1.21" transform="translate(637.19,102.95) rotate(-3.1)" width="3.48" height="2.42" rx="0.87"/>
<ellipse fill="#ffffff" cx="0.00" cy="0.00" transform="translate(648.41,102.92) rotate(-1.3)" rx="2.10" ry="1.32"/>
<ellipse fill="#ffffff" cx="0.00" cy="0.00" transform="translate(659.91,104.95) rotate(88.6)" rx="3.28" ry="2.34"/>
<path fill="#000000" d="
  M 203.89 149.94
  Q 203.15 149.59 202.75 149.79
  C 191.59 148.40 185.01 137.62 190.46 127.20
  C 194.67 119.14 206.23 117.39 212.85 122.86
  C 219.72 128.52 220.44 139.20 213.81 145.56
  Q 210.30 148.93 203.89 149.94
  Z
  M 202.24 136.23
  C 203.71 133.11 209.20 133.26 206.57 128.38
  A 1.34 1.27 83.9 0 0 205.84 127.76
  C 202.09 126.50 195.30 130.67 203.50 129.57
  A 1.80 1.22 -26.0 0 1 204.46 129.71
  Q 206.28 130.65 204.07 131.99
  Q 200.71 134.04 198.93 137.84
  A 0.85 0.85 11.9 0 0 199.72 139.05
  L 205.93 138.95
  A 1.68 1.45 22.7 0 0 206.85 138.65
  C 210.02 136.38 203.62 137.01 202.55 136.80
  A 0.42 0.40 17.6 0 1 202.24 136.23
  Z"
/>
<path fill="#000000" d="
  M 756.25 120.21
  L 757.25 120.21
  C 776.67 122.49 776.21 151.12 754.72 150.54
  C 744.76 148.63 739.73 140.01 742.61 130.52
  Q 745.29 121.70 756.25 120.21
  Z
  M 755.13 137.30
  C 757.17 134.91 764.60 131.72 757.82 128.49
  Q 756.14 127.69 754.40 128.34
  Q 751.69 129.36 752.91 130.88
  A 0.72 0.64 57.7 0 0 753.72 131.11
  L 755.07 130.52
  Q 755.70 130.24 756.00 130.23
  C 759.69 130.19 757.60 132.43 756.24 133.26
  Q 753.32 135.05 752.05 138.85
  A 0.70 0.70 -77.0 0 0 752.62 139.77
  C 753.53 139.88 761.81 140.62 760.48 138.47
  A 1.07 0.96 73.9 0 0 759.69 137.98
  L 755.31 137.67
  Q 754.84 137.64 755.13 137.30
  Z"
/>
<path fill="#ffffff" d="
  M 202.55 136.80
  C 203.62 137.01 210.02 136.38 206.85 138.65
  A 1.68 1.45 22.7 0 1 205.93 138.95
  L 199.72 139.05
  A 0.85 0.85 11.9 0 1 198.93 137.84
  Q 200.71 134.04 204.07 131.99
  Q 206.28 130.65 204.46 129.71
  A 1.80 1.22 -26.0 0 0 203.50 129.57
  C 195.30 130.67 202.09 126.50 205.84 127.76
  A 1.34 1.27 83.9 0 1 206.57 128.38
  C 209.20 133.26 203.71 133.11 202.24 136.23
  A 0.42 0.40 17.6 0 0 202.55 136.80
  Z"
/>
<path fill="#ffffff" d="
  M 755.31 137.67
  L 759.69 137.98
  A 1.07 0.96 73.9 0 1 760.48 138.47
  C 761.81 140.62 753.53 139.88 752.62 139.77
  A 0.70 0.70 -77.0 0 1 752.05 138.85
  Q 753.32 135.05 756.24 133.26
  C 757.60 132.43 759.69 130.19 756.00 130.23
  Q 755.70 130.24 755.07 130.52
  L 753.72 131.11
  A 0.72 0.64 57.7 0 1 752.91 130.88
  Q 751.69 129.36 754.40 128.34
  Q 756.14 127.69 757.82 128.49
  C 764.60 131.72 757.17 134.91 755.13 137.30
  Q 754.84 137.64 755.31 137.67
  Z"
/>
<path fill="#000000" d="
  M 457.05 189.00
  L 462.75 189.52
  A 0.83 0.82 19.3 0 1 463.38 190.80
  C 462.48 192.11 459.11 194.80 460.62 195.71
  A 1.20 0.79 18.9 0 1 461.17 196.42
  Q 461.38 197.90 459.82 197.95
  A 1.56 1.22 56.9 0 1 458.91 197.64
  L 454.97 194.74
  A 1.09 0.76 25.9 0 1 454.52 193.94
  C 454.65 192.45 457.20 193.61 458.23 192.84
  Q 459.56 191.85 457.87 191.75
  L 453.75 191.51
  Q 452.06 191.41 453.16 190.01
  Q 454.86 187.84 452.51 187.96
  Q 452.01 187.98 451.55 187.75
  C 449.66 186.83 450.50 188.82 450.50 189.54
  Q 450.52 193.02 450.74 196.48
  Q 450.91 198.97 448.16 198.06
  A 0.79 0.62 -81.7 0 1 447.74 197.32
  L 447.84 192.00
  Q 447.86 191.28 447.93 191.03
  Q 448.42 189.48 446.69 189.06
  A 1.50 1.02 22.3 0 1 445.50 187.25
  C 446.48 186.09 450.08 179.51 450.96 179.65
  A 0.96 0.66 81.2 0 1 451.56 180.29
  Q 452.30 182.66 454.98 181.63
  A 1.37 0.92 -79.9 0 0 455.62 180.97
  Q 456.22 179.69 457.57 179.84
  A 0.85 0.65 82.1 0 1 458.17 180.44
  C 458.89 182.97 465.43 180.64 463.02 183.56
  A 1.13 1.00 16.5 0 1 462.19 183.95
  L 458.57 184.05
  A 1.04 0.75 9.1 0 0 457.76 184.46
  Q 457.08 185.73 461.30 185.22
  A 4.44 4.40 54.8 0 1 463.83 185.67
  Q 465.22 186.37 464.24 187.79
  A 0.92 0.82 17.6 0 1 463.44 188.15
  C 462.48 188.08 456.93 187.62 456.59 188.44
  A 0.50 0.40 12.0 0 0 457.05 189.00
  Z
  M 451.10 183.00
  L 450.41 185.44
  A 0.36 0.32 2.7 0 0 450.82 185.84
  L 454.19 185.43
  A 1.21 0.68 3.5 0 0 455.00 185.04
  C 456.03 183.49 452.56 184.66 451.91 182.99
  Q 451.44 181.79 451.10 183.00
  Z"
/>
<path fill="#000000" d="
  M 394.00 180.79
  C 394.71 181.56 388.66 183.98 394.01 185.38
  A 0.42 0.41 8.9 0 0 394.54 185.00
  L 394.71 180.75
  Q 399.29 179.78 403.94 180.26
  A 0.58 0.55 2.4 0 1 404.46 180.80
  L 404.48 186.08
  A 0.70 0.68 0.4 0 1 403.76 186.77
  Q 399.12 186.66 395.26 186.73
  C 393.63 186.76 391.44 188.20 394.00 189.79
  Q 394.61 190.84 393.86 191.68
  Q 391.09 193.66 391.83 197.46
  A 0.63 0.60 73.2 0 1 391.48 198.15
  C 388.65 199.29 389.50 195.41 389.50 193.82
  Q 389.50 192.93 388.85 193.54
  Q 386.85 195.40 386.39 193.31
  A 1.40 1.13 -40.3 0 1 386.57 192.38
  C 387.09 191.50 390.42 187.49 387.57 187.41
  A 0.88 0.64 -7.6 0 1 386.83 187.01
  C 385.81 184.70 393.09 184.62 388.16 182.96
  A 1.58 0.91 4.7 0 1 387.38 182.42
  C 386.28 180.65 392.57 179.28 394.00 180.79
  Z
  M 402.2174 183.0677
  A 0.78 0.78 0.0 0 0 401.4525 182.2729
  L 398.0532 182.2076
  A 0.78 0.78 0.0 0 0 397.2583 182.9725
  L 397.2426 183.7923
  A 0.78 0.78 0.0 0 0 398.0075 184.5871
  L 401.4068 184.6524
  A 0.78 0.78 0.0 0 0 402.2017 183.8875
  L 402.2174 183.0677
  Z"
/>
<path fill="#000000" d="
  M 302.20 180.51
  A 0.53 0.51 -0.0 0 1 302.73 180.00
  L 318.68 180.05
  A 0.53 0.52 0.6 0 1 319.20 180.57
  L 319.24 197.39
  A 0.74 0.72 7.0 0 1 318.33 198.08
  Q 310.63 196.20 302.73 198.13
  A 0.58 0.56 -6.4 0 1 302.02 197.58
  L 302.20 180.51
  Z
  M 307.53 182.88
  Q 304.46 181.38 304.82 184.97
  Q 304.90 185.77 305.48 185.29
  L 307.65 183.49
  A 0.39 0.35 37.4 0 0 307.53 182.88
  Z
  M 315.79 185.25
  L 313.65 187.18
  A 0.41 0.37 -48.8 0 0 313.66 187.79
  Q 317.26 190.21 316.46 185.25
  Q 316.71 184.09 316.37 183.02
  A 0.76 0.69 -7.0 0 0 315.69 182.54
  C 314.86 182.51 309.61 181.82 310.69 183.56
  Q 311.24 184.47 314.25 184.00
  Q 315.86 183.75 315.79 185.25
  Z
  M 306.00 188.42
  C 312.43 187.30 301.86 186.33 305.07 188.26
  A 1.42 1.23 -31.2 0 0 306.00 188.42
  Z
  M 306.78 192.14
  Q 307.90 191.78 309.03 192.09
  A 1.14 0.60 23.4 0 0 309.94 192.02
  Q 310.45 191.61 309.07 191.06
  Q 303.23 188.77 305.03 194.34
  A 0.75 0.73 -6.4 0 0 305.68 194.85
  Q 316.90 195.75 306.62 193.51
  A 0.47 0.40 6.6 0 1 306.25 193.12
  L 306.24 192.80
  A 0.75 0.61 -11.3 0 1 306.78 192.14
  Z
  M 315.95 190.61
  Q 315.07 189.96 313.47 190.55
  A 0.66 0.64 -15.1 0 0 313.05 191.25
  C 313.28 192.81 314.25 193.47 315.16 194.73
  Q 316.18 196.16 316.72 192.47
  A 1.96 1.96 -67.5 0 0 315.95 190.61
  Z"
/>
<path fill="#000000" d="
  M 381.71 195.25
  C 377.91 194.43 381.43 189.44 378.28 190.39
  A 1.46 0.91 -73.1 0 0 377.58 191.00
  L 375.28 194.83
  A 0.30 0.28 -72.9 0 0 375.50 195.28
  L 381.75 195.46
  Q 386.70 194.26 384.72 197.28
  A 1.11 1.05 12.2 0 1 383.94 197.75
  C 380.05 198.21 374.16 198.60 370.88 195.97
  A 0.98 0.97 26.5 0 0 369.32 196.49
  Q 368.63 199.22 367.06 196.87
  A 1.32 1.31 56.8 0 1 367.44 195.03
  Q 370.10 193.30 369.15 189.98
  A 0.77 0.68 -4.1 0 0 368.50 189.48
  Q 366.71 189.32 367.05 187.67
  A 1.04 0.99 -6.4 0 1 367.64 186.97
  Q 369.99 185.95 371.79 187.75
  C 371.54 189.50 371.18 193.78 372.98 194.74
  Q 373.41 194.96 373.39 194.45
  Q 373.32 193.08 374.15 191.35
  A 0.75 0.74 -65.9 0 0 373.77 190.34
  Q 372.21 189.71 372.75 188.29
  C 378.84 187.08 372.31 185.18 372.64 183.79
  A 0.75 0.59 3.0 0 1 373.31 183.32
  C 375.84 183.20 374.65 178.13 377.39 180.41
  A 1.01 0.82 -70.3 0 1 377.68 181.24
  Q 377.44 183.35 379.21 182.85
  A 0.87 0.69 89.6 0 0 379.74 182.18
  L 379.95 180.81
  A 0.91 0.88 84.6 0 1 380.52 180.10
  Q 382.28 179.43 382.56 182.08
  A 0.86 0.84 -83.3 0 0 383.10 182.78
  C 389.37 185.12 379.49 185.22 382.89 187.67
  A 1.76 1.00 -14.1 0 0 383.82 187.93
  Q 386.21 187.98 385.03 189.84
  A 0.93 0.77 14.2 0 1 384.25 190.21
  C 380.95 190.14 383.59 193.42 381.71 195.25
  Z
  M 378.4000 187.9634
  A 1.42 1.11 108.9 0 0 379.9102 186.9795
  A 1.42 1.11 108.9 0 0 379.3200 185.2766
  A 1.42 1.11 108.9 0 0 377.8098 186.2605
  A 1.42 1.11 108.9 0 0 378.4000 187.9634
  Z"
/>
<path fill="#000000" d="
  M 470.79 187.00
  Q 470.42 190.57 471.09 194.07
  A 0.31 0.31 -24.4 0 0 471.59 194.25
  Q 474.37 192.13 475.31 191.06
  C 477.65 188.43 471.70 191.42 471.46 188.00
  Q 472.27 187.12 475.11 187.42
  A 1.86 1.85 25.6 0 0 476.60 186.90
  C 478.04 185.47 473.77 185.48 473.25 185.36
  A 1.29 1.04 -6.1 0 1 472.46 184.85
  Q 471.44 183.25 473.69 182.77
  A 0.45 0.44 -14.3 0 0 474.03 182.21
  Q 472.98 178.93 475.88 180.45
  A 1.41 1.13 88.5 0 1 476.48 181.16
  C 478.81 187.34 479.69 177.68 482.42 180.39
  A 0.72 0.59 -55.2 0 1 482.48 181.17
  C 481.63 182.79 483.08 182.93 483.53 183.98
  C 484.84 186.99 479.59 184.13 479.11 186.44
  A 0.63 0.58 16.5 0 0 479.52 187.13
  Q 481.11 187.72 483.27 187.43
  A 1.10 1.10 84.4 0 1 484.51 188.45
  C 484.74 191.49 476.49 187.97 482.31 191.75
  A 2.48 2.48 16.0 0 1 483.45 193.80
  C 483.49 196.83 479.18 192.49 478.76 192.02
  A 0.60 0.59 47.6 0 0 477.90 191.98
  L 474.62 195.15
  Q 474.25 195.50 474.74 195.57
  Q 479.15 196.20 483.56 195.24
  A 0.98 0.98 88.2 0 1 484.74 196.35
  C 484.36 198.79 483.38 198.12 481.63 198.33
  C 478.46 198.69 473.09 198.82 470.50 196.75
  A 2.47 0.99 -38.6 0 0 468.19 197.44
  Q 465.69 199.26 465.68 196.18
  A 0.94 0.78 -18.9 0 1 466.13 195.44
  Q 468.89 193.69 468.08 189.36
  A 0.95 0.94 3.6 0 0 467.42 188.62
  Q 466.18 188.25 466.00 187.49
  A 0.87 0.65 -25.6 0 1 466.41 186.71
  Q 468.60 185.31 470.79 187.00
  Z"
/>
<path fill="#000000" d="
  M 367.69 181.37
  A 0.63 0.60 -28.5 0 1 368.00 180.41
  C 370.53 179.58 374.00 183.87 370.81 184.38
  A 0.98 0.83 -22.2 0 1 369.95 184.10
  L 367.69 181.37
  Z"
/>
<rect fill="#000000" x="-1.11" y="-10.33" transform="translate(421.38,190.37) rotate(14.2)" width="2.22" height="20.66" rx="0.66"/>
<rect fill="#000000" x="-1.29" y="-2.45" transform="translate(469.04,182.40) rotate(-33.4)" width="2.58" height="4.90" rx="1.05"/>
<path fill="#ffffff" d="
  M 394.00 180.79
  L 394.71 180.75
  L 394.54 185.00
  A 0.42 0.41 8.9 0 1 394.01 185.38
  C 388.66 183.98 394.71 181.56 394.00 180.79
  Z"
/>
<path fill="#000000" d="
  M 352.43 188.91
  Q 356.57 192.89 352.14 195.88
  Q 350.46 197.01 348.47 196.64
  C 345.07 195.99 342.26 191.34 345.62 189.83
  A 1.23 1.22 -35.3 0 0 345.97 187.83
  C 344.35 186.29 344.33 184.70 345.86 183.06
  C 349.86 178.79 357.01 183.94 352.44 188.23
  A 0.47 0.47 -44.6 0 0 352.43 188.91
  Z
  M 351.36 185.57
  A 1.89 1.89 0.0 0 0 349.47 183.68
  A 1.89 1.89 0.0 0 0 347.58 185.57
  A 1.89 1.89 0.0 0 0 349.47 187.46
  A 1.89 1.89 0.0 0 0 351.36 185.57
  Z
  M 350.4129 194.2129
  A 2.27 2.02 56.5 0 0 350.8444 191.2051
  A 2.27 2.02 56.5 0 0 347.9071 190.4271
  A 2.27 2.02 56.5 0 0 347.4756 193.4349
  A 2.27 2.02 56.5 0 0 350.4129 194.2129
  Z"
/>
<path fill="#000000" d="
  M 327.43 182.08
  Q 330.97 181.37 334.57 181.86
  A 0.82 0.70 -0.9 0 1 335.23 182.41
  Q 335.45 183.27 334.87 183.92
  A 1.33 0.69 7.5 0 1 334.01 184.23
  L 330.43 184.37
  A 0.91 0.82 -76.5 0 0 329.70 184.87
  C 328.51 187.22 330.99 186.66 332.01 186.90
  C 340.05 188.83 334.89 200.30 326.25 195.45
  A 1.02 0.98 12.6 0 1 325.74 194.68
  C 325.31 190.30 333.56 198.01 332.53 191.07
  Q 332.16 188.50 328.10 189.14
  A 1.10 1.04 -4.4 0 1 326.82 188.11
  L 326.88 182.68
  A 0.68 0.60 -6.4 0 1 327.43 182.08
  Z"
/>
<rect fill="#000000" x="412.51" y="181.77" width="3.50" height="14.90" rx="0.74"/>
<path fill="#000000" d="
  M 433.3690 196.9138
  A 7.70 6.98 87.7 0 1 426.0856 189.5001
  A 7.70 6.98 87.7 0 1 432.7510 181.5262
  A 7.70 6.98 87.7 0 1 440.0344 188.9399
  A 7.70 6.98 87.7 0 1 433.3690 196.9138
  Z
  M 433.0708 194.4600
  A 5.25 3.48 90.1 0 0 436.5600 189.2161
  A 5.25 3.48 90.1 0 0 433.0892 183.9600
  A 5.25 3.48 90.1 0 0 429.6000 189.2039
  A 5.25 3.48 90.1 0 0 433.0708 194.4600
  Z"
/>
<path fill="#ffffff" d="
  M 307.53 182.88
  A 0.39 0.35 37.4 0 1 307.65 183.49
  L 305.48 185.29
  Q 304.90 185.77 304.82 184.97
  Q 304.46 181.38 307.53 182.88
  Z"
/>
<rect fill="#ffffff" x="-2.48" y="-1.19" transform="translate(399.73,183.43) rotate(1.1)" width="4.96" height="2.38" rx="0.78"/>
<path fill="#ffffff" d="
  M 316.46 185.25
  L 315.79 185.25
  Q 315.86 183.75 314.25 184.00
  Q 311.24 184.47 310.69 183.56
  C 309.61 181.82 314.86 182.51 315.69 182.54
  A 0.76 0.69 -7.0 0 1 316.37 183.02
  Q 316.71 184.09 316.46 185.25
  Z"
/>
<path fill="#ffffff" d="
  M 451.10 183.00
  Q 451.44 181.79 451.91 182.99
  C 452.56 184.66 456.03 183.49 455.00 185.04
  A 1.21 0.68 3.5 0 1 454.19 185.43
  L 450.82 185.84
  A 0.36 0.32 2.7 0 1 450.41 185.44
  L 451.10 183.00
  Z"
/>
<circle fill="#ffffff" cx="349.47" cy="185.57" r="1.89"/>
<ellipse fill="#ffffff" cx="0.00" cy="0.00" transform="translate(433.08,189.21) rotate(90.1)" rx="5.25" ry="3.48"/>
<path fill="#ffffff" d="
  M 315.79 185.25
  L 316.46 185.25
  Q 317.26 190.21 313.66 187.79
  A 0.41 0.37 -48.8 0 1 313.65 187.18
  L 315.79 185.25
  Z"
/>
<circle fill="#000000" cx="358.37" cy="187.09" r="1.97"/>
<ellipse fill="#ffffff" cx="0.00" cy="0.00" transform="translate(378.86,186.62) rotate(108.9)" rx="1.42" ry="1.11"/>
<path fill="#ffffff" d="
  M 305.07 188.26
  C 301.86 186.33 312.43 187.30 306.00 188.42
  A 1.42 1.23 -31.2 0 1 305.07 188.26
  Z"
/>
<path fill="#ffffff" d="
  M 470.79 187.00
  Q 470.97 187.63 471.46 188.00
  C 471.70 191.42 477.65 188.43 475.31 191.06
  Q 474.37 192.13 471.59 194.25
  A 0.31 0.31 -24.4 0 1 471.09 194.07
  Q 470.42 190.57 470.79 187.00
  Z"
/>
<path fill="#000000" d="
  M 394.79 192.25
  C 395.58 191.72 399.43 191.51 398.62 190.58
  A 1.49 0.73 -2.4 0 0 397.75 190.20
  L 394.50 189.71
  Q 394.22 187.50 396.03 187.67
  C 398.71 187.93 401.65 187.76 404.44 187.68
  A 0.82 0.82 -5.7 0 1 405.27 188.36
  C 405.66 190.77 404.09 189.87 402.91 190.12
  Q 398.51 191.05 403.95 191.75
  A 0.88 0.80 -5.2 0 1 404.64 192.27
  C 405.65 195.04 399.07 192.82 401.35 194.88
  A 1.95 1.95 -27.6 0 0 402.92 195.37
  Q 406.06 194.92 405.43 197.25
  A 0.67 0.66 -82.6 0 1 404.79 197.75
  L 394.30 197.70
  A 0.62 0.62 -5.7 0 1 393.69 197.20
  C 393.14 194.60 395.12 195.38 396.62 195.17
  C 403.11 194.29 394.13 194.35 394.79 192.25
  Z"
/>
<path fill="#ffffff" d="
  M 371.79 187.75
  Q 372.06 188.36 372.75 188.29
  Q 372.21 189.71 373.77 190.34
  A 0.75 0.74 -65.9 0 1 374.15 191.35
  Q 373.32 193.08 373.39 194.45
  Q 373.41 194.96 372.98 194.74
  C 371.18 193.78 371.54 189.50 371.79 187.75
  Z"
/>
<path fill="#ffffff" d="
  M 394.00 189.79
  L 394.50 189.71
  L 397.75 190.20
  A 1.49 0.73 -2.4 0 1 398.62 190.58
  C 399.43 191.51 395.58 191.72 394.79 192.25
  Q 394.95 191.63 393.86 191.68
  Q 394.61 190.84 394.00 189.79
  Z"
/>
<ellipse fill="#ffffff" cx="0.00" cy="0.00" transform="translate(349.16,192.32) rotate(56.5)" rx="2.27" ry="2.02"/>
<path fill="#ffffff" d="
  M 381.71 195.25
  L 381.75 195.46
  L 375.50 195.28
  A 0.30 0.28 -72.9 0 1 375.28 194.83
  L 377.58 191.00
  A 1.46 0.91 -73.1 0 1 378.28 190.39
  C 381.43 189.44 377.91 194.43 381.71 195.25
  Z"
/>
<path fill="#ffffff" d="
  M 306.24 192.80
  L 306.25 193.12
  A 0.47 0.40 6.6 0 0 306.62 193.51
  Q 316.90 195.75 305.68 194.85
  A 0.75 0.73 -6.4 0 1 305.03 194.34
  Q 303.23 188.77 309.07 191.06
  Q 310.45 191.61 309.94 192.02
  A 1.14 0.60 23.4 0 1 309.03 192.09
  Q 307.90 191.78 306.78 192.14
  A 0.75 0.61 -11.3 0 0 306.24 192.80
  Z"
/>
<path fill="#ffffff" d="
  M 315.95 190.61
  A 1.96 1.96 -67.5 0 1 316.72 192.47
  Q 316.18 196.16 315.16 194.73
  C 314.25 193.47 313.28 192.81 313.05 191.25
  A 0.66 0.64 -15.1 0 1 313.47 190.55
  Q 315.07 189.96 315.95 190.61
  Z"
/>
<circle fill="#000000" cx="340.15" cy="194.71" r="1.93"/>
<circle fill="#000000" cx="358.40" cy="194.72" r="1.94"/>
</svg>
