<?xml version="1.0"?>
<svg width="1170" height="658" xmlns="http://www.w3.org/2000/svg" xmlns:svg="http://www.w3.org/2000/svg" version="1.1">
 <g class="layer">
  <title>Layer 1</title>
  <g fill="none" id="svg_1" stroke-width="2">
   <path d="m445.09,90.03l-0.08,-11.3a1,0.97 -89.7 0 0 -0.95,-0.99q-21.44,-0.61 -42.84,0a1.25,1.25 -0.7 0 0 -1.22,1.25l0,10.38a1.07,1.07 0.3 0 0 1.06,1.07l9.94,0.1" id="svg_3" stroke="#858487"/>
   <path d="m375.29,112.5l5.56,-18.62a1.11,1.07 -80.8 0 0 -0.99,-1.43l-13.15,-0.15a1.21,1.14 -82.3 0 0 -1.13,0.92l-4.44,18.29q-0.58,2.35 -1.14,0l-4.31,-18.01a1.63,1.61 83.2 0 0 -1.57,-1.25l-10.99,0a1.79,1.77 -83.4 0 0 -1.73,1.39l-4.09,18.19q-0.44,1.94 -0.85,-0.01l-3.89,-18.58a1.18,1.16 84.5 0 0 -1.13,-0.94l-13.27,-0.05a0.97,0.96 81.9 0 0 -0.92,1.24l9.54,32.76" id="svg_5" stroke="#858487"/>
   <path d="m239.81,98.18l-0.06,-19.56a0.85,0.85 -87.4 0 0 -0.77,-0.85q-6.98,-0.62 -13.42,-0.05a0.89,0.88 -2.5 0 0 -0.81,0.88l0,54.16a1.24,1.24 0 0 0 1.24,1.24l12.38,0a1.42,1.39 -89.8 0 0 1.39,-1.41l0.16,-19.91a0.53,0.52 -89.4 0 1 0.52,-0.52l11.98,-0.12a0.9,0.85 89.3 0 1 0.86,0.89l0.19,20.01a1.11,1.08 -0.5 0 0 1.11,1.06l12.44,0a1.17,1.15 -0.2 0 0 1.17,-1.16l-0.12,-54.4a0.58,0.57 4 0 0 -0.5,-0.57q-6.79,-0.9 -13.57,0.06a0.6,0.57 -4 0 0 -0.52,0.57l-0.2,19.59a0.86,0.79 -89 0 1 -0.81,0.85l-12.15,-0.21a0.55,0.51 90 0 1 -0.51,-0.55" id="svg_7" stroke="#858487"/>
   <path d="m313.53,110.25a18.57,18.57 0 0 0 -18.63,-18.51l-3.58,0.02a18.57,18.57 0 0 0 -18.51,18.63l0.02,5.4a18.57,18.57 0 0 0 18.63,18.51l3.58,-0.02a18.57,18.57 0 0 0 18.51,-18.63l-0.02,-5.4" id="svg_8" stroke="#858487"/>
   <path d="m983.04,183l-0.07,-67.43" id="svg_10" stroke="#1e2533"/>
   <path d="m982.97,115.57q0.52,-14.01 0.14,-27.89c-0.17,-6.34 -2.04,-10.41 -8.86,-10.44q-27.81,-0.15 -55.78,0.22" id="svg_11" stroke="#232b3a"/>
   <path d="m918.47,77.46q-0.37,-3.97 -0.2,-8.71c0.44,-11.6 -7.04,-10.5 -16.4,-10.5q-32.5,0 -65,0c-13.36,0 -10.03,10.12 -10.66,19.25" id="svg_12" stroke="#32414b"/>
   <path d="m826.21,77.5q-18.48,-0.29 -55.21,-0.25c-8.48,0.01 -9.5,4.98 -9.51,12.44q-0.02,12.71 0.06,25.73" id="svg_13" stroke="#232b3a"/>
   <path d="m761.55,115.42l-0.09,45.33" id="svg_14" stroke="#1e2533"/>
   <path d="m404,316.54c-10.04,-2.41 -24.75,0.22 -26.4,12.69" id="svg_16" stroke="#313f8b"/>
   <path d="m344.71,320q0.77,-5.08 5.1,-5.69q7.65,-1.07 9.03,7.19a0.91,0.9 83.2 0 0 0.94,0.75l12.43,-0.78a1.73,1.72 85.1 0 0 1.6,-1.92q-1.48,-13.22 -13.57,-17.01c-10.83,-3.39 -24,-0.52 -28.95,10.4c-3.19,7.05 -1.92,19.99 -1.75,27.81" id="svg_18" stroke="#313f8b"/>
   <path d="m306.34,350.38q5.93,-13.5 -3.94,-20.81c-4.15,-3.08 -10.81,-4.51 -16.17,-6.24c-2.48,-0.8 -8.91,-3.63 -5.69,-7.42q1.01,-1.19 3.29,-1.56q8,-1.28 9.88,6.86a0.63,0.61 83.5 0 0 0.6,0.49l12.8,-0.01a1.17,1.14 90 0 0 1.14,-1.17c0.01,-19.33 -26.4,-25.11 -38.64,-13.4c-5.48,5.24 -6.27,13.9 -1.99,20.03c4.02,5.75 15.58,9.5 22.14,11.04c6.48,1.52 3.69,7.83 -2.26,7.56q-7,-0.31 -8.11,-6.57a0.64,0.57 84.6 0 0 -0.57,-0.53l-12.63,0.04a1.59,1.48 88.2 0 0 -1.46,1.67q0.68,12.83 12.27,16.93" id="svg_20" stroke="#313f8b"/>
   <path d="m326.79,126.25l1.76,5.89q0.56,1.86 2.44,1.86l12.23,0a1.4,1.36 6.2 0 0 1.36,-1.06l3.48,-15.13q0.43,-1.86 0.94,-0.06l4.32,15.2a1.46,1.45 -7.9 0 0 1.4,1.05l12.52,0a2.1,2.09 -81.6 0 0 2,-1.49l6.05,-20.01" id="svg_22" stroke="#88868b"/>
   <path d="m411,90.54c4.62,-1.13 3.75,1.66 3.75,4.48q0,18.85 0,37.06q0,1.92 1.83,1.89l12.42,-0.2a0.82,0.76 -90 0 0 0.75,-0.81l0.3,-41.64a0.54,0.53 -1.2 0 1 0.51,-0.52l14.53,-0.77" id="svg_23" stroke="#88868b"/>
   <path d="m489.43,110.26a18.57,18.57 0 0 0 -18.63,-18.51l-3.58,0.02a18.57,18.57 0 0 0 -18.51,18.63l0.02,5.38a18.57,18.57 0 0 0 18.63,18.51l3.58,-0.02a18.57,18.57 0 0 0 18.51,-18.63l-0.02,-5.38" id="svg_24" stroke="#88868b"/>
   <path d="m277.06,224.07l15.23,-0.31a0.75,0.72 89.6 0 0 0.71,-0.75l0,-11.06a0.71,0.68 -89.6 0 0 -0.67,-0.71l-14.91,-0.2a0.94,0.9 0.7 0 1 -0.92,-0.9l0,-7.01a0.45,0.44 -0.7 0 1 0.44,-0.44l24.15,-0.2a0.93,0.88 0.3 0 0 0.92,-0.86l0.19,-10.63a1.31,1.23 0.4 0 0 -1.31,-1.25l-38.67,0a0.72,0.71 0 0 0 -0.72,0.71l0,54.78a0.71,0.71 -87.4 0 0 0.64,0.71q6.99,0.63 13.59,0.03a0.85,0.84 -2.6 0 0 0.77,-0.84l0.06,-20.59a0.51,0.48 -0.6 0 1 0.5,-0.48" id="svg_25" stroke="#313f8b"/>
   <path d="m320.99,191.12a1.37,1.37 0 0 0 -1.37,-1.37l-12.5,0a1.37,1.37 0 0 0 -1.37,1.37l0,53.62a1.37,1.37 0 0 0 1.37,1.37l12.5,0a1.37,1.37 0 0 0 1.37,-1.37l0,-53.62" id="svg_26" stroke="#313f8b"/>
   <path d="m428.28,207.7l-0.24,-16.55a1.37,1.29 89.5 0 0 -1.29,-1.35l-12.63,-0.05a0.88,0.88 -89.7 0 0 -0.88,0.87l-0.23,54.15a1.2,1.15 -90 0 0 1.15,1.2l12.62,0.02a1.3,1.23 89.5 0 0 1.23,-1.32q-0.17,-11.49 0.17,-22.41c0.1,-3.12 1.37,-6.16 4.91,-5.61c4.64,0.71 4.2,5.37 4.14,8.83q-0.15,10 0.25,19.61a0.89,0.84 88.3 0 0 0.85,0.85l13.24,-0.09a0.54,0.5 -89.4 0 0 0.5,-0.53q0.31,-12.45 0.18,-24.9q-0.06,-5.86 -1.49,-8.98c-3.73,-8.15 -15.2,-10.92 -22.1,-3.63q-0.37,0.4 -0.38,-0.11" id="svg_27" stroke="#313f8b"/>
   <path d="m393.62,233.28q0.28,1.02 -0.81,1.53q-5.73,2.71 -8.34,-2.36a0.93,0.9 78.9 0 0 -0.72,-0.5q-6.42,-0.57 -11.55,-0.03q-2.68,0.28 -2.05,2.9q1.99,8.31 9.8,10.61c8.68,2.55 27.39,2.13 28.8,-9.93c1.51,-12.99 -11.13,-14.3 -20.41,-15.89c-7.9,-1.36 2.34,-8.53 5.89,-1.25a0.87,0.72 74.6 0 0 0.7,0.49l11.29,0.01q2.36,0.01 1.71,-2.44c-6.03,-22.57 -46.13,-12.43 -35.63,6.73c4.46,8.13 13.5,6.43 20.68,9.46a1.16,0.91 8.2 0 1 0.64,0.67" id="svg_28" stroke="#313f8b"/>
   <path d="m350.36,242.92q-0.46,3.54 3.02,3.44c3.93,-0.11 7.67,-0.01 11.56,-0.6a0.59,0.57 -4 0 0 0.51,-0.57l0.27,-39.61a1.21,1.18 2.3 0 0 -1.13,-1.19q-6.31,-0.46 -13.35,0.11a0.53,0.52 -1.8 0 0 -0.49,0.51q-0.34,11.4 -0.32,22.81q0.01,2.87 -1.23,4.38c-2.37,2.92 -6.57,1.49 -7.37,-2.1q-0.34,-1.51 -0.33,-3.35q0.05,-10.97 -0.06,-21.56a0.95,0.95 89.7 0 0 -0.95,-0.94l-12.51,0a1.48,1.48 0 0 0 -1.48,1.48q0,12.02 -0.19,24.02c-0.16,10.53 5.12,18.94 17.02,16.64q3.75,-0.73 6.3,-3.79q0.91,-1.1 0.73,0.32" id="svg_29" stroke="#313f8b"/>
   <path d="m164.49,358.2c13.59,0.31 42.26,3.83 42.26,-18.45q0,-9.37 0.14,-18.75c0.34,-22.8 -27.6,-19.44 -42.13,-19.23q-1.94,0.03 -1.95,1.96l-0.06,52.69a1.78,1.78 0.7 0 0 1.74,1.78" id="svg_30" stroke="#313f8b"/>
   <path d="m244.19,329.85q-0.01,0.7 -0.37,0.1l-16.21,-27.1a2.25,2.16 73.7 0 0 -1.9,-1.09l-11.72,0.06a1.19,1.18 90 0 0 -1.18,1.19l-0.06,54.15a1.09,1.09 0.2 0 0 1.09,1.09l12.1,0a1.82,1.82 89.8 0 0 1.82,-1.83l-0.2,-25.85a0.81,0.51 86.9 0 1 0.43,-0.76c0.4,-0.07 15.26,25.17 16.81,27.7a1.07,1.03 76.8 0 0 0.76,0.49q6.59,0.83 13.13,-0.23a0.61,0.6 -4 0 0 0.51,-0.58q0.71,-27.34 0.05,-54.6a0.57,0.56 2.3 0 0 -0.51,-0.55q-7.12,-0.63 -13.76,-0.04a0.52,0.52 -2.4 0 0 -0.48,0.52l-0.31,27.33" id="svg_31" stroke="#313f8b"/>
   <path d="m918.47,77.46l-0.18,17.79" id="svg_32" stroke="#455f6f"/>
   <path d="m918.29,95.25l0,3.25" id="svg_33" stroke="#405a68"/>
   <path d="m918.29,98.5l-0.29,5.64" id="svg_34" stroke="#455f6f"/>
   <path d="m918,104.14q-19.29,-0.3 -38.5,-0.06c-17.46,0.23 -35.28,-0.33 -52.96,0.17" id="svg_35" stroke="#4a6976"/>
   <path d="m826.54,104.25l-0.33,-4.75" id="svg_36" stroke="#455f6f"/>
   <path d="m826.21,99.5l0,-5.75" id="svg_37" stroke="#405a68"/>
   <path d="m826.21,93.75q0.72,-8.13 0,-16.25" id="svg_38" stroke="#455f6f"/>
   <path d="m887.48,81.06a3.79,3.79 0 0 0 -3.79,-3.79l-41.86,0a3.79,3.79 0 0 0 -3.79,3.79l0,0.14a3.79,3.79 0 0 0 3.79,3.79l41.86,0a3.79,3.79 0 0 0 3.79,-3.79l0,-0.14" id="svg_39" stroke="#4a6976"/>
   <path d="m906.8,81.19a5.77,4.02 0.1 0 0 -5.76,-4.03a5.77,4.02 0.1 0 0 -5.78,4.01a5.77,4.02 0.1 0 0 5.76,4.03a5.77,4.02 0.1 0 0 5.78,-4.01" id="svg_40" stroke="#4a6976"/>
   <path d="m826.21,93.75c-3.26,-1.42 -12.23,-2.62 -10.95,3.8q0.36,1.8 2.09,2.41q4.29,1.5 8.86,-0.46" id="svg_41" stroke="#314457"/>
   <path d="m826.54,104.25l-0.08,11.5" id="svg_42" stroke="#3a5365"/>
   <path d="m826.46,115.75l-64.91,-0.33" id="svg_43" stroke="#314457"/>
   <path d="m807.28,96.37a3.8,3.8 0 0 0 -3.8,-3.8l-26.58,0a3.8,3.8 0 0 0 -3.8,3.8l0,0.3a3.8,3.8 0 0 0 3.8,3.8l26.58,0a3.8,3.8 0 0 0 3.8,-3.8l0,-0.3" id="svg_44" stroke="#314457"/>
   <path d="m982.97,115.57l-64.68,0.18" id="svg_45" stroke="#314457"/>
   <path d="m918.29,115.75l-0.29,-11.61" id="svg_46" stroke="#3a5365"/>
   <path d="m918.29,98.5q1.91,1.95 5.46,2c3.98,0.06 25.63,0.88 27.64,-1.08q1.33,-1.29 0.71,-4.27q-0.44,-2.07 -2.54,-2.22q-13.55,-0.96 -28.06,-0.18q-2.99,0.16 -3.21,2.5" id="svg_47" stroke="#314457"/>
   <path d="m971.65,96.62a5.79,4.09 0.2 0 0 -5.78,-4.11a5.79,4.09 0.2 0 0 -5.8,4.07a5.79,4.09 0.2 0 0 5.78,4.11a5.79,4.09 0.2 0 0 5.8,-4.07" id="svg_48" stroke="#314457"/>
   <path d="m293.24,121.76a8.73,5.49 90 0 0 5.49,-8.73a8.73,5.49 90 0 0 -5.49,-8.73a8.73,5.49 90 0 0 -5.49,8.73a8.73,5.49 90 0 0 5.49,8.73" id="svg_49" stroke="#858487"/>
   <path d="m469.09,121.74a8.71,5.51 89.7 0 0 5.46,-8.74a8.71,5.51 89.7 0 0 -5.56,-8.68a8.71,5.51 89.7 0 0 -5.46,8.74a8.71,5.51 89.7 0 0 5.56,8.68" id="svg_50" stroke="#858487"/>
   <path d="m918.29,115.75l0,98.75" id="svg_51" stroke="#364d5e"/>
   <path d="m918.29,214.5c0.13,12.84 1.75,19.8 -13.04,19.55q-14.52,-0.24 -29.04,0.2" id="svg_52" stroke="#2a3645"/>
   <path d="m876.21,234.25q-3.87,-0.73 -7.68,-0.34" id="svg_53" stroke="#5f747d"/>
   <path d="m868.53,233.91q-15.44,-0.07 -30.81,-0.15c-3.9,-0.02 -6.93,0.41 -9.48,-2.84c-2.7,-3.45 -1.84,-12.03 -1.81,-16.37" id="svg_54" stroke="#2a3645"/>
   <path d="m826.43,214.55l0.03,-98.8" id="svg_55" stroke="#364d5e"/>
   <path d="m895.16,119.32a3.76,3.76 0 0 0 -3.75,-3.77l-38,-0.06a3.76,3.76 0 0 0 -3.77,3.75l0,0.16a3.76,3.76 0 0 0 3.75,3.77l38,0.06a3.76,3.76 0 0 0 3.77,-3.75l0,-0.16" id="svg_56" stroke="#62899c"/>
   <path d="m895.13,134.55a3.77,3.77 0 0 0 -3.77,-3.77l-37.86,0a3.77,3.77 0 0 0 -3.77,3.77l0,0.16a3.77,3.77 0 0 0 3.77,3.77l37.86,0a3.77,3.77 0 0 0 3.77,-3.77l0,-0.16" id="svg_57" stroke="#62899c"/>
   <path d="m895.15,149.91a3.66,3.66 0 0 0 -3.66,-3.66l-38.12,0a3.66,3.66 0 0 0 -3.66,3.66l0,0.16a3.66,3.66 0 0 0 3.66,3.66l38.12,0a3.66,3.66 0 0 0 3.66,-3.66l0,-0.16" id="svg_58" stroke="#62899c"/>
   <path d="m883.69,199.57a11.35,11.35 0 0 0 -11.35,-11.35a11.35,11.35 0 0 0 -11.35,11.35a11.35,11.35 0 0 0 11.35,11.35a11.35,11.35 0 0 0 11.35,-11.35" id="svg_59" stroke="#588f79"/>
   <path d="m826.43,214.55l-22.89,0.45" id="svg_60" stroke="#212737"/>
   <path d="m803.54,215q-3.77,-0.65 -7.54,0.04" id="svg_61" stroke="#56656f"/>
   <path d="m796,215.04q-15.47,-0.62 -25.25,-0.29c-7.82,0.27 -8.99,-4.22 -9.01,-11.11q-0.08,-21.44 -0.28,-42.89" id="svg_62" stroke="#212737"/>
   <path d="m814.95,130.68a3.62,3.62 0 0 0 -3.62,-3.62l-22.94,0a3.62,3.62 0 0 0 -3.62,3.62l0,0.2a3.62,3.62 0 0 0 3.62,3.62l22.94,0a3.62,3.62 0 0 0 3.62,-3.62l0,-0.2" id="svg_63" stroke="#405a68"/>
   <path d="m814.76,146.03a3.71,3.71 0 0 0 -3.7,-3.72l-22.56,-0.04a3.71,3.71 0 0 0 -3.72,3.7l0,0.24a3.71,3.71 0 0 0 3.7,3.72l22.56,0.04a3.71,3.71 0 0 0 3.72,-3.7l0,-0.24" id="svg_64" stroke="#405a68"/>
   <path d="m811.12,180.47a11.33,11.33 0 0 0 -11.33,-11.33a11.33,11.33 0 0 0 -11.33,11.33a11.33,11.33 0 0 0 11.33,11.33a11.33,11.33 0 0 0 11.33,-11.33" id="svg_65" stroke="#3c5f53"/>
   <path d="m983.04,183q0.06,11.38 -0.04,22.75c-0.07,7.94 -4.25,9.01 -11.41,8.95q-11.42,-0.09 -22.84,0.34" id="svg_66" stroke="#23293a"/>
   <path d="m948.75,215.04q-3.88,-0.72 -7.75,0" id="svg_67" stroke="#56656f"/>
   <path d="m941,215.04l-22.71,-0.54" id="svg_68" stroke="#212737"/>
   <path d="m959.98,130.7a3.62,3.62 0 0 0 -3.61,-3.63l-22.96,-0.04a3.62,3.62 0 0 0 -3.63,3.61l0,0.22a3.62,3.62 0 0 0 3.61,3.63l22.96,0.04a3.62,3.62 0 0 0 3.63,-3.61l0,-0.22" id="svg_69" stroke="#405a68"/>
   <path d="m959.92,146.05a3.58,3.58 0 0 0 -3.55,-3.61l-22.94,-0.16a3.58,3.58 0 0 0 -3.61,3.55l0,0.32a3.58,3.58 0 0 0 3.55,3.61l22.94,0.16a3.58,3.58 0 0 0 3.61,-3.55l0,-0.32" id="svg_70" stroke="#405a68"/>
   <path d="m956.24,180.47a11.33,11.33 0 0 0 -11.33,-11.33a11.33,11.33 0 0 0 -11.33,11.33a11.33,11.33 0 0 0 11.33,11.33a11.33,11.33 0 0 0 11.33,-11.33" id="svg_71" stroke="#3c5f53"/>
   <path d="m937.04,501.25l0.94,-4.82a2.05,1.77 13.9 0 0 -1.5,-2.11l-4.73,-1.36" id="svg_73" stroke="#283950"/>
   <path d="m931.75,492.96c1.46,-5.01 6.8,-17.44 -3,-17.67" id="svg_74" stroke="#757185"/>
   <path d="m928.75,475.29q-0.43,-0.04 -0.75,-0.33" id="svg_75" stroke="#7b7788"/>
   <path d="m928,474.96l2.46,-7.71" id="svg_76" stroke="#283950"/>
   <path d="m930.46,467.25q6.25,-17.82 12.51,-35.63q2.12,-6.03 3.34,-12.31c2.83,-14.5 -3.76,-30.19 -15.2,-38.95c-6.38,-4.89 -20.81,-11.51 -27.67,-14.05c-19.16,-7.1 -39.35,-0.71 -50.64,16.13c-4.12,6.16 -8.44,12.16 -12.59,18.31" id="svg_77" stroke="#2d425b"/>
   <path d="m840.21,400.75q-2.59,2.76 -4,6.25" id="svg_78" stroke="#283950"/>
   <path d="m836.21,407q-3.8,-2.16 -7.5,-4.48c-4.94,-3.09 -8.67,5.43 -10.85,9.38" id="svg_79" stroke="#7b3b49"/>
   <path d="m817.86,411.9l-10.43,-6.07q-1.38,-0.8 -2.91,-0.09c-3.75,1.74 -22.88,7.68 -13.11,14.19q7.46,4.97 15.3,9.32" id="svg_80" stroke="#2d425b"/>
   <path d="m806.71,429.25q15,9.95 30.54,19.04" id="svg_81" stroke="#7b7788"/>
   <path d="m837.25,448.29l12.5,8" id="svg_82" stroke="#2d425b"/>
   <path d="m849.75,456.29c2.64,1.96 8.59,6.72 11.45,2.72c1.62,-2.26 0.8,-13.54 0.8,-16.81q0,-2.86 -2.21,-4.2l-6.54,-3.96" id="svg_83" stroke="#283950"/>
   <path d="m853.25,434.04l-2.79,-2.04" id="svg_84" stroke="#2d425b"/>
   <path d="m850.46,432l5.5,-8.98q0.9,-1.46 -0.23,-2.99q-1.63,-2.21 -4.48,-3.49" id="svg_85" stroke="#7a2f3c"/>
   <path d="m851.25,416.54l-3.95,-2.6" id="svg_86" stroke="#7b3b49"/>
   <path d="m847.3,413.94q2.95,-2.73 4.9,-6.08" id="svg_87" stroke="#283950"/>
   <path d="m852.2,407.86c13.04,-19.3 22.57,-38.64 49.77,-26.93c15.71,6.77 31.21,12.66 30.86,32.16q-0.08,4.44 -2.47,11.55q-6.65,19.82 -13.4,39.61" id="svg_88" stroke="#2d425b"/>
   <path d="m916.96,464.25q-2.09,3.58 -2.11,7.77" id="svg_89" stroke="#283950"/>
   <path d="m914.85,472.02c-3.34,-0.72 -7.67,-2.36 -8.91,2.28q-1.51,5.65 -3.02,11.95" id="svg_90" stroke="#7b7788"/>
   <path d="m902.92,486.25q-1.93,0.12 -4,-0.69q-2.33,-0.93 -3.08,1.47q-1.84,5.86 -2.84,12.68" id="svg_91" stroke="#2d425b"/>
   <path d="m893,499.71l-11.55,-1.78" id="svg_92" stroke="#7b3b49"/>
   <path d="m881.45,497.93q-23.32,-4.56 -33.95,-5.68q-10.54,-1.11 -21.25,3.96" id="svg_93" stroke="#2d425b"/>
   <path d="m826.25,496.21c-17.65,7.86 -23.01,20.7 -27.04,38.54" id="svg_94" stroke="#7b3b49"/>
   <path d="m799.21,534.75c-2.62,-0.12 -6.77,-0.57 -8.57,1.55q-1.7,2.01 0.58,4.53a1.71,1.56 -12.3 0 0 0.83,0.48q2.93,0.67 5.91,0.19" id="svg_95" stroke="#7a2f3c"/>
   <path d="m797.96,541.5l-0.75,6" id="svg_96" stroke="#7b3b49"/>
   <path d="m797.21,547.5c-3.27,-0.15 -9.83,-1.25 -9.71,3.96" id="svg_97" stroke="#7a2f3c"/>
   <path d="m257.71,543.76l0.1,37.67a0.66,0.63 -84 0 0 0.49,0.64q1.72,0.38 5.45,0.43q17.35,0.22 34.69,-0.3a0.63,0.63 -84.8 0 0 0.6,-0.5q1.12,-5.7 0,-11.41a0.62,0.62 -5.7 0 0 -0.61,-0.5l-24.61,-0.26a1.08,1.06 0.3 0 1 -1.07,-1.06l0,-41.27a0.97,0.94 -89.4 0 0 -0.92,-0.97l-13.92,-0.3" id="svg_100" stroke="#8c8991"/>
   <path d="m934.75,279.79c9.64,-0.08 16.07,0.56 22.17,-0.3c2.18,-0.31 3.01,-1.77 3.37,-3.74" id="svg_102" stroke="#6b6b75"/>
   <path d="m960.29,275.75c4.1,0.21 22.71,1.34 25.25,-0.88c2.91,-2.54 0.85,-6.23 -3.04,-6.37q-14.16,-0.5 -21.96,0.25" id="svg_103" stroke="#4c5058"/>
   <path d="m960.54,268.75c-1.6,-6.33 -7.33,-3.62 -12.04,-4.54" id="svg_104" stroke="#6b6b75"/>
   <path d="m948.5,264.21l0.25,-49.17" id="svg_105" stroke="#4c5058"/>
   <path d="m320.48,530.01a8.71,8.47 -2.2 0 0 -9.03,-8.13a8.71,8.47 -2.2 0 0 -8.37,8.79a8.71,8.47 -2.2 0 0 9.03,8.13a8.71,8.47 -2.2 0 0 8.37,-8.79" id="svg_106" stroke="#8c8991"/>
   <path d="m340.55,544.26q-0.18,-0.46 -0.05,-1.01q0.65,-2.68 -1.81,-2.69l-11.89,-0.04a1.26,1.23 -89.5 0 0 -1.24,1.25l-0.26,38.72a1.81,1.79 -87 0 0 1.61,1.81q4.99,0.51 12.89,-0.21a0.71,0.7 -2.7 0 0 0.64,-0.7q0.05,-10.86 0.11,-21.76c0.02,-4.58 1.5,-8.12 6.9,-6.06q1.69,0.64 1.82,2.45q0.82,11.71 0.44,25.18a0.96,0.92 -89.4 0 0 0.93,0.99l13.3,-0.21a0.56,0.53 -89.4 0 0 0.52,-0.54q0.56,-12.16 0.22,-24.32q-0.18,-6.63 -1.85,-9.95c-3.79,-7.53 -15.5,-10.47 -21.7,-2.88a0.36,0.32 -38.2 0 1 -0.58,-0.03" id="svg_107" stroke="#8c8991"/>
   <path d="m319.25,541.79a1.28,1.28 0 0 0 -1.28,-1.28l-12.44,0a1.28,1.28 0 0 0 -1.28,1.28l0,39.36a1.28,1.28 0 0 0 1.28,1.28l12.44,0a1.28,1.28 0 0 0 1.28,-1.28l0,-39.36" id="svg_108" stroke="#8c8991"/>
   <path d="m393.82,564.26c-0.25,8.4 -9.17,7.36 -9.13,-0.26q0.06,-10.37 0.06,-21.79a1.68,1.61 89.5 0 0 -1.64,-1.68l-12.7,0.2a0.71,0.67 89.6 0 0 -0.66,0.71q0,13.31 0,26.56c0,8.07 3.94,14.37 12.26,15.05c3.93,0.32 7.65,-0.86 10.56,-3.86q1.11,-1.14 1.61,2.07a1.12,1.09 85.4 0 0 1.08,0.94l12.24,0.01a1.53,1.5 -90 0 0 1.5,-1.53l-0.06,-38.82a1.19,1.19 2.4 0 0 -1.08,-1.17q-6.36,-0.56 -12.99,0.03a0.98,0.97 -2.9 0 0 -0.89,0.98q0.17,11.72 -0.16,22.56" id="svg_109" stroke="#8c8991"/>
   <path d="m436.21,574.04l5.23,7.81a0.99,0.93 -16.3 0 0 0.8,0.41l13.46,-0.05q1.66,-0.01 0.75,-1.41l-11.76,-18.17a2.22,2.21 -44.9 0 1 0.01,-2.4l11.78,-18.09q0.92,-1.42 -0.73,-1.44l-13.35,-0.16q-1.88,-0.02 -2.89,1.61l-4.21,6.84a0.76,0.75 -45.3 0 1 -1.29,0.02l-4.36,-7.09a2.9,2.63 72.4 0 0 -2.37,-1.38l-13.12,0.18q-1.21,0.01 -0.54,1.05l12.16,19.06a1.29,1.29 -44.9 0 1 0,1.4l-12.04,18.54a0.97,0.96 18.9 0 0 0.73,1.48q7.05,0.61 14.72,-0.02a1.09,0.97 11.5 0 0 0.79,-0.46l4.84,-7.72a0.83,0.82 44.1 0 1 1.39,-0.01" id="svg_110" stroke="#8c8991"/>
   <path d="m796,215.04l0.29,49.21" id="svg_111" stroke="#4a4e55"/>
   <path d="m796.29,264.25c-4.74,0.79 -10.52,-1.77 -12.08,4.5" id="svg_112" stroke="#696a72"/>
   <path d="m784.21,268.75q-11.47,-0.99 -23.27,-0.23q-1.95,0.13 -2.52,1.99c-1.2,3.89 1.06,5.17 4.53,5.36q10.65,0.58 21.28,-0.44" id="svg_113" stroke="#4a4e55"/>
   <path d="m784.23,275.43q0.66,4.29 5.27,4.3q10.25,0.02 20.5,0.04q4.54,0.01 5.28,-4.06" id="svg_114" stroke="#696a72"/>
   <path d="m815.28,275.71q20.72,0.69 41.43,0.04" id="svg_115" stroke="#4a4e55"/>
   <path d="m856.71,275.75c1.51,4.57 4.4,4 9.09,4q6.42,0 12.84,0c4.69,0 8.03,0.69 9.31,-4.08" id="svg_116" stroke="#696a72"/>
   <path d="m887.95,275.67q20.7,0.85 41.29,-0.04" id="svg_117" stroke="#4a4e55"/>
   <path d="m929.24,275.63q0.82,3.91 5.51,4.16" id="svg_118" stroke="#696a72"/>
   <path d="m257.91,525.93l-0.2,17.83" id="svg_119" stroke="#8a888e"/>
   <path d="m277,357.29q17.21,5.52 29.34,-6.91" id="svg_120" stroke="#34418e"/>
   <path d="m329.54,340.75c3.37,24.84 42.14,24.23 44.42,-1.07a1.02,1.01 -86 0 0 -0.96,-1.11l-13.03,-0.68a1.05,1.04 -83.1 0 0 -1.08,0.85c-1.92,10.29 -14.21,9.31 -14.39,-0.99q-0.16,-8.88 0.21,-17.75" id="svg_121" stroke="#34418e"/>
   <path d="m377.6,329.23l13.59,1.92a1.44,1.13 -53.5 0 0 0.91,-0.25c3.61,-2.5 9.46,-4.25 9.64,2.55a0.8,0.8 89.7 0 1 -0.81,0.82c-9.7,-0.17 -26.09,-0.07 -23.82,14.98c0.83,5.54 5.11,8.47 10.49,9.28c3.81,0.57 10.38,0.41 13.09,-2.95q1.2,-1.48 1.08,0.42q-0.16,2.42 1.98,2.39q5.97,-0.09 11.95,-0.2a1.07,1.07 -0.5 0 0 1.05,-1.07q0,-13.87 -0.13,-27.87c-0.06,-6.67 -6.56,-11.13 -12.62,-12.71" id="svg_122" stroke="#34418e"/>
   <path d="m481.81,319.7l-0.3,-17.04a0.94,0.92 -0.3 0 0 -0.94,-0.91l-12.32,0a1.53,1.52 -89.2 0 0 -1.52,1.49q-0.6,26.89 0.01,54.08a0.95,0.95 89.4 0 0 0.95,0.93l12.57,0a1.26,1.26 -88.8 0 0 1.26,-1.21q0.37,-10.7 0.26,-21.78c-0.04,-4.41 1.54,-7.85 6.65,-5.95q2.22,0.83 2.26,3.24l0.35,24.31a1.25,1.22 2.1 0 0 1.14,1.2q6.1,0.52 12.9,0a0.74,0.74 -0.9 0 0 0.68,-0.7q0.5,-12.16 0.17,-24.41q-0.19,-6.84 -1.86,-10.11c-4.27,-8.32 -15.23,-9.35 -21.9,-3q-0.35,0.33 -0.36,-0.14" id="svg_123" stroke="#34418e"/>
   <path d="m438.56,344.26c-2.37,-4.21 -3.59,-13.27 2.32,-15.24q3.8,-1.26 6.98,4.2a1.39,1.36 70 0 0 1.4,0.67l11.76,-1.89a1.47,1.45 80 0 0 1.19,-1.72c-2.85,-14.75 -22.99,-18.67 -33.73,-9.89c-5.3,4.33 -7.49,11.72 -7.06,18.31c0.88,13.34 10.47,21.44 24.33,19.78q12.74,-1.53 16.26,-13.75a1.46,1.4 -77.4 0 0 -1.11,-1.83l-12.28,-1.94a1.21,1.15 -74.1 0 0 -1.27,0.75q-2.41,6.02 -8.09,3.21a1.64,1.61 87.8 0 1 -0.7,-0.66" id="svg_124" stroke="#34418e"/>
   <path d="m527,341.19c7.9,-0.32 15.88,-0.18 23.55,-0.25a1.23,1.22 87.8 0 0 1.21,-1.31c-0.75,-10.53 -5.44,-21.37 -16.68,-23.49c-16.46,-3.12 -27.26,10.88 -24.06,26.36c3.62,17.52 24.31,20.3 37.08,11.49a1.79,1.76 -34.9 0 0 0.47,-2.49l-5.38,-7.52a1.38,1.34 -33.5 0 0 -1.83,-0.35q-6.38,3.93 -12.18,1.65q-1.21,-0.48 -2.07,-1.45q-2.25,-2.55 -0.11,-2.64" id="svg_125" stroke="#34418e"/>
   <path d="m354.5,446.67a18.55,18.55 0 0 0 -18.49,-18.61l-3.54,-0.02a18.55,18.55 0 0 0 -18.61,18.49l-0.02,5.54a18.55,18.55 0 0 0 18.49,18.61l3.54,0.02a18.55,18.55 0 0 0 18.61,-18.49l0.02,-5.54" id="svg_126" stroke="#8a888e"/>
   <path d="m374.76,431.94l-0.26,-1.19q-0.5,-2.25 -1.75,-2.25l-11.82,0a1.43,1.42 0 0 0 -1.43,1.42l0.06,39.28a1.06,1.06 89.7 0 0 1.06,1.05l12.75,0a1.15,1.14 -0.5 0 0 1.15,-1.16c-0.08,-5.39 -1.2,-22.79 0.93,-26.34c1.5,-2.49 5.63,-2.69 7.27,-0.23c2.16,3.24 1.09,20.37 1,25.69q-0.04,1.99 1.93,2l11.96,0.04a1.09,1.08 -89.7 0 0 1.08,-1.08q0.11,-12.95 -0.01,-26.17c-0.11,-13.22 -14.18,-20.79 -23.53,-10.93q-0.29,0.31 -0.39,-0.13" id="svg_127" stroke="#8a888e"/>
   <path d="m868.53,233.91l0.22,30.3" id="svg_128" stroke="#4a4e55"/>
   <path d="m868.75,264.21l-8.74,0.52a1.78,1.28 17 0 0 -0.91,0.31q-1.86,1.45 -2.36,3.49" id="svg_129" stroke="#696a72"/>
   <path d="m856.74,268.53q-20.76,-0.67 -41.45,-0.03" id="svg_130" stroke="#4a4e55"/>
   <path d="m815.29,268.5c-1.57,-5.96 -7.23,-3.48 -11.83,-4.25" id="svg_131" stroke="#696a72"/>
   <path d="m803.46,264.25c0.71,-16.36 -0.11,-32.85 0.08,-49.25" id="svg_132" stroke="#4a4e55"/>
   <path d="m941,215.04c0.67,16.2 -0.23,30.27 0.25,49.17" id="svg_133" stroke="#4a4e55"/>
   <path d="m941.25,264.21c-4.49,0.88 -10.4,-1.68 -11.96,4.31" id="svg_134" stroke="#696a72"/>
   <path d="m929.29,268.52q-20.79,-0.65 -41.5,-0.02" id="svg_135" stroke="#4a4e55"/>
   <path d="m887.79,268.5c-1.58,-6.01 -7.39,-3.44 -12.04,-4.29" id="svg_136" stroke="#696a72"/>
   <path d="m875.75,264.21q0.85,-14.97 0.46,-29.96" id="svg_137" stroke="#4a4e55"/>
   <path d="m803.46,264.25q-3.59,0.58 -7.17,0" id="svg_138" stroke="#9ea8aa"/>
   <path d="m948.5,264.21q-3.63,0.69 -7.25,0" id="svg_139" stroke="#9ea8aa"/>
   <path d="m875.75,264.21q-3.5,0.7 -7,0" id="svg_140" stroke="#9ea8aa"/>
   <path d="m815.29,268.5l-0.01,7.21" id="svg_141" stroke="#9ea8aa"/>
   <path d="m784.23,275.43q0.6,-3.59 -0.02,-6.68" id="svg_142" stroke="#9ea8aa"/>
   <path d="m887.79,268.5l0.16,7.17" id="svg_143" stroke="#9ea8aa"/>
   <path d="m856.71,275.75q0.69,-3.34 0.03,-7.22" id="svg_144" stroke="#9ea8aa"/>
   <path d="m960.54,268.75l-0.25,7" id="svg_145" stroke="#9ea8aa"/>
   <path d="m929.24,275.63q0.61,-3.79 0.05,-7.11" id="svg_146" stroke="#9ea8aa"/>
   <path d="m396.66,341.93c-11.78,1.4 2.6,13.04 5.13,1.38a1.14,1.13 -79.9 0 0 -0.95,-1.37q-2,-0.27 -4.18,-0.01" id="svg_148" stroke="#34418e"/>
   <path d="m535.55,332.57c-0.41,-5 -6.79,-4.75 -9.33,-0.9q-1.02,1.55 0.79,1.53l8.06,-0.1a0.49,0.48 87.8 0 0 0.48,-0.53" id="svg_149" stroke="#34418e"/>
   <path d="m930.46,467.25l-13.5,-3" id="svg_150" stroke="#3b6788"/>
   <path d="m852.2,407.86q-6.8,-2.29 -11.99,-7.11" id="svg_151" stroke="#3b6788"/>
   <path d="m847.3,413.94l-11.09,-6.94" id="svg_152" stroke="#8a6176"/>
   <path d="m851.25,416.54q-1.88,4.99 -4.97,9.37c-0.77,1.09 -0.69,1.79 -0.78,3.05" id="svg_153" stroke="#dc5761"/>
   <path d="m845.5,428.96l-27.64,-17.06" id="svg_154" stroke="#8f6a81"/>
   <path d="m845.5,428.96l4.96,3.04" id="svg_155" stroke="#8d5d74"/>
   <path d="m853.25,434.04c-0.06,4.84 -0.24,20.24 -3.5,22.25" id="svg_156" stroke="#3b6788"/>
   <path d="m837.25,448.29q1.92,-2.79 3.68,-5.68q1.83,-3 -1.24,-5.05q-12.35,-8.21 -24.81,-15.25q-2.43,-1.37 -4.02,0.94l-4.15,6" id="svg_157" stroke="#8fa5c0"/>
   <path d="m787.5,551.46c1.29,3.66 4.88,2.91 8.87,2.73" id="svg_158" stroke="#7d313f"/>
   <path d="m796.37,554.19q-1.66,22.35 19.63,27.31q2.83,0.66 15.18,0.13" id="svg_159" stroke="#7e3d4c"/>
   <path d="m831.18,581.63c6.36,5.77 10.02,9.87 19.22,10.35" id="svg_160" stroke="#30445f"/>
   <path d="m850.4,591.98q14.38,0.89 23.1,-10.27" id="svg_161" stroke="#2b3b54"/>
   <path d="m873.5,581.71l50,0" id="svg_162" stroke="#7e798b"/>
   <path d="m923.5,581.71q3.82,0.48 7,-0.32" id="svg_163" stroke="#30445f"/>
   <path d="m930.5,581.39q8.08,1.38 14.59,-2.52q9.16,-5.5 10.91,-16.08" id="svg_164" stroke="#2b3b54"/>
   <path d="m956,562.79l1.21,-14.04" id="svg_165" stroke="#787389"/>
   <path d="m957.21,548.75q-0.68,-25.75 -22.21,-39.29" id="svg_166" stroke="#7d313f"/>
   <path d="m935,509.46l2.04,-8.21" id="svg_167" stroke="#2b3b54"/>
   <path d="m334.21,458.07a8.72,5.51 89.9 0 0 5.49,-8.73a8.72,5.51 89.9 0 0 -5.53,-8.71a8.72,5.51 89.9 0 0 -5.49,8.73a8.72,5.51 89.9 0 0 5.53,8.71" id="svg_168" stroke="#8a888e"/>
   <path d="m928,474.96l-13.15,-2.94" id="svg_169" stroke="#8a9cb5"/>
   <path d="m928.75,475.29q-1.43,8.3 -4.52,16.08" id="svg_170" stroke="#d7d4ea"/>
   <path d="m924.23,491.37l-21.31,-5.12" id="svg_171" stroke="#8fa5c0"/>
   <path d="m931.75,492.96l-1,0.08" id="svg_172" stroke="#8396b2"/>
   <path d="m930.75,493.04l-6.52,-1.67" id="svg_173" stroke="#889fbd"/>
   <path d="m930.75,493.04l-3.58,12.96" id="svg_174" stroke="#3b6788"/>
   <path d="m927.17,506q-1.09,0.11 -1.67,-0.21" id="svg_175" stroke="#8d5d74"/>
   <path d="m925.5,505.79q-3.69,-1.18 -6,-1.54q-13.28,-2.07 -26.5,-4.54" id="svg_176" stroke="#8f6a81"/>
   <path d="m881.45,497.93q-0.03,5.52 -0.51,10.89c-0.29,3.26 -1.51,5.24 -4.94,5.23q-19.05,-0.05 -38.1,-0.05c-6.68,0 -12.24,0.85 -11.4,-7.75q0.34,-3.43 -0.25,-10.04" id="svg_177" stroke="#8f6a81"/>
   <path d="m856,503.35a6.07,3.74 1.1 0 0 -6,-3.86a6.07,3.74 1.1 0 0 -6.14,3.62a6.07,3.74 1.1 0 0 6,3.86a6.07,3.74 1.1 0 0 6.14,-3.62" id="svg_178" stroke="#3b6788"/>
   <path d="m935,509.46l-7.83,-3.46" id="svg_179" stroke="#885469"/>
   <path d="m925.5,505.79q0.34,1.29 2.06,2.65q15.94,12.58 18.69,33.52" id="svg_180" stroke="#dc5761"/>
   <path d="m946.25,541.96q-18.63,-8.34 -35.69,2.52q-3.78,2.41 -6.06,2.52q-9.23,0.46 -34.75,0.13" id="svg_181" stroke="#dd9fad"/>
   <path d="m869.75,547.13q-7.75,-6.7 -18.55,-6.07" id="svg_182" stroke="#8a6176"/>
   <path d="m851.2,541.06q-17.65,1.41 -23.01,16.99c-2.9,8.41 -1.73,16.21 2.99,23.58" id="svg_183" stroke="#8f6a81"/>
   <path d="m796.37,554.19l0.84,-6.69" id="svg_184" stroke="#dc5761"/>
   <path d="m797.96,541.5q1.36,-3.25 1.25,-6.75" id="svg_185" stroke="#dc5761"/>
   <path d="m904.77,532.64a3.37,3.37 0 0 0 -3.37,-3.37l-23.18,0a3.37,3.37 0 0 0 -3.37,3.37l0,0.2a3.37,3.37 0 0 0 3.37,3.37l23.18,0a3.37,3.37 0 0 0 3.37,-3.37l0,-0.2" id="svg_186" stroke="#8a6176"/>
   <path d="m957.21,548.75l-9.96,-6.21" id="svg_187" stroke="#d58c9e"/>
   <path d="m947.25,542.54l-1,-0.58" id="svg_188" stroke="#dc92a0"/>
   <path d="m947.25,542.54q-0.06,0.62 -0.41,1.1a1.34,0.89 -38.1 0 0 -0.28,0.85c0.22,2.13 1.06,16.66 -1.81,18.22" id="svg_189" stroke="#d7d4ea"/>
   <path d="m944.75,562.71q-5.34,0.06 -10.67,0.05c-12.91,-0.02 -10.57,10.02 -10.58,18.95" id="svg_190" stroke="#8fa5c0"/>
   <path d="m873.5,581.71q11.03,-18.85 -3.75,-34.58" id="svg_191" stroke="#8a9cb5"/>
   <path d="m851.2,541.06q14.33,7.41 16.47,21.87q1.12,7.57 -1.97,14.27q-4.53,9.84 -15.3,14.78" id="svg_192" stroke="#3b6788"/>
   <path d="m862.04,566.49a9.69,9.69 0 0 0 -9.69,-9.69a9.69,9.69 0 0 0 -9.69,9.69a9.69,9.69 0 0 0 9.69,9.69a9.69,9.69 0 0 0 9.69,-9.69" id="svg_193" stroke="#8fa5c0"/>
   <path d="m956,562.79l-10.25,0" id="svg_194" stroke="#8396b2"/>
   <path d="m945.75,562.79l-1,-0.08" id="svg_195" stroke="#889fbd"/>
   <path d="m930.5,581.39q12.04,-5.74 15.25,-18.6" id="svg_196" stroke="#3b6788"/>
  </g>
  <path d="m918.47,77.46l-0.18,17.79l0,3.25l-0.29,5.64q-19.29,-0.3 -38.5,-0.06c-17.46,0.23 -35.28,-0.33 -52.96,0.17l-0.33,-4.75l0,-5.75q0.72,-8.13 0,-16.25c0.63,-9.13 -2.7,-19.25 10.66,-19.25q32.5,0 65,0c9.36,0 16.84,-1.1 16.4,10.5q-0.17,4.74 0.2,8.71zm-30.99,3.6a3.79,3.79 0 0 0 -3.79,-3.79l-41.86,0a3.79,3.79 0 0 0 -3.79,3.79l0,0.14a3.79,3.79 0 0 0 3.79,3.79l41.86,0a3.79,3.79 0 0 0 3.79,-3.79l0,-0.14zm19.32,0.13a5.77,4.02 0.1 0 0 -5.76,-4.03a5.77,4.02 0.1 0 0 -5.78,4.01a5.77,4.02 0.1 0 0 5.76,4.03a5.77,4.02 0.1 0 0 5.78,-4.01z" fill="#547580" id="svg_199"/>
  <path d="m826.21,77.5q0.72,8.12 0,16.25c-3.26,-1.42 -12.23,-2.62 -10.95,3.8q0.36,1.8 2.09,2.41q4.29,1.5 8.86,-0.46l0.33,4.75l-0.08,11.5l-64.91,-0.33q-0.08,-13.02 -0.06,-25.73c0.01,-7.46 1.03,-12.43 9.51,-12.44q36.73,-0.04 55.21,0.25zm-18.93,18.87a3.8,3.8 0 0 0 -3.8,-3.8l-26.58,0a3.8,3.8 0 0 0 -3.8,3.8l0,0.3a3.8,3.8 0 0 0 3.8,3.8l26.58,0a3.8,3.8 0 0 0 3.8,-3.8l0,-0.3z" fill="#35495e" id="svg_200"/>
  <rect fill="#3f5c6c" height="7.72" id="svg_201" rx="3.79" width="49.44" x="838.04" y="77.27"/>
  <ellipse cx="0" cy="0" fill="#3f5c6c" id="svg_202" rx="5.77" ry="4.02" transform="translate(901.03,81.18) rotate(0.1)"/>
  <path d="m982.97,115.57l-64.68,0.18l-0.29,-11.61l0.29,-5.64q1.91,1.95 5.46,2c3.98,0.06 25.63,0.88 27.64,-1.08q1.33,-1.29 0.71,-4.27q-0.44,-2.07 -2.54,-2.22q-13.55,-0.96 -28.06,-0.18q-2.99,0.16 -3.21,2.5l0.18,-17.79q27.97,-0.37 55.78,-0.22c6.82,0.03 8.69,4.1 8.86,10.44q0.38,13.88 -0.14,27.89zm-11.32,-18.95a5.79,4.09 0.2 0 0 -5.78,-4.11a5.79,4.09 0.2 0 0 -5.8,4.07a5.79,4.09 0.2 0 0 5.78,4.11a5.79,4.09 0.2 0 0 5.8,-4.07z" fill="#35495e" id="svg_203"/>
  <path d="m240.32,98.73l12.15,0.21a0.86,0.79 -89 0 0 0.81,-0.85l0.2,-19.59a0.6,0.57 -4 0 1 0.52,-0.57q6.78,-0.96 13.57,-0.06a0.58,0.57 4 0 1 0.5,0.57l0.12,54.4a1.17,1.15 -0.2 0 1 -1.17,1.16l-12.44,0a1.11,1.08 -0.5 0 1 -1.11,-1.06l-0.19,-20.01a0.9,0.85 89.3 0 0 -0.86,-0.89l-11.98,0.12a0.53,0.52 -89.4 0 0 -0.52,0.52l-0.16,19.91a1.42,1.39 -89.8 0 1 -1.39,1.41l-12.38,0a1.24,1.24 0 0 1 -1.24,-1.24l0,-54.16a0.89,0.88 -2.5 0 1 0.81,-0.88q6.44,-0.57 13.42,0.05a0.85,0.85 -87.4 0 1 0.77,0.85l0.06,19.56a0.55,0.51 90 0 0 0.51,0.55z" fill="#ffffff" id="svg_204"/>
  <path d="m445.09,90.03l-14.53,0.77a0.54,0.53 -1.2 0 0 -0.51,0.52l-0.3,41.64a0.82,0.76 -90 0 1 -0.75,0.81l-12.42,0.2q-1.83,0.03 -1.83,-1.89q0,-18.21 0,-37.06c0,-2.82 0.87,-5.61 -3.75,-4.48l-9.94,-0.1a1.07,1.07 0.3 0 1 -1.06,-1.07l0,-10.38a1.25,1.25 -0.7 0 1 1.22,-1.25q21.4,-0.61 42.84,0a1,0.97 -89.7 0 1 0.95,0.99l0.08,11.3z" fill="#ffffff" id="svg_205"/>
  <path d="m313.55,115.65a18.57,18.57 0 0 1 -18.51,18.63l-3.58,0.02a18.57,18.57 0 0 1 -18.63,-18.51l-0.02,-5.4a18.57,18.57 0 0 1 18.51,-18.63l3.58,-0.02a18.57,18.57 0 0 1 18.63,18.51l0.02,5.4zm-20.31,6.11a8.73,5.49 90 0 0 5.49,-8.73a8.73,5.49 90 0 0 -5.49,-8.73a8.73,5.49 90 0 0 -5.49,8.73a8.73,5.49 90 0 0 5.49,8.73z" fill="#ffffff" id="svg_206"/>
  <path d="m489.45,115.64a18.57,18.57 0 0 1 -18.51,18.63l-3.58,0.02a18.57,18.57 0 0 1 -18.63,-18.51l-0.02,-5.38a18.57,18.57 0 0 1 18.51,-18.63l3.58,-0.02a18.57,18.57 0 0 1 18.63,18.51l0.02,5.38zm-20.36,6.1a8.71,5.51 89.7 0 0 5.46,-8.74a8.71,5.51 89.7 0 0 -5.56,-8.68a8.71,5.51 89.7 0 0 -5.46,8.74a8.71,5.51 89.7 0 0 5.56,8.68z" fill="#ffffff" id="svg_207"/>
  <path d="m375.29,112.5l-6.05,20.01a2.1,2.09 -81.6 0 1 -2,1.49l-12.52,0a1.46,1.45 -7.9 0 1 -1.4,-1.05l-4.32,-15.2q-0.51,-1.8 -0.94,0.06l-3.48,15.13a1.4,1.36 6.2 0 1 -1.36,1.06l-12.23,0q-1.88,0 -2.44,-1.86l-1.76,-5.89l-9.54,-32.76a0.97,0.96 81.9 0 1 0.92,-1.24l13.27,0.05a1.18,1.16 84.5 0 1 1.13,0.94l3.89,18.58q0.41,1.95 0.85,0.01l4.09,-18.19a1.79,1.77 -83.4 0 1 1.73,-1.39l10.99,0a1.63,1.61 83.2 0 1 1.57,1.25l4.31,18.01q0.56,2.35 1.14,0l4.44,-18.29a1.21,1.14 -82.3 0 1 1.13,-0.92l13.15,0.15a1.11,1.07 -80.8 0 1 0.99,1.43l-5.56,18.62z" fill="#ffffff" id="svg_208"/>
  <rect fill="#2c3e50" height="7.9" id="svg_209" rx="3.8" width="34.18" x="773.1" y="92.57"/>
  <path d="m918.29,98.5l0,-3.25q0.22,-2.34 3.21,-2.5q14.51,-0.78 28.06,0.18q2.1,0.15 2.54,2.22q0.62,2.98 -0.71,4.27c-2.01,1.96 -23.66,1.14 -27.64,1.08q-3.55,-0.05 -5.46,-2z" fill="#2c3e50" id="svg_210"/>
  <path d="m826.21,93.75l0,5.75q-4.57,1.96 -8.86,0.46q-1.73,-0.61 -2.09,-2.41c-1.28,-6.42 7.69,-5.22 10.95,-3.8z" fill="#2c3e50" id="svg_211"/>
  <ellipse cx="0" cy="0" fill="#2c3e50" id="svg_212" rx="5.79" ry="4.09" transform="translate(965.86,96.60) rotate(0.2)"/>
  <path d="m918,104.14l0.29,11.61l0,98.75c0.13,12.84 1.75,19.8 -13.04,19.55q-14.52,-0.24 -29.04,0.2q-3.87,-0.73 -7.68,-0.34q-15.44,-0.07 -30.81,-0.15c-3.9,-0.02 -6.93,0.41 -9.48,-2.84c-2.7,-3.45 -1.84,-12.03 -1.81,-16.37l0.03,-98.8l0.08,-11.5c17.68,-0.5 35.5,0.06 52.96,-0.17q19.21,-0.24 38.5,0.06zm-22.84,15.18a3.76,3.76 0 0 0 -3.75,-3.77l-38,-0.06a3.76,3.76 0 0 0 -3.77,3.75l0,0.16a3.76,3.76 0 0 0 3.75,3.77l38,0.06a3.76,3.76 0 0 0 3.77,-3.75l0,-0.16zm-0.03,15.23a3.77,3.77 0 0 0 -3.77,-3.77l-37.86,0a3.77,3.77 0 0 0 -3.77,3.77l0,0.16a3.77,3.77 0 0 0 3.77,3.77l37.86,0a3.77,3.77 0 0 0 3.77,-3.77l0,-0.16zm0.02,15.36a3.66,3.66 0 0 0 -3.66,-3.66l-38.12,0a3.66,3.66 0 0 0 -3.66,3.66l0,0.16a3.66,3.66 0 0 0 3.66,3.66l38.12,0a3.66,3.66 0 0 0 3.66,-3.66l0,-0.16zm-11.46,49.66a11.35,11.35 0 0 0 -11.35,-11.35a11.35,11.35 0 0 0 -11.35,11.35a11.35,11.35 0 0 0 11.35,11.35a11.35,11.35 0 0 0 11.35,-11.35z" fill="#3f5c6c" id="svg_213"/>
  <path d="m761.55,115.42l64.91,0.33l-0.03,98.8l-22.89,0.45q-3.77,-0.65 -7.54,0.04q-15.47,-0.62 -25.25,-0.29c-7.82,0.27 -8.99,-4.22 -9.01,-11.11q-0.08,-21.44 -0.28,-42.89l0.09,-45.33zm53.4,15.26a3.62,3.62 0 0 0 -3.62,-3.62l-22.94,0a3.62,3.62 0 0 0 -3.62,3.62l0,0.2a3.62,3.62 0 0 0 3.62,3.62l22.94,0a3.62,3.62 0 0 0 3.62,-3.62l0,-0.2zm-0.19,15.35a3.71,3.71 0 0 0 -3.7,-3.72l-22.56,-0.04a3.71,3.71 0 0 0 -3.72,3.7l0,0.24a3.71,3.71 0 0 0 3.7,3.72l22.56,0.04a3.71,3.71 0 0 0 3.72,-3.7l0,-0.24zm-3.64,34.44a11.33,11.33 0 0 0 -11.33,-11.33a11.33,11.33 0 0 0 -11.33,11.33a11.33,11.33 0 0 0 11.33,11.33a11.33,11.33 0 0 0 11.33,-11.33z" fill="#2c3e50" id="svg_216"/>
  <rect fill="#84b5cb" height="7.68" id="svg_217" rx="3.76" transform="translate(872.40,119.36) rotate(0.1)" width="45.52" x="-22.76" y="-3.84"/>
  <path d="m982.97,115.57l0.07,67.43q0.06,11.38 -0.04,22.75c-0.07,7.94 -4.25,9.01 -11.41,8.95q-11.42,-0.09 -22.84,0.34q-3.88,-0.72 -7.75,0l-22.71,-0.54l0,-98.75l64.68,-0.18zm-22.99,15.13a3.62,3.62 0 0 0 -3.61,-3.63l-22.96,-0.04a3.62,3.62 0 0 0 -3.63,3.61l0,0.22a3.62,3.62 0 0 0 3.61,3.63l22.96,0.04a3.62,3.62 0 0 0 3.63,-3.61l0,-0.22zm-0.06,15.35a3.58,3.58 0 0 0 -3.55,-3.61l-22.94,-0.16a3.58,3.58 0 0 0 -3.61,3.55l0,0.32a3.58,3.58 0 0 0 3.55,3.61l22.94,0.16a3.58,3.58 0 0 0 3.61,-3.55l0,-0.32zm-3.68,34.42a11.33,11.33 0 0 0 -11.33,-11.33a11.33,11.33 0 0 0 -11.33,11.33a11.33,11.33 0 0 0 11.33,11.33a11.33,11.33 0 0 0 11.33,-11.33z" fill="#2c3e50" id="svg_218"/>
  <rect fill="#547580" height="7.44" id="svg_220" rx="3.62" width="30.18" x="784.77" y="127.06"/>
  <rect fill="#547580" height="7.46" id="svg_221" rx="3.62" transform="translate(944.88,130.78) rotate(0.1)" width="30.2" x="-15.1" y="-3.73"/>
  <rect fill="#84b5cb" height="7.7" id="svg_222" rx="3.77" width="45.4" x="849.73" y="130.78"/>
  <rect fill="#547580" height="7.66" id="svg_223" rx="3.71" transform="translate(799.77,146.12) rotate(0.1)" width="29.98" x="-14.99" y="-3.83"/>
  <rect fill="#547580" height="7.48" id="svg_224" rx="3.58" transform="translate(944.87,146.10) rotate(0.4)" width="30.1" x="-15.05" y="-3.74"/>
  <rect fill="#84b5cb" height="7.48" id="svg_225" rx="3.66" width="45.44" x="849.71" y="146.25"/>
  <circle cx="799.79" cy="180.47" fill="#4c8056" id="svg_227" r="11.33"/>
  <circle cx="944.91" cy="180.47" fill="#4c8056" id="svg_228" r="11.33"/>
  <circle cx="872.34" cy="199.57" fill="#71c285" id="svg_229" r="11.35"/>
  <path d="m276.56,224.55l-0.06,20.59a0.85,0.84 -2.6 0 1 -0.77,0.84q-6.6,0.6 -13.59,-0.03a0.71,0.71 -87.4 0 1 -0.64,-0.71l0,-54.78a0.72,0.71 0 0 1 0.72,-0.71l38.67,0a1.31,1.23 0.4 0 1 1.31,1.25l-0.19,10.63a0.93,0.88 0.3 0 1 -0.92,0.86l-24.15,0.2a0.45,0.44 -0.7 0 0 -0.44,0.44l0,7.01a0.94,0.9 0.7 0 0 0.92,0.9l14.91,0.2a0.71,0.68 -89.6 0 1 0.67,0.71l0,11.06a0.75,0.72 89.6 0 1 -0.71,0.75l-15.23,0.31a0.51,0.48 -0.6 0 0 -0.5,0.48z" fill="#5271ff" id="svg_230"/>
  <rect fill="#5271ff" height="56.36" id="svg_231" rx="1.37" width="15.24" x="305.75" y="189.75"/>
  <path d="m428.66,207.81c6.9,-7.29 18.37,-4.52 22.1,3.63q1.43,3.12 1.49,8.98q0.13,12.45 -0.18,24.9a0.54,0.5 -89.4 0 1 -0.5,0.53l-13.24,0.09a0.89,0.84 88.3 0 1 -0.85,-0.85q-0.4,-9.61 -0.25,-19.61c0.06,-3.46 0.5,-8.12 -4.14,-8.83c-3.54,-0.55 -4.81,2.49 -4.91,5.61q-0.34,10.92 -0.17,22.41a1.3,1.23 89.5 0 1 -1.23,1.32l-12.62,-0.02a1.2,1.15 90 0 1 -1.15,-1.2l0.23,-54.15a0.88,0.88 -89.7 0 1 0.88,-0.87l12.63,0.05a1.37,1.29 89.5 0 1 1.29,1.35l0.24,16.55q0.01,0.51 0.38,0.11z" fill="#5271ff" id="svg_232"/>
  <path d="m392.98,232.61c-7.18,-3.03 -16.22,-1.33 -20.68,-9.46c-10.5,-19.16 29.6,-29.3 35.63,-6.73q0.65,2.45 -1.71,2.44l-11.29,-0.01a0.87,0.72 74.6 0 1 -0.7,-0.49c-3.55,-7.28 -13.79,-0.11 -5.89,1.25c9.28,1.59 21.92,2.9 20.41,15.89c-1.41,12.06 -20.12,12.48 -28.8,9.93q-7.81,-2.3 -9.8,-10.61q-0.63,-2.62 2.05,-2.9q5.13,-0.54 11.55,0.03a0.93,0.9 78.9 0 1 0.72,0.5q2.61,5.07 8.34,2.36q1.09,-0.51 0.81,-1.53a1.16,0.91 8.2 0 0 -0.64,-0.67z" fill="#5271ff" id="svg_233"/>
  <path d="m350.36,242.92q0.18,-1.42 -0.73,-0.32q-2.55,3.06 -6.3,3.79c-11.9,2.3 -17.18,-6.11 -17.02,-16.64q0.19,-12 0.19,-24.02a1.48,1.48 0 0 1 1.48,-1.48l12.51,0a0.95,0.95 89.7 0 1 0.95,0.94q0.11,10.59 0.06,21.56q-0.01,1.84 0.33,3.35c0.8,3.59 5,5.02 7.37,2.1q1.24,-1.51 1.23,-4.38q-0.02,-11.41 0.32,-22.81a0.53,0.52 -1.8 0 1 0.49,-0.51q7.04,-0.57 13.35,-0.11a1.21,1.18 2.3 0 1 1.13,1.19l-0.27,39.61a0.59,0.57 -4 0 1 -0.51,0.57c-3.89,0.59 -7.63,0.49 -11.56,0.6q-3.48,0.1 -3.02,-3.44z" fill="#5271ff" id="svg_234"/>
  <path d="m826.43,214.55c-0.03,4.34 -0.89,12.92 1.81,16.37c2.55,3.25 5.58,2.82 9.48,2.84q15.37,0.08 30.81,0.15l0.22,30.3l-8.74,0.52a1.78,1.28 17 0 0 -0.91,0.31q-1.86,1.45 -2.36,3.49q-20.76,-0.67 -41.45,-0.03c-1.57,-5.96 -7.23,-3.48 -11.83,-4.25c0.71,-16.36 -0.11,-32.85 0.08,-49.25l22.89,-0.45z" fill="#15101d" id="svg_235"/>
  <path d="m918.29,214.5l22.71,0.54c0.67,16.2 -0.23,30.27 0.25,49.17c-4.49,0.88 -10.4,-1.68 -11.96,4.31q-20.79,-0.65 -41.5,-0.02c-1.58,-6.01 -7.39,-3.44 -12.04,-4.29q0.85,-14.97 0.46,-29.96q14.52,-0.44 29.04,-0.2c14.79,0.25 13.17,-6.71 13.04,-19.55z" fill="#15101d" id="svg_236"/>
  <path d="m803.54,215c-0.19,16.4 0.63,32.89 -0.08,49.25q-3.59,0.58 -7.17,0l-0.29,-49.21q3.77,-0.69 7.54,-0.04z" fill="#7f8c8d" id="svg_237"/>
  <path d="m948.75,215.04l-0.25,49.17q-3.63,0.69 -7.25,0c-0.48,-18.9 0.42,-32.97 -0.25,-49.17q3.87,-0.72 7.75,0z" fill="#7f8c8d" id="svg_238"/>
  <path d="m876.21,234.25q0.39,14.99 -0.46,29.96q-3.5,0.7 -7,0l-0.22,-30.3q3.81,-0.39 7.68,0.34z" fill="#7f8c8d" id="svg_239"/>
  <path d="m796.29,264.25q3.58,0.58 7.17,0c4.6,0.77 10.26,-1.71 11.83,4.25l-0.01,7.21q-0.74,4.07 -5.28,4.06q-10.25,-0.02 -20.5,-0.04q-4.61,-0.01 -5.27,-4.3q0.6,-3.59 -0.02,-6.68c1.56,-6.27 7.34,-3.71 12.08,-4.5z" fill="#bdc3c7" id="svg_240"/>
  <path d="m868.75,264.21q3.5,0.7 7,0c4.65,0.85 10.46,-1.72 12.04,4.29l0.16,7.17c-1.28,4.77 -4.62,4.08 -9.31,4.08q-6.42,0 -12.84,0c-4.69,0 -7.58,0.57 -9.09,-4q0.69,-3.34 0.03,-7.22q0.5,-2.04 2.36,-3.49a1.78,1.28 17 0 1 0.91,-0.31l8.74,-0.52z" fill="#bdc3c7" id="svg_241"/>
  <path d="m941.25,264.21q3.62,0.69 7.25,0c4.71,0.92 10.44,-1.79 12.04,4.54l-0.25,7c-0.36,1.97 -1.19,3.43 -3.37,3.74c-6.1,0.86 -12.53,0.22 -22.17,0.3q-4.69,-0.25 -5.51,-4.16q0.61,-3.79 0.05,-7.11c1.56,-5.99 7.47,-3.43 11.96,-4.31z" fill="#bdc3c7" id="svg_242"/>
  <path d="m784.21,268.75q0.62,3.09 0.02,6.68q-10.63,1.02 -21.28,0.44c-3.47,-0.19 -5.73,-1.47 -4.53,-5.36q0.57,-1.86 2.52,-1.99q11.8,-0.76 23.27,0.23z" fill="#7f8c8d" id="svg_243"/>
  <path d="m856.74,268.53q0.66,3.88 -0.03,7.22q-20.71,0.65 -41.43,-0.04l0.01,-7.21q20.69,-0.64 41.45,0.03z" fill="#7f8c8d" id="svg_244"/>
  <path d="m929.29,268.52q0.56,3.32 -0.05,7.11q-20.59,0.89 -41.29,0.04l-0.16,-7.17q20.71,-0.63 41.5,0.02z" fill="#7f8c8d" id="svg_245"/>
  <path d="m960.29,275.75l0.25,-7q7.8,-0.75 21.96,-0.25c3.89,0.14 5.95,3.83 3.04,6.37c-2.54,2.22 -21.15,1.09 -25.25,0.88z" fill="#7f8c8d" id="svg_246"/>
  <path d="m306.34,350.38q-12.13,12.43 -29.34,6.91q-11.59,-4.1 -12.27,-16.93a1.59,1.48 88.2 0 1 1.46,-1.67l12.63,-0.04a0.64,0.57 84.6 0 1 0.57,0.53q1.11,6.26 8.11,6.57c5.95,0.27 8.74,-6.04 2.26,-7.56c-6.56,-1.54 -18.12,-5.29 -22.14,-11.04c-4.28,-6.13 -3.49,-14.79 1.99,-20.03c12.24,-11.71 38.65,-5.93 38.64,13.4a1.17,1.14 90 0 1 -1.14,1.17l-12.8,0.01a0.63,0.61 83.5 0 1 -0.6,-0.49q-1.88,-8.14 -9.88,-6.86q-2.28,0.37 -3.29,1.56c-3.22,3.79 3.21,6.62 5.69,7.42c5.36,1.73 12.02,3.16 16.17,6.24q9.87,7.31 3.94,20.81z" fill="#5271ff" id="svg_247"/>
  <path d="m344.71,320q-0.37,8.87 -0.21,17.75c0.18,10.3 12.47,11.28 14.39,0.99a1.05,1.04 -83.1 0 1 1.08,-0.85l13.03,0.68a1.02,1.01 -86 0 1 0.96,1.11c-2.28,25.3 -41.05,25.91 -44.42,1.07c-0.17,-7.82 -1.44,-20.76 1.75,-27.81c4.95,-10.92 18.12,-13.79 28.95,-10.4q12.09,3.79 13.57,17.01a1.73,1.72 85.1 0 1 -1.6,1.92l-12.43,0.78a0.91,0.9 83.2 0 1 -0.94,-0.75q-1.38,-8.26 -9.03,-7.19q-4.33,0.61 -5.1,5.69z" fill="#5271ff" id="svg_248"/>
  <path d="m206.75,339.75c0,22.28 -28.67,18.76 -42.26,18.45a1.78,1.78 0.7 0 1 -1.74,-1.78l0.06,-52.69q0.01,-1.93 1.95,-1.96c14.53,-0.21 42.47,-3.57 42.13,19.23q-0.14,9.38 -0.14,18.75zm-15.37,-18.5c-0.1,-6.83 -7.75,-7.38 -12.83,-6.3a0.64,0.62 -6.4 0 0 -0.5,0.61l0.12,29a0.59,0.57 -87.2 0 0 0.5,0.57c6.2,0.8 12.4,0.84 12.62,-7.39q0.21,-8.24 0.09,-16.49z" fill="#5271ff" id="svg_249"/>
  <path d="m244.19,329.85l0.31,-27.33a0.52,0.52 -2.4 0 1 0.48,-0.52q6.64,-0.59 13.76,0.04a0.57,0.56 2.3 0 1 0.51,0.55q0.66,27.26 -0.05,54.6a0.61,0.6 -4 0 1 -0.51,0.58q-6.54,1.06 -13.13,0.23a1.07,1.03 76.8 0 1 -0.76,-0.49c-1.55,-2.53 -16.41,-27.77 -16.81,-27.7a0.81,0.51 86.9 0 0 -0.43,0.76l0.2,25.85a1.82,1.82 89.8 0 1 -1.82,1.83l-12.1,0a1.09,1.09 0.2 0 1 -1.09,-1.09l0.06,-54.15a1.19,1.18 90 0 1 1.18,-1.19l11.72,-0.06a2.25,2.16 73.7 0 1 1.9,1.09l16.21,27.1q0.36,0.6 0.37,-0.1z" fill="#5271ff" id="svg_250"/>
  <path d="m482.17,319.84c6.67,-6.35 17.63,-5.32 21.9,3q1.67,3.27 1.86,10.11q0.33,12.25 -0.17,24.41a0.74,0.74 -0.9 0 1 -0.68,0.7q-6.8,0.52 -12.9,0a1.25,1.22 2.1 0 1 -1.14,-1.2l-0.35,-24.31q-0.04,-2.41 -2.26,-3.24c-5.11,-1.9 -6.69,1.54 -6.65,5.95q0.11,11.08 -0.26,21.78a1.26,1.26 -88.8 0 1 -1.26,1.21l-12.57,0a0.95,0.95 89.4 0 1 -0.95,-0.93q-0.61,-27.19 -0.01,-54.08a1.53,1.52 -89.2 0 1 1.52,-1.49l12.32,0a0.94,0.92 -0.3 0 1 0.94,0.91l0.3,17.04q0.01,0.47 0.36,0.14z" fill="#5271ff" id="svg_251"/>
  <path d="m404,316.54c6.06,1.58 12.56,6.04 12.62,12.71q0.13,14 0.13,27.87a1.07,1.07 -0.5 0 1 -1.05,1.07q-5.98,0.11 -11.95,0.2q-2.14,0.03 -1.98,-2.39q0.12,-1.9 -1.08,-0.42c-2.71,3.36 -9.28,3.52 -13.09,2.95c-5.38,-0.81 -9.66,-3.74 -10.49,-9.28c-2.27,-15.05 14.12,-15.15 23.82,-14.98a0.8,0.8 89.7 0 0 0.81,-0.82c-0.18,-6.8 -6.03,-5.05 -9.64,-2.55a1.44,1.13 -53.5 0 1 -0.91,0.25l-13.59,-1.92c1.65,-12.47 16.36,-15.1 26.4,-12.69zm-7.34,25.39c-11.78,1.4 2.6,13.04 5.13,1.38a1.14,1.13 -79.9 0 0 -0.95,-1.37q-2,-0.27 -4.18,-0.01z" fill="#5271ff" id="svg_253"/>
  <path d="m439.26,344.92q5.68,2.81 8.09,-3.21a1.21,1.15 -74.1 0 1 1.27,-0.75l12.28,1.94a1.46,1.4 -77.4 0 1 1.11,1.83q-3.52,12.22 -16.26,13.75c-13.86,1.66 -23.45,-6.44 -24.33,-19.78c-0.43,-6.59 1.76,-13.98 7.06,-18.31c10.74,-8.78 30.88,-4.86 33.73,9.89a1.47,1.45 80 0 1 -1.19,1.72l-11.76,1.89a1.39,1.36 70 0 1 -1.4,-0.67q-3.18,-5.46 -6.98,-4.2c-5.91,1.97 -4.69,11.03 -2.32,15.24a1.64,1.61 87.8 0 0 0.7,0.66z" fill="#5271ff" id="svg_254"/>
  <path d="m550.55,340.94c-7.67,0.07 -15.65,-0.07 -23.55,0.25q-2.14,0.09 0.11,2.64q0.86,0.97 2.07,1.45q5.8,2.28 12.18,-1.65a1.38,1.34 -33.5 0 1 1.83,0.35l5.38,7.52a1.79,1.76 -34.9 0 1 -0.47,2.49c-12.77,8.81 -33.46,6.03 -37.08,-11.49c-3.2,-15.48 7.6,-29.48 24.06,-26.36c11.24,2.12 15.93,12.96 16.68,23.49a1.23,1.22 87.8 0 1 -1.21,1.31zm-15,-8.37c-0.41,-5 -6.79,-4.75 -9.33,-0.9q-1.02,1.55 0.79,1.53l8.06,-0.1a0.49,0.48 87.8 0 0 0.48,-0.53z" fill="#5271ff" id="svg_255"/>
  <path d="m930.46,467.25l-13.5,-3q6.75,-19.79 13.4,-39.61q2.39,-7.11 2.47,-11.55c0.35,-19.5 -15.15,-25.39 -30.86,-32.16c-27.2,-11.71 -36.73,7.63 -49.77,26.93q-6.8,-2.29 -11.99,-7.11c4.15,-6.15 8.47,-12.15 12.59,-18.31c11.29,-16.84 31.48,-23.23 50.64,-16.13c6.86,2.54 21.29,9.16 27.67,14.05c11.44,8.76 18.03,24.45 15.2,38.95q-1.22,6.28 -3.34,12.31q-6.26,17.81 -12.51,35.63z" fill="#407093" id="svg_258"/>
  <path d="m840.21,400.75q5.19,4.82 11.99,7.11q-1.95,3.35 -4.9,6.08l-11.09,-6.94q1.41,-3.49 4,-6.25z" fill="#365e7d" id="svg_259"/>
  <path d="m836.21,407l11.09,6.94l3.95,2.6q-1.88,4.99 -4.97,9.37c-0.77,1.09 -0.69,1.79 -0.78,3.05l-27.64,-17.06c2.18,-3.95 5.91,-12.47 10.85,-9.38q3.7,2.32 7.5,4.48z" fill="#dd636e" id="svg_260"/>
  <path d="m817.86,411.9l27.64,17.06l4.96,3.04l2.79,2.04c-0.06,4.84 -0.24,20.24 -3.5,22.25l-12.5,-8q1.92,-2.79 3.68,-5.68q1.83,-3 -1.24,-5.05q-12.35,-8.21 -24.81,-15.25q-2.43,-1.37 -4.02,0.94l-4.15,6q-7.84,-4.35 -15.3,-9.32c-9.77,-6.51 9.36,-12.45 13.11,-14.19q1.53,-0.71 2.91,0.09l10.43,6.07z" fill="#407093" id="svg_261"/>
  <path d="m851.25,416.54q2.85,1.28 4.48,3.49q1.13,1.53 0.23,2.99l-5.5,8.98l-4.96,-3.04c0.09,-1.26 0.01,-1.96 0.78,-3.05q3.09,-4.38 4.97,-9.37z" fill="#da4a54" id="svg_263"/>
  <path d="m837.25,448.29q-15.54,-9.09 -30.54,-19.04l4.15,-6q1.59,-2.31 4.02,-0.94q12.46,7.04 24.81,15.25q3.07,2.05 1.24,5.05q-1.76,2.89 -3.68,5.68z" fill="#dddaec" id="svg_264"/>
  <path d="m354.48,452.21a18.55,18.55 0 0 1 -18.61,18.49l-3.54,-0.02a18.55,18.55 0 0 1 -18.49,-18.61l0.02,-5.54a18.55,18.55 0 0 1 18.61,-18.49l3.54,0.02a18.55,18.55 0 0 1 18.49,18.61l-0.02,5.54zm-20.27,5.86a8.72,5.51 89.9 0 0 5.49,-8.73a8.72,5.51 89.9 0 0 -5.53,-8.71a8.72,5.51 89.9 0 0 -5.49,8.73a8.72,5.51 89.9 0 0 5.53,8.71z" fill="#ffffff" id="svg_265"/>
  <path d="m375.15,432.07c9.35,-9.86 23.42,-2.29 23.53,10.93q0.12,13.22 0.01,26.17a1.09,1.08 -89.7 0 1 -1.08,1.08l-11.96,-0.04q-1.97,-0.01 -1.93,-2c0.09,-5.32 1.16,-22.45 -1,-25.69c-1.64,-2.46 -5.77,-2.26 -7.27,0.23c-2.13,3.55 -1.01,20.95 -0.93,26.34a1.15,1.14 -0.5 0 1 -1.15,1.16l-12.75,0a1.06,1.06 89.7 0 1 -1.06,-1.05l-0.06,-39.28a1.43,1.42 0 0 1 1.43,-1.42l11.82,0q1.25,0 1.75,2.25l0.26,1.19q0.1,0.44 0.39,0.13z" fill="#ffffff" id="svg_266"/>
  <path d="m853.25,434.04l6.54,3.96q2.21,1.34 2.21,4.2c0,3.27 0.82,14.55 -0.8,16.81c-2.86,4 -8.81,-0.76 -11.45,-2.72c3.26,-2.01 3.44,-17.41 3.5,-22.25z" fill="#365e7d" id="svg_267"/>
  <path d="m916.96,464.25l13.5,3l-2.46,7.71l-13.15,-2.94q0.02,-4.19 2.11,-7.77z" fill="#365e7d" id="svg_269"/>
  <path d="m914.85,472.02l13.15,2.94q0.32,0.29 0.75,0.33q-1.43,8.3 -4.52,16.08l-21.31,-5.12q1.51,-6.3 3.02,-11.95c1.24,-4.64 5.57,-3 8.91,-2.28z" fill="#dddaec" id="svg_270"/>
  <path d="m928.75,475.29c9.8,0.23 4.46,12.66 3,17.67l-1,0.08l-6.52,-1.67q3.09,-7.78 4.52,-16.08z" fill="#d0cee7" id="svg_271"/>
  <path d="m902.92,486.25l21.31,5.12l6.52,1.67l-3.58,12.96q-1.09,0.11 -1.67,-0.21q-3.69,-1.18 -6,-1.54q-13.28,-2.07 -26.5,-4.54q1,-6.82 2.84,-12.68q0.75,-2.4 3.08,-1.47q2.07,0.81 4,0.69z" fill="#407093" id="svg_272"/>
  <path d="m881.45,497.93q-0.03,5.52 -0.51,10.89c-0.29,3.26 -1.51,5.24 -4.94,5.23q-19.05,-0.05 -38.1,-0.05c-6.68,0 -12.24,0.85 -11.4,-7.75q0.34,-3.43 -0.25,-10.04q10.71,-5.07 21.25,-3.96q10.63,1.12 33.95,5.68zm-25.45,5.42a6.07,3.74 1.1 0 0 -6,-3.86a6.07,3.74 1.1 0 0 -6.14,3.62a6.07,3.74 1.1 0 0 6,3.86a6.07,3.74 1.1 0 0 6.14,-3.62z" fill="#407093" id="svg_273"/>
  <path d="m930.75,493.04l1,-0.08l4.73,1.36a2.05,1.77 13.9 0 1 1.5,2.11l-0.94,4.82l-2.04,8.21l-7.83,-3.46l3.58,-12.96z" fill="#365e7d" id="svg_274"/>
  <path d="m826.25,496.21q0.59,6.61 0.25,10.04c-0.84,8.6 4.72,7.75 11.4,7.75q19.05,0 38.1,0.05c3.43,0.01 4.65,-1.97 4.94,-5.23q0.48,-5.37 0.51,-10.89l11.55,1.78q13.22,2.47 26.5,4.54q2.31,0.36 6,1.54q0.34,1.29 2.06,2.65q15.94,12.58 18.69,33.52q-18.63,-8.34 -35.69,2.52q-3.78,2.41 -6.06,2.52q-9.23,0.46 -34.75,0.13q-7.75,-6.7 -18.55,-6.07q-17.65,1.41 -23.01,16.99c-2.9,8.41 -1.73,16.21 2.99,23.58q-12.35,0.53 -15.18,-0.13q-21.29,-4.96 -19.63,-27.31l0.84,-6.69l0.75,-6q1.36,-3.25 1.25,-6.75c4.03,-17.84 9.39,-30.68 27.04,-38.54zm78.52,36.43a3.37,3.37 0 0 0 -3.37,-3.37l-23.18,0a3.37,3.37 0 0 0 -3.37,3.37l0,0.2a3.37,3.37 0 0 0 3.37,3.37l23.18,0a3.37,3.37 0 0 0 3.37,-3.37l0,-0.2z" fill="#dd636e" id="svg_275"/>
  <ellipse cx="0" cy="0" fill="#365e7d" id="svg_276" rx="6.07" ry="3.74" transform="translate(849.93,503.23) rotate(1.1)"/>
  <path d="m925.5,505.79q0.58,0.32 1.67,0.21l7.83,3.46q21.53,13.54 22.21,39.29l-9.96,-6.21l-1,-0.58q-2.75,-20.94 -18.69,-33.52q-1.72,-1.36 -2.06,-2.65z" fill="#da4a54" id="svg_277"/>
  <ellipse cx="0" cy="0" fill="#ffffff" id="svg_278" rx="8.71" ry="8.47" transform="translate(311.78,530.34) rotate(-2.2)"/>
  <path d="m257.71,543.76l0.2,-17.83l13.92,0.3a0.97,0.94 -89.4 0 1 0.92,0.97l0,41.27a1.08,1.06 0.3 0 0 1.07,1.06l24.61,0.26a0.62,0.62 -5.7 0 1 0.61,0.5q1.12,5.71 0,11.41a0.63,0.63 -84.8 0 1 -0.6,0.5q-17.34,0.52 -34.69,0.3q-3.73,-0.05 -5.45,-0.43a0.66,0.63 -84 0 1 -0.49,-0.64l-0.1,-37.67z" fill="#ffffff" id="svg_279"/>
  <rect fill="#365e7d" height="6.94" id="svg_280" rx="3.37" width="29.92" x="874.85" y="529.27"/>
  <path d="m799.21,534.75q0.11,3.5 -1.25,6.75q-2.98,0.48 -5.91,-0.19a1.71,1.56 -12.3 0 1 -0.83,-0.48q-2.28,-2.52 -0.58,-4.53c1.8,-2.12 5.95,-1.67 8.57,-1.55z" fill="#da4a54" id="svg_281"/>
  <path d="m946.25,541.96l1,0.58q-0.06,0.62 -0.41,1.1a1.34,0.89 -38.1 0 0 -0.28,0.85c0.22,2.13 1.06,16.66 -1.81,18.22q-5.34,0.06 -10.67,0.05c-12.91,-0.02 -10.57,10.02 -10.58,18.95l-50,0q11.03,-18.85 -3.75,-34.58q25.52,0.33 34.75,-0.13q2.28,-0.11 6.06,-2.52q17.06,-10.86 35.69,-2.52z" fill="#dddaec" id="svg_282"/>
  <path d="m341.13,544.29c6.2,-7.59 17.91,-4.65 21.7,2.88q1.67,3.32 1.85,9.95q0.34,12.16 -0.22,24.32a0.56,0.53 -89.4 0 1 -0.52,0.54l-13.3,0.21a0.96,0.92 -89.4 0 1 -0.93,-0.99q0.38,-13.47 -0.44,-25.18q-0.13,-1.81 -1.82,-2.45c-5.4,-2.06 -6.88,1.48 -6.9,6.06q-0.06,10.9 -0.11,21.76a0.71,0.7 -2.7 0 1 -0.64,0.7q-7.9,0.72 -12.89,0.21a1.81,1.79 -87 0 1 -1.61,-1.81l0.26,-38.72a1.26,1.23 -89.5 0 1 1.24,-1.25l11.89,0.04q2.46,0.01 1.81,2.69q-0.13,0.55 0.05,1.01a0.36,0.32 -38.2 0 0 0.58,0.03z" fill="#ffffff" id="svg_283"/>
  <rect fill="#ffffff" height="41.92" id="svg_284" rx="1.28" width="15" x="304.25" y="540.51"/>
  <path d="m384.69,564c-0.04,7.62 8.88,8.66 9.13,0.26q0.33,-10.84 0.16,-22.56a0.98,0.97 -2.9 0 1 0.89,-0.98q6.63,-0.59 12.99,-0.03a1.19,1.19 2.4 0 1 1.08,1.17l0.06,38.82a1.53,1.5 -90 0 1 -1.5,1.53l-12.24,-0.01a1.12,1.09 85.4 0 1 -1.08,-0.94q-0.5,-3.21 -1.61,-2.07c-2.91,3 -6.63,4.18 -10.56,3.86c-8.32,-0.68 -12.26,-6.98 -12.26,-15.05q0,-13.25 0,-26.56a0.71,0.67 89.6 0 1 0.66,-0.71l12.7,-0.2a1.68,1.61 89.5 0 1 1.64,1.68q0,11.42 -0.06,21.79z" fill="#ffffff" id="svg_285"/>
  <path d="m436.21,574.04a0.83,0.82 44.1 0 0 -1.39,0.01l-4.84,7.72a1.09,0.97 11.5 0 1 -0.79,0.46q-7.67,0.63 -14.72,0.02a0.97,0.96 18.9 0 1 -0.73,-1.48l12.04,-18.54a1.29,1.29 -44.9 0 0 0,-1.4l-12.16,-19.06q-0.67,-1.04 0.54,-1.05l13.12,-0.18a2.9,2.63 72.4 0 1 2.37,1.38l4.36,7.09a0.76,0.75 -45.3 0 0 1.29,-0.02l4.21,-6.84q1.01,-1.63 2.89,-1.61l13.35,0.16q1.65,0.02 0.73,1.44l-11.78,18.09a2.22,2.21 -44.9 0 0 -0.01,2.4l11.76,18.17q0.91,1.4 -0.75,1.41l-13.46,0.05a0.99,0.93 -16.3 0 1 -0.8,-0.41l-5.23,-7.81z" fill="#ffffff" id="svg_286"/>
  <path d="m851.2,541.06q14.33,7.41 16.47,21.87q1.12,7.57 -1.97,14.27q-4.53,9.84 -15.3,14.78c-9.2,-0.48 -12.86,-4.58 -19.22,-10.35c-4.72,-7.37 -5.89,-15.17 -2.99,-23.58q5.36,-15.58 23.01,-16.99zm10.84,25.43a9.69,9.69 0 0 0 -9.69,-9.69a9.69,9.69 0 0 0 -9.69,9.69a9.69,9.69 0 0 0 9.69,9.69a9.69,9.69 0 0 0 9.69,-9.69z" fill="#407093" id="svg_287"/>
  <path d="m851.2,541.06q10.8,-0.63 18.55,6.07q14.78,15.73 3.75,34.58q-8.72,11.16 -23.1,10.27q10.77,-4.94 15.3,-14.78q3.09,-6.7 1.97,-14.27q-2.14,-14.46 -16.47,-21.87z" fill="#365e7d" id="svg_288"/>
  <path d="m947.25,542.54l9.96,6.21l-1.21,14.04l-10.25,0l-1,-0.08c2.87,-1.56 2.03,-16.09 1.81,-18.22a1.34,0.89 -38.1 0 1 0.28,-0.85q0.35,-0.48 0.41,-1.1z" fill="#d0cee7" id="svg_289"/>
  <path d="m797.21,547.5l-0.84,6.69c-3.99,0.18 -7.58,0.93 -8.87,-2.73c-0.12,-5.21 6.44,-4.11 9.71,-3.96z" fill="#da4a54" id="svg_290"/>
  <circle cx="852.35" cy="566.49" fill="#dddaec" id="svg_291" r="9.69"/>
  <path d="m956,562.79q-1.75,10.58 -10.91,16.08q-6.51,3.9 -14.59,2.52q12.04,-5.74 15.25,-18.6l10.25,0z" fill="#365e7d" id="svg_292"/>
  <path d="m944.75,562.71l1,0.08q-3.21,12.86 -15.25,18.6q-3.18,0.8 -7,0.32c0.01,-8.93 -2.33,-18.97 10.58,-18.95q5.33,0.01 10.67,-0.05z" fill="#407093" id="svg_293"/>
 </g>
</svg>